<mxfile host="app.diagrams.net" agent="Mozilla/5.0 (Windows NT 10.0; Win64; x64) AppleWebKit/537.36 (KHTML, like Gecko) Chrome/127.0.0.0 Safari/537.36" version="24.7.6" pages="9">
  <diagram name="Dashboard" id="VDsV2CBsjjNEXQGrdsmn">
    <mxGraphModel dx="1709" dy="1078" grid="1" gridSize="10" guides="1" tooltips="1" connect="1" arrows="1" fold="1" page="1" pageScale="1" pageWidth="827" pageHeight="1169" math="0" shadow="0">
      <root>
        <mxCell id="0" />
        <mxCell id="1" parent="0" />
        <mxCell id="mlSOohWln06hJsuoywdE-20" value="" style="group" vertex="1" connectable="0" parent="1">
          <mxGeometry x="90" y="130" width="840" height="590" as="geometry" />
        </mxCell>
        <mxCell id="70xJ1ambLI3TQrrKW7Tv-4" value="Dashboard BFF" style="shape=umlLifeline;perimeter=lifelinePerimeter;whiteSpace=wrap;html=1;container=0;dropTarget=0;collapsible=0;recursiveResize=0;outlineConnect=0;portConstraint=eastwest;newEdgeStyle={&quot;curved&quot;:0,&quot;rounded&quot;:0};fillColor=#fff2cc;strokeColor=#d6b656;" vertex="1" parent="mlSOohWln06hJsuoywdE-20">
          <mxGeometry x="220" y="1" width="100" height="589" as="geometry" />
        </mxCell>
        <mxCell id="mlSOohWln06hJsuoywdE-24" value="" style="group" vertex="1" connectable="0" parent="mlSOohWln06hJsuoywdE-20">
          <mxGeometry width="840" height="530" as="geometry" />
        </mxCell>
        <mxCell id="70xJ1ambLI3TQrrKW7Tv-1" value="" style="shape=umlLifeline;perimeter=lifelinePerimeter;whiteSpace=wrap;html=1;container=0;dropTarget=0;collapsible=0;recursiveResize=0;outlineConnect=0;portConstraint=eastwest;newEdgeStyle={&quot;curved&quot;:0,&quot;rounded&quot;:0};participant=umlActor;" vertex="1" parent="mlSOohWln06hJsuoywdE-24">
          <mxGeometry y="10" width="20" height="470" as="geometry" />
        </mxCell>
        <mxCell id="70xJ1ambLI3TQrrKW7Tv-2" value="External Data Power" style="shape=umlLifeline;perimeter=lifelinePerimeter;whiteSpace=wrap;html=1;container=0;dropTarget=0;collapsible=0;recursiveResize=0;outlineConnect=0;portConstraint=eastwest;newEdgeStyle={&quot;curved&quot;:0,&quot;rounded&quot;:0};" vertex="1" parent="mlSOohWln06hJsuoywdE-24">
          <mxGeometry x="84" width="100" height="530" as="geometry" />
        </mxCell>
        <mxCell id="70xJ1ambLI3TQrrKW7Tv-6" value="return" style="html=1;verticalAlign=bottom;endArrow=open;dashed=1;endSize=8;curved=0;rounded=0;" edge="1" parent="mlSOohWln06hJsuoywdE-24">
          <mxGeometry relative="1" as="geometry">
            <mxPoint x="10" y="370" as="targetPoint" />
            <mxPoint x="131.5" y="370" as="sourcePoint" />
          </mxGeometry>
        </mxCell>
        <mxCell id="70xJ1ambLI3TQrrKW7Tv-7" value="/common/dashboard" style="html=1;verticalAlign=bottom;endArrow=block;curved=0;rounded=0;" edge="1" parent="mlSOohWln06hJsuoywdE-24" target="70xJ1ambLI3TQrrKW7Tv-4">
          <mxGeometry relative="1" as="geometry">
            <mxPoint x="139" y="80" as="sourcePoint" />
            <mxPoint x="260" y="80" as="targetPoint" />
          </mxGeometry>
        </mxCell>
        <mxCell id="70xJ1ambLI3TQrrKW7Tv-8" value="return" style="html=1;verticalAlign=bottom;endArrow=open;dashed=1;endSize=8;curved=0;rounded=0;" edge="1" parent="mlSOohWln06hJsuoywdE-24">
          <mxGeometry relative="1" as="geometry">
            <mxPoint x="130" y="369" as="targetPoint" />
            <mxPoint x="268" y="369" as="sourcePoint" />
          </mxGeometry>
        </mxCell>
        <mxCell id="70xJ1ambLI3TQrrKW7Tv-9" value="IG (Core)" style="shape=umlLifeline;perimeter=lifelinePerimeter;whiteSpace=wrap;html=1;container=0;dropTarget=0;collapsible=0;recursiveResize=0;outlineConnect=0;portConstraint=eastwest;newEdgeStyle={&quot;curved&quot;:0,&quot;rounded&quot;:0};" vertex="1" parent="mlSOohWln06hJsuoywdE-24">
          <mxGeometry x="350" width="100" height="510" as="geometry" />
        </mxCell>
        <mxCell id="70xJ1ambLI3TQrrKW7Tv-10" value="/common/dashboard&lt;div&gt;/applications&lt;/div&gt;" style="html=1;verticalAlign=bottom;endArrow=block;curved=0;rounded=0;" edge="1" parent="mlSOohWln06hJsuoywdE-24">
          <mxGeometry relative="1" as="geometry">
            <mxPoint x="270.5" y="80" as="sourcePoint" />
            <mxPoint x="401.5" y="80" as="targetPoint" />
          </mxGeometry>
        </mxCell>
        <mxCell id="70xJ1ambLI3TQrrKW7Tv-11" value="return" style="html=1;verticalAlign=bottom;endArrow=open;dashed=1;endSize=8;curved=0;rounded=0;" edge="1" parent="mlSOohWln06hJsuoywdE-24">
          <mxGeometry relative="1" as="geometry">
            <mxPoint x="275" y="119" as="targetPoint" />
            <mxPoint x="395" y="119" as="sourcePoint" />
          </mxGeometry>
        </mxCell>
        <mxCell id="70xJ1ambLI3TQrrKW7Tv-12" value="Voucher management&amp;nbsp;" style="shape=umlLifeline;perimeter=lifelinePerimeter;whiteSpace=wrap;html=1;container=0;dropTarget=0;collapsible=0;recursiveResize=0;outlineConnect=0;portConstraint=eastwest;newEdgeStyle={&quot;curved&quot;:0,&quot;rounded&quot;:0};" vertex="1" parent="mlSOohWln06hJsuoywdE-24">
          <mxGeometry x="470" width="100" height="520" as="geometry" />
        </mxCell>
        <mxCell id="70xJ1ambLI3TQrrKW7Tv-13" value="return" style="html=1;verticalAlign=bottom;endArrow=open;dashed=1;endSize=8;curved=0;rounded=0;" edge="1" parent="mlSOohWln06hJsuoywdE-24">
          <mxGeometry x="-0.0783" y="-1" relative="1" as="geometry">
            <mxPoint x="270" y="211" as="targetPoint" />
            <mxPoint x="659.5" y="211" as="sourcePoint" />
            <mxPoint x="1" as="offset" />
          </mxGeometry>
        </mxCell>
        <mxCell id="70xJ1ambLI3TQrrKW7Tv-14" value="/autolesae/lead/&lt;div&gt;leadRequestStatus&lt;/div&gt;" style="html=1;verticalAlign=bottom;endArrow=block;curved=0;rounded=0;" edge="1" parent="mlSOohWln06hJsuoywdE-24">
          <mxGeometry x="-0.6765" relative="1" as="geometry">
            <mxPoint x="270" y="172" as="sourcePoint" />
            <mxPoint x="659.5" y="172" as="targetPoint" />
            <mxPoint as="offset" />
          </mxGeometry>
        </mxCell>
        <mxCell id="70xJ1ambLI3TQrrKW7Tv-15" value="return" style="html=1;verticalAlign=bottom;endArrow=open;dashed=1;endSize=8;curved=0;rounded=0;" edge="1" parent="mlSOohWln06hJsuoywdE-24">
          <mxGeometry x="-0.1129" relative="1" as="geometry">
            <mxPoint x="272" y="277" as="targetPoint" />
            <mxPoint x="520" y="277" as="sourcePoint" />
            <mxPoint as="offset" />
          </mxGeometry>
        </mxCell>
        <mxCell id="70xJ1ambLI3TQrrKW7Tv-16" value="/voucher-management/&lt;div&gt;vouchers/list&lt;/div&gt;" style="html=1;verticalAlign=bottom;endArrow=block;curved=0;rounded=0;" edge="1" parent="mlSOohWln06hJsuoywdE-24" target="70xJ1ambLI3TQrrKW7Tv-12">
          <mxGeometry x="-0.6765" relative="1" as="geometry">
            <mxPoint x="272" y="252" as="sourcePoint" />
            <mxPoint x="643" y="252" as="targetPoint" />
            <mxPoint as="offset" />
          </mxGeometry>
        </mxCell>
        <mxCell id="70xJ1ambLI3TQrrKW7Tv-17" value="(getAutolease applications)" style="text;html=1;align=center;verticalAlign=middle;resizable=0;points=[];autosize=1;strokeColor=none;fillColor=none;container=0;" vertex="1" parent="mlSOohWln06hJsuoywdE-24">
          <mxGeometry x="415" y="140" width="170" height="30" as="geometry" />
        </mxCell>
        <mxCell id="70xJ1ambLI3TQrrKW7Tv-18" value="(get Vouchers list)" style="text;html=1;align=center;verticalAlign=middle;resizable=0;points=[];autosize=1;strokeColor=none;fillColor=none;container=0;" vertex="1" parent="mlSOohWln06hJsuoywdE-24">
          <mxGeometry x="410" y="220" width="120" height="30" as="geometry" />
        </mxCell>
        <mxCell id="70xJ1ambLI3TQrrKW7Tv-19" value="AL Management&amp;nbsp;" style="shape=umlLifeline;perimeter=lifelinePerimeter;whiteSpace=wrap;html=1;container=0;dropTarget=0;collapsible=0;recursiveResize=0;outlineConnect=0;portConstraint=eastwest;newEdgeStyle={&quot;curved&quot;:0,&quot;rounded&quot;:0};" vertex="1" parent="mlSOohWln06hJsuoywdE-24">
          <mxGeometry x="610" width="100" height="510" as="geometry" />
        </mxCell>
        <mxCell id="70xJ1ambLI3TQrrKW7Tv-20" style="rounded=0;orthogonalLoop=1;jettySize=auto;html=1;dashed=1;" edge="1" parent="mlSOohWln06hJsuoywdE-24">
          <mxGeometry relative="1" as="geometry">
            <mxPoint x="789.5" y="333.5" as="sourcePoint" />
            <mxPoint x="269.5" y="333.5" as="targetPoint" />
          </mxGeometry>
        </mxCell>
        <mxCell id="70xJ1ambLI3TQrrKW7Tv-21" value="Unleash&amp;nbsp;" style="shape=umlLifeline;perimeter=lifelinePerimeter;whiteSpace=wrap;html=1;container=0;dropTarget=0;collapsible=0;recursiveResize=0;outlineConnect=0;portConstraint=eastwest;newEdgeStyle={&quot;curved&quot;:0,&quot;rounded&quot;:0};" vertex="1" parent="mlSOohWln06hJsuoywdE-24">
          <mxGeometry x="740" y="1" width="100" height="509" as="geometry" />
        </mxCell>
        <mxCell id="70xJ1ambLI3TQrrKW7Tv-22" style="rounded=0;orthogonalLoop=1;jettySize=auto;html=1;" edge="1" parent="mlSOohWln06hJsuoywdE-24">
          <mxGeometry relative="1" as="geometry">
            <mxPoint x="275" y="308" as="sourcePoint" />
            <mxPoint x="789.5" y="308" as="targetPoint" />
          </mxGeometry>
        </mxCell>
        <mxCell id="70xJ1ambLI3TQrrKW7Tv-23" value="Product List" style="edgeLabel;html=1;align=center;verticalAlign=middle;resizable=0;points=[];container=0;" vertex="1" connectable="0" parent="70xJ1ambLI3TQrrKW7Tv-22">
          <mxGeometry x="0.2042" y="3" relative="1" as="geometry">
            <mxPoint as="offset" />
          </mxGeometry>
        </mxCell>
        <mxCell id="70xJ1ambLI3TQrrKW7Tv-3" value="/common/dashboard" style="html=1;verticalAlign=bottom;endArrow=block;curved=0;rounded=0;" edge="1" parent="mlSOohWln06hJsuoywdE-24">
          <mxGeometry relative="1" as="geometry">
            <mxPoint x="9.5" y="80" as="sourcePoint" />
            <mxPoint x="140" y="80" as="targetPoint" />
          </mxGeometry>
        </mxCell>
        <mxCell id="70xJ1ambLI3TQrrKW7Tv-5" value="" style="html=1;points=[[0,0,0,0,5],[0,1,0,0,-5],[1,0,0,0,5],[1,1,0,0,-5]];perimeter=orthogonalPerimeter;outlineConnect=0;targetShapes=umlLifeline;portConstraint=eastwest;newEdgeStyle={&quot;curved&quot;:0,&quot;rounded&quot;:0};container=0;" vertex="1" parent="mlSOohWln06hJsuoywdE-24">
          <mxGeometry x="265" y="80" width="10" height="431" as="geometry" />
        </mxCell>
        <mxCell id="mlSOohWln06hJsuoywdE-21" value="" style="group" vertex="1" connectable="0" parent="1">
          <mxGeometry x="1300" y="50" width="720" height="580" as="geometry" />
        </mxCell>
        <mxCell id="mlSOohWln06hJsuoywdE-19" value="Aggregator Layer" style="text;html=1;align=center;verticalAlign=middle;whiteSpace=wrap;rounded=0;container=0;" vertex="1" parent="mlSOohWln06hJsuoywdE-21">
          <mxGeometry x="50" width="150" height="30" as="geometry" />
        </mxCell>
        <mxCell id="mlSOohWln06hJsuoywdE-1" style="rounded=0;orthogonalLoop=1;jettySize=auto;html=1;" edge="1" parent="mlSOohWln06hJsuoywdE-21">
          <mxGeometry relative="1" as="geometry">
            <mxPoint x="129.5" y="194" as="sourcePoint" />
            <mxPoint x="314.5" y="194" as="targetPoint" />
          </mxGeometry>
        </mxCell>
        <mxCell id="mlSOohWln06hJsuoywdE-2" value="get Applications" style="edgeLabel;html=1;align=center;verticalAlign=middle;resizable=0;points=[];" vertex="1" connectable="0" parent="mlSOohWln06hJsuoywdE-1">
          <mxGeometry x="-0.3135" y="-2" relative="1" as="geometry">
            <mxPoint as="offset" />
          </mxGeometry>
        </mxCell>
        <mxCell id="mlSOohWln06hJsuoywdE-3" style="edgeStyle=orthogonalEdgeStyle;rounded=0;orthogonalLoop=1;jettySize=auto;html=1;curved=0;" edge="1" parent="mlSOohWln06hJsuoywdE-21">
          <mxGeometry relative="1" as="geometry">
            <mxPoint x="129.5" y="266" as="sourcePoint" />
            <mxPoint x="509.5" y="266" as="targetPoint" />
          </mxGeometry>
        </mxCell>
        <mxCell id="mlSOohWln06hJsuoywdE-4" value="getApplication &amp;amp; contracts" style="edgeLabel;html=1;align=center;verticalAlign=middle;resizable=0;points=[];" vertex="1" connectable="0" parent="mlSOohWln06hJsuoywdE-3">
          <mxGeometry x="-0.2763" y="-2" relative="1" as="geometry">
            <mxPoint as="offset" />
          </mxGeometry>
        </mxCell>
        <mxCell id="mlSOohWln06hJsuoywdE-5" style="edgeStyle=orthogonalEdgeStyle;rounded=0;orthogonalLoop=1;jettySize=auto;html=1;curved=0;" edge="1" parent="mlSOohWln06hJsuoywdE-21">
          <mxGeometry relative="1" as="geometry">
            <mxPoint x="129.5" y="325" as="sourcePoint" />
            <mxPoint x="669.5" y="325" as="targetPoint" />
          </mxGeometry>
        </mxCell>
        <mxCell id="mlSOohWln06hJsuoywdE-6" value="get contracts" style="edgeLabel;html=1;align=center;verticalAlign=middle;resizable=0;points=[];" vertex="1" connectable="0" parent="mlSOohWln06hJsuoywdE-5">
          <mxGeometry x="-0.1019" y="3" relative="1" as="geometry">
            <mxPoint x="1" as="offset" />
          </mxGeometry>
        </mxCell>
        <mxCell id="mlSOohWln06hJsuoywdE-7" value="Core GW" style="shape=umlLifeline;perimeter=lifelinePerimeter;whiteSpace=wrap;html=1;container=1;dropTarget=0;collapsible=0;recursiveResize=0;outlineConnect=0;portConstraint=eastwest;newEdgeStyle={&quot;curved&quot;:0,&quot;rounded&quot;:0};" vertex="1" parent="mlSOohWln06hJsuoywdE-21">
          <mxGeometry x="80" y="70" width="100" height="510" as="geometry" />
        </mxCell>
        <mxCell id="mlSOohWln06hJsuoywdE-8" value="/common/dashboard" style="html=1;verticalAlign=bottom;endArrow=block;curved=0;rounded=0;" edge="1" parent="mlSOohWln06hJsuoywdE-21">
          <mxGeometry x="-0.084" relative="1" as="geometry">
            <mxPoint y="170" as="sourcePoint" />
            <mxPoint x="131" y="170" as="targetPoint" />
            <mxPoint as="offset" />
          </mxGeometry>
        </mxCell>
        <mxCell id="mlSOohWln06hJsuoywdE-9" style="edgeStyle=orthogonalEdgeStyle;rounded=0;orthogonalLoop=1;jettySize=auto;html=1;curved=0;dashed=1;" edge="1" parent="mlSOohWln06hJsuoywdE-21">
          <mxGeometry relative="1" as="geometry">
            <mxPoint x="314.5" y="228" as="sourcePoint" />
            <mxPoint x="129.5" y="228" as="targetPoint" />
          </mxGeometry>
        </mxCell>
        <mxCell id="mlSOohWln06hJsuoywdE-10" value="NEWGEN" style="shape=umlLifeline;perimeter=lifelinePerimeter;whiteSpace=wrap;html=1;container=1;dropTarget=0;collapsible=0;recursiveResize=0;outlineConnect=0;portConstraint=eastwest;newEdgeStyle={&quot;curved&quot;:0,&quot;rounded&quot;:0};" vertex="1" parent="mlSOohWln06hJsuoywdE-21">
          <mxGeometry x="265" y="70" width="100" height="510" as="geometry" />
        </mxCell>
        <mxCell id="mlSOohWln06hJsuoywdE-11" style="edgeStyle=orthogonalEdgeStyle;rounded=0;orthogonalLoop=1;jettySize=auto;html=1;curved=0;dashed=1;" edge="1" parent="mlSOohWln06hJsuoywdE-21">
          <mxGeometry relative="1" as="geometry">
            <mxPoint x="509.5" y="294" as="sourcePoint" />
            <mxPoint x="129.5" y="294" as="targetPoint" />
          </mxGeometry>
        </mxCell>
        <mxCell id="mlSOohWln06hJsuoywdE-12" value="Kastle extractor" style="shape=umlLifeline;perimeter=lifelinePerimeter;whiteSpace=wrap;html=1;container=1;dropTarget=0;collapsible=0;recursiveResize=0;outlineConnect=0;portConstraint=eastwest;newEdgeStyle={&quot;curved&quot;:0,&quot;rounded&quot;:0};" vertex="1" parent="mlSOohWln06hJsuoywdE-21">
          <mxGeometry x="460" y="70" width="100" height="510" as="geometry" />
        </mxCell>
        <mxCell id="mlSOohWln06hJsuoywdE-13" style="edgeStyle=orthogonalEdgeStyle;rounded=0;orthogonalLoop=1;jettySize=auto;html=1;curved=0;dashed=1;" edge="1" parent="mlSOohWln06hJsuoywdE-21">
          <mxGeometry relative="1" as="geometry">
            <mxPoint x="669.5" y="363" as="sourcePoint" />
            <mxPoint x="129.5" y="363" as="targetPoint" />
          </mxGeometry>
        </mxCell>
        <mxCell id="mlSOohWln06hJsuoywdE-14" value="T24" style="shape=umlLifeline;perimeter=lifelinePerimeter;whiteSpace=wrap;html=1;container=1;dropTarget=0;collapsible=0;recursiveResize=0;outlineConnect=0;portConstraint=eastwest;newEdgeStyle={&quot;curved&quot;:0,&quot;rounded&quot;:0};" vertex="1" parent="mlSOohWln06hJsuoywdE-21">
          <mxGeometry x="620" y="70" width="100" height="510" as="geometry" />
        </mxCell>
        <mxCell id="mlSOohWln06hJsuoywdE-15" value="aggregate" style="ellipse;whiteSpace=wrap;html=1;" vertex="1" parent="mlSOohWln06hJsuoywdE-21">
          <mxGeometry x="90" y="380" width="100" height="40" as="geometry" />
        </mxCell>
        <mxCell id="mlSOohWln06hJsuoywdE-16" style="edgeStyle=orthogonalEdgeStyle;rounded=0;orthogonalLoop=1;jettySize=auto;html=1;curved=0;dashed=1;" edge="1" parent="mlSOohWln06hJsuoywdE-21">
          <mxGeometry relative="1" as="geometry">
            <mxPoint x="130" y="440" as="sourcePoint" />
            <mxPoint x="20" y="440" as="targetPoint" />
          </mxGeometry>
        </mxCell>
        <mxCell id="mlSOohWln06hJsuoywdE-17" value="list of contracts &amp;amp; applications" style="edgeLabel;html=1;align=center;verticalAlign=middle;resizable=0;points=[];" vertex="1" connectable="0" parent="mlSOohWln06hJsuoywdE-16">
          <mxGeometry x="0.6909" y="-2" relative="1" as="geometry">
            <mxPoint as="offset" />
          </mxGeometry>
        </mxCell>
        <mxCell id="mlSOohWln06hJsuoywdE-22" value="Dashboard Flow&amp;nbsp;" style="text;html=1;align=center;verticalAlign=middle;whiteSpace=wrap;rounded=0;container=0;" vertex="1" parent="1">
          <mxGeometry x="100" y="60" width="160" height="30" as="geometry" />
        </mxCell>
      </root>
    </mxGraphModel>
  </diagram>
  <diagram id="-H-Oi4L3KklkbMixaV2p" name="branch onboarding ">
    <mxGraphModel grid="1" page="1" gridSize="10" guides="1" tooltips="1" connect="1" arrows="1" fold="1" pageScale="1" pageWidth="827" pageHeight="1169" math="0" shadow="0">
      <root>
        <mxCell id="0" />
        <mxCell id="1" parent="0" />
        <mxCell id="hz8eH05jnCoIRsSEUsET-1" style="rounded=0;orthogonalLoop=1;jettySize=auto;html=1;" parent="1" edge="1">
          <mxGeometry relative="1" as="geometry">
            <mxPoint x="110.00352941176465" y="249.9988235294117" as="sourcePoint" />
            <mxPoint x="205.68" y="249.9988235294117" as="targetPoint" />
          </mxGeometry>
        </mxCell>
        <mxCell id="hz8eH05jnCoIRsSEUsET-2" value="CreateApplication" style="edgeLabel;html=1;align=center;verticalAlign=middle;resizable=0;points=[];" parent="hz8eH05jnCoIRsSEUsET-1" vertex="1" connectable="0">
          <mxGeometry x="-0.2899" y="-1" relative="1" as="geometry">
            <mxPoint as="offset" />
          </mxGeometry>
        </mxCell>
        <mxCell id="hz8eH05jnCoIRsSEUsET-3" value="&lt;div&gt;&lt;br&gt;&lt;/div&gt;&lt;div&gt;&lt;br&gt;&lt;/div&gt;&lt;div&gt;&lt;br&gt;&lt;/div&gt;&lt;div&gt;&lt;br&gt;&lt;/div&gt;&lt;div&gt;&lt;br&gt;&lt;/div&gt;&lt;div&gt;&lt;br&gt;&lt;/div&gt;CSR" style="shape=umlLifeline;perimeter=lifelinePerimeter;whiteSpace=wrap;html=1;container=1;dropTarget=0;collapsible=0;recursiveResize=0;outlineConnect=0;portConstraint=eastwest;newEdgeStyle={&quot;curved&quot;:0,&quot;rounded&quot;:0};participant=umlActor;" parent="1" vertex="1">
          <mxGeometry x="90" y="40" width="20" height="980" as="geometry" />
        </mxCell>
        <mxCell id="hz8eH05jnCoIRsSEUsET-4" value="CoreSystem" style="shape=umlLifeline;perimeter=lifelinePerimeter;whiteSpace=wrap;html=1;container=1;dropTarget=0;collapsible=0;recursiveResize=0;outlineConnect=0;portConstraint=eastwest;newEdgeStyle={&quot;curved&quot;:0,&quot;rounded&quot;:0};" parent="1" vertex="1">
          <mxGeometry x="150" y="40" width="100" height="970" as="geometry" />
        </mxCell>
        <mxCell id="hz8eH05jnCoIRsSEUsET-5" value="fetch" style="html=1;verticalAlign=bottom;endArrow=block;curved=0;rounded=0;" parent="1" edge="1">
          <mxGeometry width="80" relative="1" as="geometry">
            <mxPoint x="100" y="121" as="sourcePoint" />
            <mxPoint x="199.5" y="121" as="targetPoint" />
          </mxGeometry>
        </mxCell>
        <mxCell id="hz8eH05jnCoIRsSEUsET-6" value="IG(CRM)" style="shape=umlLifeline;perimeter=lifelinePerimeter;whiteSpace=wrap;html=1;container=1;dropTarget=0;collapsible=0;recursiveResize=0;outlineConnect=0;portConstraint=eastwest;newEdgeStyle={&quot;curved&quot;:0,&quot;rounded&quot;:0};" parent="1" vertex="1">
          <mxGeometry x="330" y="40" width="105" height="950" as="geometry" />
        </mxCell>
        <mxCell id="hz8eH05jnCoIRsSEUsET-8" value="/getUserInfo" style="html=1;verticalAlign=bottom;endArrow=block;curved=0;rounded=0;" parent="1" edge="1">
          <mxGeometry x="-0.0027" width="80" relative="1" as="geometry">
            <mxPoint x="199.5" y="183" as="sourcePoint" />
            <mxPoint x="382" y="183" as="targetPoint" />
            <mxPoint as="offset" />
          </mxGeometry>
        </mxCell>
        <mxCell id="hz8eH05jnCoIRsSEUsET-11" value="fetch" style="html=1;verticalAlign=bottom;endArrow=block;curved=0;rounded=0;" parent="1" edge="1">
          <mxGeometry width="80" relative="1" as="geometry">
            <mxPoint x="105" y="184" as="sourcePoint" />
            <mxPoint x="200" y="184" as="targetPoint" />
          </mxGeometry>
        </mxCell>
        <mxCell id="hz8eH05jnCoIRsSEUsET-13" value="/getCustomerProfile detail" style="html=1;verticalAlign=bottom;endArrow=block;curved=0;rounded=0;" parent="1" edge="1">
          <mxGeometry x="-0.1209" width="80" relative="1" as="geometry">
            <mxPoint x="200" y="670" as="sourcePoint" />
            <mxPoint x="382" y="670" as="targetPoint" />
            <mxPoint as="offset" />
          </mxGeometry>
        </mxCell>
        <mxCell id="hz8eH05jnCoIRsSEUsET-14" value="return" style="html=1;verticalAlign=bottom;endArrow=open;dashed=1;endSize=8;curved=0;rounded=0;" parent="1" edge="1">
          <mxGeometry x="0.1167" y="-20" relative="1" as="geometry">
            <mxPoint x="382.0000000000002" y="690" as="sourcePoint" />
            <mxPoint x="199.32352941176464" y="690" as="targetPoint" />
            <mxPoint as="offset" />
          </mxGeometry>
        </mxCell>
        <mxCell id="hz8eH05jnCoIRsSEUsET-15" value="SPL not exist" style="rhombus;whiteSpace=wrap;html=1;fillColor=#fff2cc;strokeColor=#d6b656;" parent="1" vertex="1">
          <mxGeometry x="130" y="790" width="80" height="80" as="geometry" />
        </mxCell>
        <mxCell id="hz8eH05jnCoIRsSEUsET-32" value="" style="endArrow=classic;html=1;rounded=0;exitX=0.54;exitY=0.053;exitDx=0;exitDy=0;exitPerimeter=0;edgeStyle=orthogonalEdgeStyle;" parent="1" edge="1">
          <mxGeometry width="50" height="50" relative="1" as="geometry">
            <mxPoint x="201.97" y="118.40999999999997" as="sourcePoint" />
            <mxPoint x="202" y="147" as="targetPoint" />
            <Array as="points">
              <mxPoint x="240" y="118" />
              <mxPoint x="240" y="144" />
              <mxPoint x="202" y="144" />
            </Array>
          </mxGeometry>
        </mxCell>
        <mxCell id="hz8eH05jnCoIRsSEUsET-33" value="check dublication" style="text;html=1;align=center;verticalAlign=middle;whiteSpace=wrap;rounded=0;" parent="1" vertex="1">
          <mxGeometry x="230" y="100" width="80" height="30" as="geometry" />
        </mxCell>
        <mxCell id="hz8eH05jnCoIRsSEUsET-34" value="return" style="html=1;verticalAlign=bottom;endArrow=open;dashed=1;endSize=8;curved=0;rounded=0;" parent="1" edge="1">
          <mxGeometry relative="1" as="geometry">
            <mxPoint x="380.5" y="214" as="sourcePoint" />
            <mxPoint x="198" y="214" as="targetPoint" />
          </mxGeometry>
        </mxCell>
        <mxCell id="hz8eH05jnCoIRsSEUsET-35" value="return" style="html=1;verticalAlign=bottom;endArrow=open;dashed=1;endSize=8;curved=0;rounded=0;" parent="1" edge="1">
          <mxGeometry relative="1" as="geometry">
            <mxPoint x="200.25" y="213" as="sourcePoint" />
            <mxPoint x="99.75" y="213" as="targetPoint" />
          </mxGeometry>
        </mxCell>
        <mxCell id="hz8eH05jnCoIRsSEUsET-40" style="rounded=0;orthogonalLoop=1;jettySize=auto;html=1;" parent="1" edge="1" source="hz8eH05jnCoIRsSEUsET-4">
          <mxGeometry relative="1" as="geometry">
            <mxPoint x="205" y="364" as="sourcePoint" />
            <mxPoint x="382.0000000000002" y="364.05882352941217" as="targetPoint" />
          </mxGeometry>
        </mxCell>
        <mxCell id="hz8eH05jnCoIRsSEUsET-41" value="validate OTP" style="edgeLabel;html=1;align=center;verticalAlign=middle;resizable=0;points=[];" parent="hz8eH05jnCoIRsSEUsET-40" vertex="1" connectable="0">
          <mxGeometry x="-0.4809" y="2" relative="1" as="geometry">
            <mxPoint as="offset" />
          </mxGeometry>
        </mxCell>
        <mxCell id="hz8eH05jnCoIRsSEUsET-44" style="rounded=0;orthogonalLoop=1;jettySize=auto;html=1;dashed=1;" parent="1" edge="1">
          <mxGeometry relative="1" as="geometry">
            <mxPoint x="380.18000000000023" y="388" as="sourcePoint" />
            <mxPoint x="200" y="388" as="targetPoint" />
          </mxGeometry>
        </mxCell>
        <mxCell id="hz8eH05jnCoIRsSEUsET-45" value="validation fail&amp;nbsp;" style="rhombus;whiteSpace=wrap;html=1;fillColor=#fff2cc;strokeColor=#d6b656;" parent="1" vertex="1">
          <mxGeometry x="130" y="490" width="80" height="80" as="geometry" />
        </mxCell>
        <mxCell id="hz8eH05jnCoIRsSEUsET-46" value="proceed" style="text;html=1;align=center;verticalAlign=middle;whiteSpace=wrap;rounded=0;" parent="1" vertex="1">
          <mxGeometry x="233.24" y="414" width="60" height="30" as="geometry" />
        </mxCell>
        <mxCell id="hz8eH05jnCoIRsSEUsET-47" value="success validation&amp;nbsp;" style="rhombus;whiteSpace=wrap;html=1;fillColor=#fff2cc;strokeColor=#d6b656;" parent="1" vertex="1">
          <mxGeometry x="130" y="390" width="80" height="80" as="geometry" />
        </mxCell>
        <mxCell id="hz8eH05jnCoIRsSEUsET-48" value="Allow for 3 attemps and then disable create application&amp;nbsp;" style="text;html=1;align=center;verticalAlign=middle;whiteSpace=wrap;rounded=0;" parent="1" vertex="1">
          <mxGeometry x="240" y="524" width="160" height="30" as="geometry" />
        </mxCell>
        <mxCell id="I6WBzxFd7O4OvV7IR3fi-4" value="ask for OTP" style="html=1;verticalAlign=bottom;endArrow=open;dashed=1;endSize=8;curved=0;rounded=0;" edge="1" parent="1">
          <mxGeometry relative="1" as="geometry">
            <mxPoint x="200.5" y="310" as="sourcePoint" />
            <mxPoint x="100" y="310" as="targetPoint" />
          </mxGeometry>
        </mxCell>
        <mxCell id="I6WBzxFd7O4OvV7IR3fi-5" style="rounded=0;orthogonalLoop=1;jettySize=auto;html=1;" edge="1" parent="1">
          <mxGeometry relative="1" as="geometry">
            <mxPoint x="200" y="279.99882352941194" as="sourcePoint" />
            <mxPoint x="377.0000000000002" y="279.99882352941216" as="targetPoint" />
          </mxGeometry>
        </mxCell>
        <mxCell id="I6WBzxFd7O4OvV7IR3fi-6" value="generate OTP" style="edgeLabel;html=1;align=center;verticalAlign=middle;resizable=0;points=[];" vertex="1" connectable="0" parent="I6WBzxFd7O4OvV7IR3fi-5">
          <mxGeometry x="-0.4809" y="2" relative="1" as="geometry">
            <mxPoint as="offset" />
          </mxGeometry>
        </mxCell>
        <mxCell id="I6WBzxFd7O4OvV7IR3fi-7" style="rounded=0;orthogonalLoop=1;jettySize=auto;html=1;" edge="1" parent="1">
          <mxGeometry relative="1" as="geometry">
            <mxPoint x="98.5" y="338.99882352941177" as="sourcePoint" />
            <mxPoint x="204.68" y="338.9988235294117" as="targetPoint" />
          </mxGeometry>
        </mxCell>
        <mxCell id="I6WBzxFd7O4OvV7IR3fi-9" value="Text" style="edgeLabel;html=1;align=center;verticalAlign=middle;resizable=0;points=[];fontSize=12;" vertex="1" connectable="0" parent="I6WBzxFd7O4OvV7IR3fi-7">
          <mxGeometry x="-0.143" y="-1" relative="1" as="geometry">
            <mxPoint as="offset" />
          </mxGeometry>
        </mxCell>
        <mxCell id="I6WBzxFd7O4OvV7IR3fi-10" value="enter OTP" style="edgeLabel;html=1;align=center;verticalAlign=middle;resizable=0;points=[];fontSize=12;" vertex="1" connectable="0" parent="I6WBzxFd7O4OvV7IR3fi-7">
          <mxGeometry x="-0.1241" relative="1" as="geometry">
            <mxPoint as="offset" />
          </mxGeometry>
        </mxCell>
        <mxCell id="I6WBzxFd7O4OvV7IR3fi-11" value="" style="endArrow=classic;html=1;rounded=0;exitX=0.54;exitY=0.053;exitDx=0;exitDy=0;exitPerimeter=0;edgeStyle=orthogonalEdgeStyle;" edge="1" parent="1">
          <mxGeometry width="50" height="50" relative="1" as="geometry">
            <mxPoint x="206" y="740.01" as="sourcePoint" />
            <mxPoint x="206" y="766" as="targetPoint" />
            <Array as="points">
              <mxPoint x="244.03" y="739.6" />
              <mxPoint x="244.03" y="765.6" />
              <mxPoint x="206.03" y="765.6" />
            </Array>
          </mxGeometry>
        </mxCell>
        <mxCell id="I6WBzxFd7O4OvV7IR3fi-12" value="insertCustomerDetails" style="text;html=1;align=center;verticalAlign=middle;whiteSpace=wrap;rounded=0;fontSize=13;" vertex="1" parent="1">
          <mxGeometry x="250" y="740" width="180" height="30" as="geometry" />
        </mxCell>
        <mxCell id="I6WBzxFd7O4OvV7IR3fi-13" value="/getNationalAddress" style="html=1;verticalAlign=bottom;endArrow=block;curved=0;rounded=0;" edge="1" parent="1">
          <mxGeometry width="80" relative="1" as="geometry">
            <mxPoint x="200.68" y="830" as="sourcePoint" />
            <mxPoint x="382.68" y="830" as="targetPoint" />
          </mxGeometry>
        </mxCell>
        <mxCell id="I6WBzxFd7O4OvV7IR3fi-14" value="return" style="html=1;verticalAlign=bottom;endArrow=open;dashed=1;endSize=8;curved=0;rounded=0;" edge="1" parent="1">
          <mxGeometry relative="1" as="geometry">
            <mxPoint x="382.68000000000023" y="850" as="sourcePoint" />
            <mxPoint x="200.00352941176465" y="850" as="targetPoint" />
          </mxGeometry>
        </mxCell>
        <mxCell id="I6WBzxFd7O4OvV7IR3fi-16" style="rounded=0;orthogonalLoop=1;jettySize=auto;html=1;" edge="1" parent="1">
          <mxGeometry relative="1" as="geometry">
            <mxPoint x="380" y="279.99882352941194" as="sourcePoint" />
            <mxPoint x="542" y="279.998823529412" as="targetPoint" />
          </mxGeometry>
        </mxCell>
        <mxCell id="I6WBzxFd7O4OvV7IR3fi-17" value="generate OTP" style="edgeLabel;html=1;align=center;verticalAlign=middle;resizable=0;points=[];" vertex="1" connectable="0" parent="I6WBzxFd7O4OvV7IR3fi-16">
          <mxGeometry x="-0.4809" y="2" relative="1" as="geometry">
            <mxPoint as="offset" />
          </mxGeometry>
        </mxCell>
        <mxCell id="I6WBzxFd7O4OvV7IR3fi-18" value="OTP" style="shape=umlLifeline;perimeter=lifelinePerimeter;whiteSpace=wrap;html=1;container=1;dropTarget=0;collapsible=0;recursiveResize=0;outlineConnect=0;portConstraint=eastwest;newEdgeStyle={&quot;curved&quot;:0,&quot;rounded&quot;:0};" vertex="1" parent="1">
          <mxGeometry x="490" y="40" width="105" height="950" as="geometry" />
        </mxCell>
        <mxCell id="I6WBzxFd7O4OvV7IR3fi-19" style="rounded=0;orthogonalLoop=1;jettySize=auto;html=1;" edge="1" parent="1">
          <mxGeometry relative="1" as="geometry">
            <mxPoint x="384" y="365" as="sourcePoint" />
            <mxPoint x="540" y="365" as="targetPoint" />
          </mxGeometry>
        </mxCell>
        <mxCell id="I6WBzxFd7O4OvV7IR3fi-20" value="validate OTP" style="edgeLabel;html=1;align=center;verticalAlign=middle;resizable=0;points=[];" vertex="1" connectable="0" parent="I6WBzxFd7O4OvV7IR3fi-19">
          <mxGeometry x="-0.4809" y="2" relative="1" as="geometry">
            <mxPoint as="offset" />
          </mxGeometry>
        </mxCell>
        <mxCell id="I6WBzxFd7O4OvV7IR3fi-21" value="IG(NE)" style="shape=umlLifeline;perimeter=lifelinePerimeter;whiteSpace=wrap;html=1;container=1;dropTarget=0;collapsible=0;recursiveResize=0;outlineConnect=0;portConstraint=eastwest;newEdgeStyle={&quot;curved&quot;:0,&quot;rounded&quot;:0};" vertex="1" parent="1">
          <mxGeometry x="670" y="40" width="105" height="950" as="geometry" />
        </mxCell>
        <mxCell id="I6WBzxFd7O4OvV7IR3fi-22" style="rounded=0;orthogonalLoop=1;jettySize=auto;html=1;" edge="1" parent="1" target="I6WBzxFd7O4OvV7IR3fi-21">
          <mxGeometry relative="1" as="geometry">
            <mxPoint x="540" y="279.99882352941194" as="sourcePoint" />
            <mxPoint x="702" y="279.998823529412" as="targetPoint" />
          </mxGeometry>
        </mxCell>
        <mxCell id="I6WBzxFd7O4OvV7IR3fi-23" value="generate OTP" style="edgeLabel;html=1;align=center;verticalAlign=middle;resizable=0;points=[];" vertex="1" connectable="0" parent="I6WBzxFd7O4OvV7IR3fi-22">
          <mxGeometry x="-0.4809" y="2" relative="1" as="geometry">
            <mxPoint as="offset" />
          </mxGeometry>
        </mxCell>
        <mxCell id="aeRoQxd6cDnDpoU3CPm8-1" value="&lt;span style=&quot;font-weight: 700;&quot;&gt;CRMF002&lt;/span&gt;" style="text;html=1;align=center;verticalAlign=middle;whiteSpace=wrap;rounded=0;" vertex="1" parent="1">
          <mxGeometry x="410" y="670" width="60" height="30" as="geometry" />
        </mxCell>
      </root>
    </mxGraphModel>
  </diagram>
  <diagram id="1nnJtRJkIUQCotIG5LT-" name="mobile onboarding ">
    <mxGraphModel dx="1420" dy="830" grid="1" gridSize="10" guides="1" tooltips="1" connect="1" arrows="1" fold="1" page="1" pageScale="1" pageWidth="827" pageHeight="1169" math="0" shadow="0">
      <root>
        <mxCell id="0" />
        <mxCell id="1" parent="0" />
        <mxCell id="aPc6Dp2p6ErkCE4nY4PB-124" style="rounded=0;orthogonalLoop=1;jettySize=auto;html=1;" parent="1" edge="1">
          <mxGeometry relative="1" as="geometry">
            <mxPoint x="186" y="140" as="sourcePoint" />
            <mxPoint x="361" y="140" as="targetPoint" />
          </mxGeometry>
        </mxCell>
        <mxCell id="aPc6Dp2p6ErkCE4nY4PB-66" value="IG(CRM)" style="shape=umlLifeline;perimeter=lifelinePerimeter;whiteSpace=wrap;html=1;container=1;dropTarget=0;collapsible=0;recursiveResize=0;outlineConnect=0;portConstraint=eastwest;newEdgeStyle={&quot;curved&quot;:0,&quot;rounded&quot;:0};" parent="1" vertex="1">
          <mxGeometry x="134" y="40" width="105" height="630" as="geometry" />
        </mxCell>
        <mxCell id="aPc6Dp2p6ErkCE4nY4PB-68" value="/getCustomerProfile&lt;div&gt;Details&lt;/div&gt;" style="html=1;verticalAlign=bottom;endArrow=block;curved=0;rounded=0;" parent="1" edge="1">
          <mxGeometry width="80" relative="1" as="geometry">
            <mxPoint x="10" y="140" as="sourcePoint" />
            <mxPoint x="192.5" y="140" as="targetPoint" />
          </mxGeometry>
        </mxCell>
        <mxCell id="aPc6Dp2p6ErkCE4nY4PB-70" value="/getUserInfo" style="html=1;verticalAlign=bottom;endArrow=block;curved=0;rounded=0;" parent="1" edge="1">
          <mxGeometry width="80" relative="1" as="geometry">
            <mxPoint x="10" y="300" as="sourcePoint" />
            <mxPoint x="192.00000000000023" y="300" as="targetPoint" />
          </mxGeometry>
        </mxCell>
        <mxCell id="aPc6Dp2p6ErkCE4nY4PB-121" value="Customer" style="shape=umlLifeline;perimeter=lifelinePerimeter;whiteSpace=wrap;html=1;container=1;dropTarget=0;collapsible=0;recursiveResize=0;outlineConnect=0;portConstraint=eastwest;newEdgeStyle={&quot;curved&quot;:0,&quot;rounded&quot;:0};" parent="1" vertex="1">
          <mxGeometry x="309" y="40" width="105" height="630" as="geometry" />
        </mxCell>
        <mxCell id="aPc6Dp2p6ErkCE4nY4PB-122" value="Dynamics" style="shape=umlLifeline;perimeter=lifelinePerimeter;whiteSpace=wrap;html=1;container=1;dropTarget=0;collapsible=0;recursiveResize=0;outlineConnect=0;portConstraint=eastwest;newEdgeStyle={&quot;curved&quot;:0,&quot;rounded&quot;:0};" parent="1" vertex="1">
          <mxGeometry x="680" y="40" width="105" height="630" as="geometry" />
        </mxCell>
        <mxCell id="aPc6Dp2p6ErkCE4nY4PB-123" value="verified Income" style="shape=umlLifeline;perimeter=lifelinePerimeter;whiteSpace=wrap;html=1;container=1;dropTarget=0;collapsible=0;recursiveResize=0;outlineConnect=0;portConstraint=eastwest;newEdgeStyle={&quot;curved&quot;:0,&quot;rounded&quot;:0};" parent="1" vertex="1">
          <mxGeometry x="480" y="40" width="105" height="630" as="geometry" />
        </mxCell>
      </root>
    </mxGraphModel>
  </diagram>
  <diagram id="yCZBg_xAa1E9DtP6w3AV" name="CRM">
    <mxGraphModel dx="2049" dy="1190" grid="1" gridSize="10" guides="1" tooltips="1" connect="1" arrows="1" fold="1" page="1" pageScale="1" pageWidth="827" pageHeight="1169" math="0" shadow="0">
      <root>
        <mxCell id="0" />
        <mxCell id="1" parent="0" />
        <mxCell id="diRIJDAWU8BUFDwuRLAV-37" value="&lt;div style=&quot;text-align: start;&quot;&gt;&lt;span style=&quot;background-color: initial; font-size: 11.3333px; white-space: pre;&quot;&gt;&lt;font face=&quot;Lucida Console, Monaco, Consolas, monospace&quot; color=&quot;#ffffff&quot;&gt;Sa&lt;/font&gt;&lt;/span&gt;&lt;/div&gt;" style="text;html=1;align=center;verticalAlign=middle;whiteSpace=wrap;rounded=0;" parent="1" vertex="1">
          <mxGeometry x="70" y="460" width="60" height="30" as="geometry" />
        </mxCell>
        <mxCell id="Mdwrjte0wyQuKczLhQp--2" value="" style="group" parent="1" vertex="1" connectable="0">
          <mxGeometry x="40" y="540" width="725" height="450" as="geometry" />
        </mxCell>
        <mxCell id="diRIJDAWU8BUFDwuRLAV-39" value="B2C&amp;nbsp;" style="shape=umlLifeline;perimeter=lifelinePerimeter;whiteSpace=wrap;html=1;container=1;dropTarget=0;collapsible=0;recursiveResize=0;outlineConnect=0;portConstraint=eastwest;newEdgeStyle={&quot;curved&quot;:0,&quot;rounded&quot;:0};" parent="Mdwrjte0wyQuKczLhQp--2" vertex="1">
          <mxGeometry x="80" y="40" width="60" height="400" as="geometry" />
        </mxCell>
        <mxCell id="diRIJDAWU8BUFDwuRLAV-40" value="&lt;div&gt;&lt;span style=&quot;background-color: initial;&quot;&gt;Mobile&lt;/span&gt;&lt;br&gt;&lt;/div&gt;" style="shape=umlLifeline;perimeter=lifelinePerimeter;whiteSpace=wrap;html=1;container=1;dropTarget=0;collapsible=0;recursiveResize=0;outlineConnect=0;portConstraint=eastwest;newEdgeStyle={&quot;curved&quot;:0,&quot;rounded&quot;:0};participant=umlActor;" parent="Mdwrjte0wyQuKczLhQp--2" vertex="1">
          <mxGeometry x="30" y="70" width="20" height="380" as="geometry" />
        </mxCell>
        <mxCell id="diRIJDAWU8BUFDwuRLAV-41" value="Customer" style="shape=umlLifeline;perimeter=lifelinePerimeter;whiteSpace=wrap;html=1;container=1;dropTarget=0;collapsible=0;recursiveResize=0;outlineConnect=0;portConstraint=eastwest;newEdgeStyle={&quot;curved&quot;:0,&quot;rounded&quot;:0};" parent="Mdwrjte0wyQuKczLhQp--2" vertex="1">
          <mxGeometry x="275" y="40" width="100" height="410" as="geometry" />
        </mxCell>
        <mxCell id="diRIJDAWU8BUFDwuRLAV-42" value="Verfied Income" style="shape=umlLifeline;perimeter=lifelinePerimeter;whiteSpace=wrap;html=1;container=1;dropTarget=0;collapsible=0;recursiveResize=0;outlineConnect=0;portConstraint=eastwest;newEdgeStyle={&quot;curved&quot;:0,&quot;rounded&quot;:0};" parent="Mdwrjte0wyQuKczLhQp--2" vertex="1">
          <mxGeometry x="395" y="40" width="100" height="400" as="geometry" />
        </mxCell>
        <mxCell id="diRIJDAWU8BUFDwuRLAV-43" value="Dynamic CRM" style="shape=umlLifeline;perimeter=lifelinePerimeter;whiteSpace=wrap;html=1;container=1;dropTarget=0;collapsible=0;recursiveResize=0;outlineConnect=0;portConstraint=eastwest;newEdgeStyle={&quot;curved&quot;:0,&quot;rounded&quot;:0};" parent="Mdwrjte0wyQuKczLhQp--2" vertex="1">
          <mxGeometry x="516" y="40" width="100" height="400" as="geometry" />
        </mxCell>
        <mxCell id="diRIJDAWU8BUFDwuRLAV-44" value="/getCustomer&lt;div&gt;ReviewDetails&lt;/div&gt;" style="html=1;verticalAlign=bottom;endArrow=block;curved=0;rounded=0;" parent="Mdwrjte0wyQuKczLhQp--2" target="diRIJDAWU8BUFDwuRLAV-39" edge="1">
          <mxGeometry width="80" relative="1" as="geometry">
            <mxPoint x="40" y="150" as="sourcePoint" />
            <mxPoint x="120" y="150" as="targetPoint" />
          </mxGeometry>
        </mxCell>
        <mxCell id="diRIJDAWU8BUFDwuRLAV-45" value="return" style="html=1;verticalAlign=bottom;endArrow=open;dashed=1;endSize=8;curved=0;rounded=0;" parent="Mdwrjte0wyQuKczLhQp--2" edge="1">
          <mxGeometry relative="1" as="geometry">
            <mxPoint x="129.5" y="191" as="sourcePoint" />
            <mxPoint x="40" y="191" as="targetPoint" />
          </mxGeometry>
        </mxCell>
        <mxCell id="diRIJDAWU8BUFDwuRLAV-46" value="/getCustomer&lt;div&gt;ReviewDetails&lt;/div&gt;" style="html=1;verticalAlign=bottom;endArrow=block;curved=0;rounded=0;" parent="Mdwrjte0wyQuKczLhQp--2" edge="1">
          <mxGeometry width="80" relative="1" as="geometry">
            <mxPoint x="199.5" y="272" as="sourcePoint" />
            <mxPoint x="324.5" y="272" as="targetPoint" />
          </mxGeometry>
        </mxCell>
        <mxCell id="GR5Rk8nL8iXO-Rzb8iph-1" value="Text" style="edgeLabel;html=1;align=center;verticalAlign=middle;resizable=0;points=[];" parent="diRIJDAWU8BUFDwuRLAV-46" connectable="0" vertex="1">
          <mxGeometry x="0.112" y="2" relative="1" as="geometry">
            <mxPoint as="offset" />
          </mxGeometry>
        </mxCell>
        <mxCell id="diRIJDAWU8BUFDwuRLAV-51" value="" style="line;strokeWidth=1;fillColor=#ffe6cc;align=left;verticalAlign=middle;spacingTop=-1;spacingLeft=3;spacingRight=3;rotatable=0;labelPosition=right;points=[];portConstraint=eastwest;strokeColor=#d79b00;" parent="Mdwrjte0wyQuKczLhQp--2" vertex="1">
          <mxGeometry x="40" y="216" width="630" height="8" as="geometry" />
        </mxCell>
        <mxCell id="diRIJDAWU8BUFDwuRLAV-52" value="CoolingPeriod:ON" style="text;align=center;fontStyle=1;verticalAlign=middle;spacingLeft=3;spacingRight=3;strokeColor=none;rotatable=0;points=[[0,0.5],[1,0.5]];portConstraint=eastwest;html=1;" parent="Mdwrjte0wyQuKczLhQp--2" vertex="1">
          <mxGeometry x="295" y="92" width="80" height="26" as="geometry" />
        </mxCell>
        <mxCell id="diRIJDAWU8BUFDwuRLAV-53" value="DAKHLI/GOSI" style="shape=umlLifeline;perimeter=lifelinePerimeter;whiteSpace=wrap;html=1;container=1;dropTarget=0;collapsible=0;recursiveResize=0;outlineConnect=0;portConstraint=eastwest;newEdgeStyle={&quot;curved&quot;:0,&quot;rounded&quot;:0};" parent="Mdwrjte0wyQuKczLhQp--2" vertex="1">
          <mxGeometry x="625" y="40" width="100" height="400" as="geometry" />
        </mxCell>
        <mxCell id="diRIJDAWU8BUFDwuRLAV-56" value="CustomerReviewDetails (CRM F003)" style="text;html=1;align=center;verticalAlign=middle;whiteSpace=wrap;rounded=0;fontStyle=1" parent="Mdwrjte0wyQuKczLhQp--2" vertex="1">
          <mxGeometry width="230" height="30" as="geometry" />
        </mxCell>
        <mxCell id="diRIJDAWU8BUFDwuRLAV-57" value="return" style="html=1;verticalAlign=bottom;endArrow=open;dashed=1;endSize=8;curved=0;rounded=0;" parent="Mdwrjte0wyQuKczLhQp--2" edge="1">
          <mxGeometry relative="1" as="geometry">
            <mxPoint x="199.5" y="188" as="sourcePoint" />
            <mxPoint x="120.5" y="188" as="targetPoint" />
          </mxGeometry>
        </mxCell>
        <mxCell id="diRIJDAWU8BUFDwuRLAV-59" value="return" style="html=1;verticalAlign=bottom;endArrow=open;dashed=1;endSize=8;curved=0;rounded=0;" parent="Mdwrjte0wyQuKczLhQp--2" edge="1">
          <mxGeometry relative="1" as="geometry">
            <mxPoint x="564.5" y="190" as="sourcePoint" />
            <mxPoint x="324.5" y="190" as="targetPoint" />
          </mxGeometry>
        </mxCell>
        <mxCell id="diRIJDAWU8BUFDwuRLAV-96" value="return" style="html=1;verticalAlign=bottom;endArrow=open;dashed=1;endSize=8;curved=0;rounded=0;" parent="Mdwrjte0wyQuKczLhQp--2" edge="1">
          <mxGeometry relative="1" as="geometry">
            <mxPoint x="320" y="418" as="sourcePoint" />
            <mxPoint x="200" y="418" as="targetPoint" />
          </mxGeometry>
        </mxCell>
        <mxCell id="diRIJDAWU8BUFDwuRLAV-97" value="CoolingPeriod:Off" style="text;align=center;fontStyle=1;verticalAlign=middle;spacingLeft=3;spacingRight=3;strokeColor=none;rotatable=0;points=[[0,0.5],[1,0.5]];portConstraint=eastwest;html=1;" parent="Mdwrjte0wyQuKczLhQp--2" vertex="1">
          <mxGeometry x="315" y="224" width="80" height="26" as="geometry" />
        </mxCell>
        <mxCell id="diRIJDAWU8BUFDwuRLAV-98" value="/getIncomeEmpInfo" style="html=1;verticalAlign=bottom;endArrow=block;curved=0;rounded=0;exitX=0.507;exitY=0.548;exitDx=0;exitDy=0;exitPerimeter=0;" parent="Mdwrjte0wyQuKczLhQp--2" edge="1">
          <mxGeometry width="80" relative="1" as="geometry">
            <mxPoint x="445.70000000000005" y="303.4000000000001" as="sourcePoint" />
            <mxPoint x="674.5" y="303.4000000000001" as="targetPoint" />
          </mxGeometry>
        </mxCell>
        <mxCell id="diRIJDAWU8BUFDwuRLAV-99" value="return" style="html=1;verticalAlign=bottom;endArrow=open;dashed=1;endSize=8;curved=0;rounded=0;" parent="Mdwrjte0wyQuKczLhQp--2" edge="1">
          <mxGeometry relative="1" as="geometry">
            <mxPoint x="674.5" y="322" as="sourcePoint" />
            <mxPoint x="445" y="322" as="targetPoint" />
          </mxGeometry>
        </mxCell>
        <mxCell id="diRIJDAWU8BUFDwuRLAV-100" value="return" style="html=1;verticalAlign=bottom;endArrow=open;dashed=1;endSize=8;curved=0;rounded=0;" parent="Mdwrjte0wyQuKczLhQp--2" edge="1">
          <mxGeometry relative="1" as="geometry">
            <mxPoint x="443.5" y="375" as="sourcePoint" />
            <mxPoint x="324" y="375" as="targetPoint" />
          </mxGeometry>
        </mxCell>
        <mxCell id="diRIJDAWU8BUFDwuRLAV-101" value="/getCustomerInfo" style="html=1;verticalAlign=bottom;endArrow=block;curved=0;rounded=0;" parent="Mdwrjte0wyQuKczLhQp--2" edge="1">
          <mxGeometry width="80" relative="1" as="geometry">
            <mxPoint x="324" y="399" as="sourcePoint" />
            <mxPoint x="565" y="399" as="targetPoint" />
          </mxGeometry>
        </mxCell>
        <mxCell id="diRIJDAWU8BUFDwuRLAV-102" value="return" style="html=1;verticalAlign=bottom;endArrow=open;dashed=1;endSize=8;curved=0;rounded=0;" parent="Mdwrjte0wyQuKczLhQp--2" edge="1">
          <mxGeometry relative="1" as="geometry">
            <mxPoint x="565" y="418" as="sourcePoint" />
            <mxPoint x="324" y="418" as="targetPoint" />
          </mxGeometry>
        </mxCell>
        <mxCell id="diRIJDAWU8BUFDwuRLAV-103" value="" style="line;strokeWidth=1;fillColor=#ffe6cc;align=left;verticalAlign=middle;spacingTop=-1;spacingLeft=3;spacingRight=3;rotatable=0;labelPosition=right;points=[];portConstraint=eastwest;strokeColor=#d79b00;" parent="Mdwrjte0wyQuKczLhQp--2" vertex="1">
          <mxGeometry x="40" y="432" width="630" height="8" as="geometry" />
        </mxCell>
        <mxCell id="diRIJDAWU8BUFDwuRLAV-104" value="/getCustomer&lt;div&gt;ReviewDetails&lt;/div&gt;" style="html=1;verticalAlign=bottom;endArrow=block;curved=0;rounded=0;" parent="Mdwrjte0wyQuKczLhQp--2" edge="1">
          <mxGeometry width="80" relative="1" as="geometry">
            <mxPoint x="40" y="303" as="sourcePoint" />
            <mxPoint x="130" y="303" as="targetPoint" />
          </mxGeometry>
        </mxCell>
        <mxCell id="diRIJDAWU8BUFDwuRLAV-105" value="return" style="html=1;verticalAlign=bottom;endArrow=open;dashed=1;endSize=8;curved=0;rounded=0;" parent="Mdwrjte0wyQuKczLhQp--2" edge="1">
          <mxGeometry relative="1" as="geometry">
            <mxPoint x="110" y="417" as="sourcePoint" />
            <mxPoint x="40" y="417" as="targetPoint" />
          </mxGeometry>
        </mxCell>
        <mxCell id="diRIJDAWU8BUFDwuRLAV-106" value="/getCustomer&lt;div&gt;ReviewDetails&lt;/div&gt;" style="html=1;verticalAlign=bottom;endArrow=block;curved=0;rounded=0;" parent="Mdwrjte0wyQuKczLhQp--2" edge="1">
          <mxGeometry width="80" relative="1" as="geometry">
            <mxPoint x="131" y="303" as="sourcePoint" />
            <mxPoint x="199.5" y="303" as="targetPoint" />
          </mxGeometry>
        </mxCell>
        <mxCell id="diRIJDAWU8BUFDwuRLAV-107" value="/&lt;span style=&quot;color: rgb(33, 33, 33); font-family: Inter, system-ui, -apple-system, BlinkMacSystemFont, &amp;quot;Segoe UI&amp;quot;, Roboto, Oxygen, Ubuntu, Cantarell, &amp;quot;Fira Sans&amp;quot;, &amp;quot;Droid Sans&amp;quot;, Helvetica, Arial, sans-serif; font-size: 12px; text-align: left; white-space: pre-wrap;&quot;&gt;employment&lt;/span&gt;&lt;div&gt;&lt;span style=&quot;color: rgb(33, 33, 33); font-family: Inter, system-ui, -apple-system, BlinkMacSystemFont, &amp;quot;Segoe UI&amp;quot;, Roboto, Oxygen, Ubuntu, Cantarell, &amp;quot;Fira Sans&amp;quot;, &amp;quot;Droid Sans&amp;quot;, Helvetica, Arial, sans-serif; font-size: 12px; text-align: left; white-space: pre-wrap;&quot;&gt;-incomeInfo&lt;/span&gt;&lt;/div&gt;" style="html=1;verticalAlign=bottom;endArrow=block;curved=0;rounded=0;" parent="Mdwrjte0wyQuKczLhQp--2" edge="1">
          <mxGeometry x="-0.1" y="3" width="80" relative="1" as="geometry">
            <mxPoint x="326" y="303" as="sourcePoint" />
            <mxPoint x="446" y="303" as="targetPoint" />
            <mxPoint as="offset" />
          </mxGeometry>
        </mxCell>
        <mxCell id="diRIJDAWU8BUFDwuRLAV-108" value="" style="endArrow=classic;html=1;rounded=0;" parent="Mdwrjte0wyQuKczLhQp--2" edge="1">
          <mxGeometry width="50" height="50" relative="1" as="geometry">
            <mxPoint x="447" y="357" as="sourcePoint" />
            <mxPoint x="565.5" y="357" as="targetPoint" />
          </mxGeometry>
        </mxCell>
        <mxCell id="diRIJDAWU8BUFDwuRLAV-109" value="/saveCustomer&lt;div&gt;IncomeInfo&lt;/div&gt;" style="text;html=1;align=center;verticalAlign=middle;whiteSpace=wrap;rounded=0;" parent="Mdwrjte0wyQuKczLhQp--2" vertex="1">
          <mxGeometry x="471" y="325" width="60" height="30" as="geometry" />
        </mxCell>
        <mxCell id="diRIJDAWU8BUFDwuRLAV-110" value="return" style="html=1;verticalAlign=bottom;endArrow=open;dashed=1;endSize=8;curved=0;rounded=0;" parent="Mdwrjte0wyQuKczLhQp--2" edge="1">
          <mxGeometry relative="1" as="geometry">
            <mxPoint x="564.75" y="374" as="sourcePoint" />
            <mxPoint x="445.25" y="374" as="targetPoint" />
          </mxGeometry>
        </mxCell>
        <mxCell id="diRIJDAWU8BUFDwuRLAV-114" value="IG(CRM)" style="shape=umlLifeline;perimeter=lifelinePerimeter;whiteSpace=wrap;html=1;container=1;dropTarget=0;collapsible=0;recursiveResize=0;outlineConnect=0;portConstraint=eastwest;newEdgeStyle={&quot;curved&quot;:0,&quot;rounded&quot;:0};" parent="Mdwrjte0wyQuKczLhQp--2" vertex="1">
          <mxGeometry x="160" y="40" width="80" height="400" as="geometry" />
        </mxCell>
        <mxCell id="diRIJDAWU8BUFDwuRLAV-115" value="/getCustomer&lt;div&gt;ReviewDetails&lt;/div&gt;" style="html=1;verticalAlign=bottom;endArrow=block;curved=0;rounded=0;" parent="Mdwrjte0wyQuKczLhQp--2" edge="1">
          <mxGeometry width="80" relative="1" as="geometry">
            <mxPoint x="200" y="302" as="sourcePoint" />
            <mxPoint x="324.5" y="302" as="targetPoint" />
          </mxGeometry>
        </mxCell>
        <mxCell id="diRIJDAWU8BUFDwuRLAV-116" value="/getCustomer&lt;div&gt;ReviewDetails&lt;/div&gt;" style="html=1;verticalAlign=bottom;endArrow=block;curved=0;rounded=0;" parent="Mdwrjte0wyQuKczLhQp--2" target="diRIJDAWU8BUFDwuRLAV-114" edge="1">
          <mxGeometry width="80" relative="1" as="geometry">
            <mxPoint x="110" y="150" as="sourcePoint" />
            <mxPoint x="180" y="150" as="targetPoint" />
          </mxGeometry>
        </mxCell>
        <mxCell id="diRIJDAWU8BUFDwuRLAV-117" value="/getCustomer&lt;div&gt;ReviewDetails&lt;/div&gt;" style="html=1;verticalAlign=bottom;endArrow=block;curved=0;rounded=0;" parent="Mdwrjte0wyQuKczLhQp--2" target="diRIJDAWU8BUFDwuRLAV-41" edge="1">
          <mxGeometry width="80" relative="1" as="geometry">
            <mxPoint x="200" y="150" as="sourcePoint" />
            <mxPoint x="290" y="150" as="targetPoint" />
          </mxGeometry>
        </mxCell>
        <mxCell id="diRIJDAWU8BUFDwuRLAV-118" value="return" style="html=1;verticalAlign=bottom;endArrow=open;dashed=1;endSize=8;curved=0;rounded=0;" parent="Mdwrjte0wyQuKczLhQp--2" edge="1">
          <mxGeometry relative="1" as="geometry">
            <mxPoint x="320" y="188" as="sourcePoint" />
            <mxPoint x="200" y="188" as="targetPoint" />
          </mxGeometry>
        </mxCell>
        <mxCell id="diRIJDAWU8BUFDwuRLAV-121" value="return" style="html=1;verticalAlign=bottom;endArrow=open;dashed=1;endSize=8;curved=0;rounded=0;" parent="Mdwrjte0wyQuKczLhQp--2" target="diRIJDAWU8BUFDwuRLAV-39" edge="1">
          <mxGeometry relative="1" as="geometry">
            <mxPoint x="201.5" y="418" as="sourcePoint" />
            <mxPoint x="130" y="418" as="targetPoint" />
          </mxGeometry>
        </mxCell>
        <mxCell id="diRIJDAWU8BUFDwuRLAV-123" value="/customerProfileDetail" style="html=1;verticalAlign=bottom;endArrow=block;curved=0;rounded=0;" parent="Mdwrjte0wyQuKczLhQp--2" target="diRIJDAWU8BUFDwuRLAV-43" edge="1">
          <mxGeometry x="0.2025" y="10" width="80" relative="1" as="geometry">
            <mxPoint x="326" y="150" as="sourcePoint" />
            <mxPoint x="441" y="150" as="targetPoint" />
            <mxPoint as="offset" />
          </mxGeometry>
        </mxCell>
        <mxCell id="Mdwrjte0wyQuKczLhQp--3" value="" style="group" parent="1" vertex="1" connectable="0">
          <mxGeometry x="50" y="40" width="270" height="380" as="geometry" />
        </mxCell>
        <mxCell id="diRIJDAWU8BUFDwuRLAV-35" value="LOS" style="shape=umlLifeline;perimeter=lifelinePerimeter;whiteSpace=wrap;html=1;container=1;dropTarget=0;collapsible=0;recursiveResize=0;outlineConnect=0;portConstraint=eastwest;newEdgeStyle={&quot;curved&quot;:0,&quot;rounded&quot;:0};" parent="Mdwrjte0wyQuKczLhQp--3" vertex="1">
          <mxGeometry x="60" y="70" width="100" height="300" as="geometry" />
        </mxCell>
        <mxCell id="diRIJDAWU8BUFDwuRLAV-36" value="&lt;div&gt;&lt;span style=&quot;background-color: initial;&quot;&gt;&lt;br&gt;&lt;/span&gt;&lt;/div&gt;&lt;div&gt;&lt;span style=&quot;background-color: initial;&quot;&gt;&lt;br&gt;&lt;/span&gt;&lt;/div&gt;&lt;div&gt;&lt;span style=&quot;background-color: initial;&quot;&gt;&lt;br&gt;&lt;/span&gt;&lt;/div&gt;&lt;div&gt;&lt;span style=&quot;background-color: initial;&quot;&gt;&lt;br&gt;&lt;/span&gt;&lt;/div&gt;&lt;div&gt;&lt;span style=&quot;background-color: initial;&quot;&gt;CSR&lt;/span&gt;&lt;br&gt;&lt;/div&gt;" style="shape=umlLifeline;perimeter=lifelinePerimeter;whiteSpace=wrap;html=1;container=1;dropTarget=0;collapsible=0;recursiveResize=0;outlineConnect=0;portConstraint=eastwest;newEdgeStyle={&quot;curved&quot;:0,&quot;rounded&quot;:0};participant=umlActor;" parent="Mdwrjte0wyQuKczLhQp--3" vertex="1">
          <mxGeometry y="70" width="20" height="300" as="geometry" />
        </mxCell>
        <mxCell id="diRIJDAWU8BUFDwuRLAV-38" value="Master CRM Sequence Diagram" style="text;html=1;align=center;verticalAlign=middle;whiteSpace=wrap;rounded=0;fontStyle=1" parent="Mdwrjte0wyQuKczLhQp--3" vertex="1">
          <mxGeometry x="20" width="220" height="30" as="geometry" />
        </mxCell>
        <mxCell id="diRIJDAWU8BUFDwuRLAV-55" value="CustomerOnBoardingThroughBranch" style="text;html=1;align=center;verticalAlign=middle;whiteSpace=wrap;rounded=0;fontStyle=1" parent="Mdwrjte0wyQuKczLhQp--3" vertex="1">
          <mxGeometry x="20" y="30" width="140" height="30" as="geometry" />
        </mxCell>
        <mxCell id="diRIJDAWU8BUFDwuRLAV-92" value="IG(CRM)" style="shape=umlLifeline;perimeter=lifelinePerimeter;whiteSpace=wrap;html=1;container=1;dropTarget=0;collapsible=0;recursiveResize=0;outlineConnect=0;portConstraint=eastwest;newEdgeStyle={&quot;curved&quot;:0,&quot;rounded&quot;:0};" parent="Mdwrjte0wyQuKczLhQp--3" vertex="1">
          <mxGeometry x="170" y="70" width="100" height="310" as="geometry" />
        </mxCell>
        <mxCell id="diRIJDAWU8BUFDwuRLAV-93" value="/createCustomer" style="html=1;verticalAlign=bottom;endArrow=block;curved=0;rounded=0;" parent="Mdwrjte0wyQuKczLhQp--3" target="diRIJDAWU8BUFDwuRLAV-35" edge="1">
          <mxGeometry x="-0.1061" y="10" width="80" relative="1" as="geometry">
            <mxPoint x="10" y="160" as="sourcePoint" />
            <mxPoint x="100" y="160" as="targetPoint" />
            <mxPoint as="offset" />
          </mxGeometry>
        </mxCell>
        <mxCell id="diRIJDAWU8BUFDwuRLAV-94" value="/getCustomerProifle&lt;div&gt;Details&lt;/div&gt;" style="html=1;verticalAlign=bottom;endArrow=block;curved=0;rounded=0;" parent="Mdwrjte0wyQuKczLhQp--3" target="diRIJDAWU8BUFDwuRLAV-92" edge="1">
          <mxGeometry x="-0.0868" y="10" width="80" relative="1" as="geometry">
            <mxPoint x="110" y="160" as="sourcePoint" />
            <mxPoint x="190" y="160" as="targetPoint" />
            <mxPoint as="offset" />
          </mxGeometry>
        </mxCell>
        <mxCell id="diRIJDAWU8BUFDwuRLAV-95" value="return" style="html=1;verticalAlign=bottom;endArrow=open;dashed=1;endSize=8;curved=0;rounded=0;" parent="Mdwrjte0wyQuKczLhQp--3" target="diRIJDAWU8BUFDwuRLAV-35" edge="1">
          <mxGeometry relative="1" as="geometry">
            <mxPoint x="220" y="180" as="sourcePoint" />
            <mxPoint x="140" y="180" as="targetPoint" />
          </mxGeometry>
        </mxCell>
        <mxCell id="wy48QXKM6tLczcKT8bCk-26" value="" style="group" vertex="1" connectable="0" parent="1">
          <mxGeometry x="915" y="40" width="665" height="390" as="geometry" />
        </mxCell>
        <mxCell id="wy48QXKM6tLczcKT8bCk-1" value="IG&amp;nbsp;&lt;div&gt;(CRM Domain)&lt;/div&gt;" style="shape=umlLifeline;perimeter=lifelinePerimeter;whiteSpace=wrap;html=1;container=0;dropTarget=0;collapsible=0;recursiveResize=0;outlineConnect=0;portConstraint=eastwest;newEdgeStyle={&quot;curved&quot;:0,&quot;rounded&quot;:0};" vertex="1" parent="wy48QXKM6tLczcKT8bCk-26">
          <mxGeometry x="95" y="40" width="100" height="320" as="geometry" />
        </mxCell>
        <mxCell id="wy48QXKM6tLczcKT8bCk-2" value="CUSTOMER" style="shape=umlLifeline;perimeter=lifelinePerimeter;whiteSpace=wrap;html=1;container=0;dropTarget=0;collapsible=0;recursiveResize=0;outlineConnect=0;portConstraint=eastwest;newEdgeStyle={&quot;curved&quot;:0,&quot;rounded&quot;:0};" vertex="1" parent="wy48QXKM6tLczcKT8bCk-26">
          <mxGeometry x="215" y="40" width="100" height="340" as="geometry" />
        </mxCell>
        <mxCell id="wy48QXKM6tLczcKT8bCk-3" value="B2B&amp;nbsp;" style="shape=umlLifeline;perimeter=lifelinePerimeter;whiteSpace=wrap;html=1;container=0;dropTarget=0;collapsible=0;recursiveResize=0;outlineConnect=0;portConstraint=eastwest;newEdgeStyle={&quot;curved&quot;:0,&quot;rounded&quot;:0};" vertex="1" parent="wy48QXKM6tLczcKT8bCk-26">
          <mxGeometry x="335" y="40" width="100" height="350" as="geometry" />
        </mxCell>
        <mxCell id="wy48QXKM6tLczcKT8bCk-4" value="Yakeen" style="shape=umlLifeline;perimeter=lifelinePerimeter;whiteSpace=wrap;html=1;container=0;dropTarget=0;collapsible=0;recursiveResize=0;outlineConnect=0;portConstraint=eastwest;newEdgeStyle={&quot;curved&quot;:0,&quot;rounded&quot;:0};" vertex="1" parent="wy48QXKM6tLczcKT8bCk-26">
          <mxGeometry x="455" y="40" width="100" height="340" as="geometry" />
        </mxCell>
        <mxCell id="wy48QXKM6tLczcKT8bCk-5" value="/getUserInfo" style="html=1;verticalAlign=bottom;endArrow=block;curved=0;rounded=0;" edge="1" parent="wy48QXKM6tLczcKT8bCk-26">
          <mxGeometry width="80" relative="1" as="geometry">
            <mxPoint x="15" y="119" as="sourcePoint" />
            <mxPoint x="144.5" y="119" as="targetPoint" />
          </mxGeometry>
        </mxCell>
        <mxCell id="wy48QXKM6tLczcKT8bCk-6" value="/getUserInfo" style="html=1;verticalAlign=bottom;endArrow=block;curved=0;rounded=0;" edge="1" parent="wy48QXKM6tLczcKT8bCk-26">
          <mxGeometry width="80" relative="1" as="geometry">
            <mxPoint x="145" y="119" as="sourcePoint" />
            <mxPoint x="265" y="119" as="targetPoint" />
          </mxGeometry>
        </mxCell>
        <mxCell id="wy48QXKM6tLczcKT8bCk-7" value="/getUserInfo" style="html=1;verticalAlign=bottom;endArrow=block;curved=0;rounded=0;exitX=0.324;exitY=1.3;exitDx=0;exitDy=0;exitPerimeter=0;" edge="1" parent="wy48QXKM6tLczcKT8bCk-26" source="wy48QXKM6tLczcKT8bCk-13" target="wy48QXKM6tLczcKT8bCk-12">
          <mxGeometry width="80" relative="1" as="geometry">
            <mxPoint x="386" y="119" as="sourcePoint" />
            <mxPoint x="507" y="119" as="targetPoint" />
          </mxGeometry>
        </mxCell>
        <mxCell id="wy48QXKM6tLczcKT8bCk-8" value="return" style="html=1;verticalAlign=bottom;endArrow=open;dashed=1;endSize=8;curved=0;rounded=0;" edge="1" parent="wy48QXKM6tLczcKT8bCk-26">
          <mxGeometry relative="1" as="geometry">
            <mxPoint x="615.5" y="340" as="sourcePoint" />
            <mxPoint x="264.5" y="340" as="targetPoint" />
          </mxGeometry>
        </mxCell>
        <mxCell id="wy48QXKM6tLczcKT8bCk-9" value="return" style="html=1;verticalAlign=bottom;endArrow=open;dashed=1;endSize=8;curved=0;rounded=0;" edge="1" parent="wy48QXKM6tLczcKT8bCk-26">
          <mxGeometry relative="1" as="geometry">
            <mxPoint x="264.5" y="160" as="sourcePoint" />
            <mxPoint x="145" y="160" as="targetPoint" />
          </mxGeometry>
        </mxCell>
        <mxCell id="wy48QXKM6tLczcKT8bCk-10" value="return" style="html=1;verticalAlign=bottom;endArrow=open;dashed=1;endSize=8;curved=0;rounded=0;" edge="1" parent="wy48QXKM6tLczcKT8bCk-26">
          <mxGeometry relative="1" as="geometry">
            <mxPoint x="146" y="160" as="sourcePoint" />
            <mxPoint x="15" y="160" as="targetPoint" />
          </mxGeometry>
        </mxCell>
        <mxCell id="wy48QXKM6tLczcKT8bCk-11" value="return" style="html=1;verticalAlign=bottom;endArrow=open;dashed=1;endSize=8;curved=0;rounded=0;" edge="1" parent="wy48QXKM6tLczcKT8bCk-26" source="wy48QXKM6tLczcKT8bCk-12">
          <mxGeometry relative="1" as="geometry">
            <mxPoint x="507" y="160" as="sourcePoint" />
            <mxPoint x="386" y="160" as="targetPoint" />
          </mxGeometry>
        </mxCell>
        <mxCell id="wy48QXKM6tLczcKT8bCk-12" value="Dynamic CRM" style="shape=umlLifeline;perimeter=lifelinePerimeter;whiteSpace=wrap;html=1;container=0;dropTarget=0;collapsible=0;recursiveResize=0;outlineConnect=0;portConstraint=eastwest;newEdgeStyle={&quot;curved&quot;:0,&quot;rounded&quot;:0};" vertex="1" parent="wy48QXKM6tLczcKT8bCk-26">
          <mxGeometry x="565" y="40" width="100" height="340" as="geometry" />
        </mxCell>
        <mxCell id="wy48QXKM6tLczcKT8bCk-13" value="Cooling Period(Id Not Expired)" style="text;html=1;align=center;verticalAlign=middle;whiteSpace=wrap;rounded=0;container=0;" vertex="1" parent="wy48QXKM6tLczcKT8bCk-26">
          <mxGeometry x="205" y="80" width="170" height="30" as="geometry" />
        </mxCell>
        <mxCell id="wy48QXKM6tLczcKT8bCk-14" value="/getUserInfo" style="html=1;verticalAlign=bottom;endArrow=block;curved=0;rounded=0;" edge="1" parent="wy48QXKM6tLczcKT8bCk-26">
          <mxGeometry width="80" relative="1" as="geometry">
            <mxPoint x="15" y="279" as="sourcePoint" />
            <mxPoint x="144.5" y="279" as="targetPoint" />
          </mxGeometry>
        </mxCell>
        <mxCell id="wy48QXKM6tLczcKT8bCk-15" value="/getUserInfo" style="html=1;verticalAlign=bottom;endArrow=block;curved=0;rounded=0;" edge="1" parent="wy48QXKM6tLczcKT8bCk-26">
          <mxGeometry width="80" relative="1" as="geometry">
            <mxPoint x="145" y="279" as="sourcePoint" />
            <mxPoint x="265" y="279" as="targetPoint" />
          </mxGeometry>
        </mxCell>
        <mxCell id="wy48QXKM6tLczcKT8bCk-16" value="/getUserInfo" style="html=1;verticalAlign=bottom;endArrow=block;curved=0;rounded=0;" edge="1" parent="wy48QXKM6tLczcKT8bCk-26">
          <mxGeometry width="80" relative="1" as="geometry">
            <mxPoint x="265" y="279" as="sourcePoint" />
            <mxPoint x="385" y="279" as="targetPoint" />
          </mxGeometry>
        </mxCell>
        <mxCell id="wy48QXKM6tLczcKT8bCk-17" value="/getUserInfo" style="html=1;verticalAlign=bottom;endArrow=block;curved=0;rounded=0;" edge="1" parent="wy48QXKM6tLczcKT8bCk-26">
          <mxGeometry width="80" relative="1" as="geometry">
            <mxPoint x="386" y="279" as="sourcePoint" />
            <mxPoint x="505" y="280" as="targetPoint" />
          </mxGeometry>
        </mxCell>
        <mxCell id="wy48QXKM6tLczcKT8bCk-18" value="return" style="html=1;verticalAlign=bottom;endArrow=open;dashed=1;endSize=8;curved=0;rounded=0;" edge="1" parent="wy48QXKM6tLczcKT8bCk-26">
          <mxGeometry relative="1" as="geometry">
            <mxPoint x="385" y="300" as="sourcePoint" />
            <mxPoint x="264.5" y="301" as="targetPoint" />
          </mxGeometry>
        </mxCell>
        <mxCell id="wy48QXKM6tLczcKT8bCk-19" value="return" style="html=1;verticalAlign=bottom;endArrow=open;dashed=1;endSize=8;curved=0;rounded=0;" edge="1" parent="wy48QXKM6tLczcKT8bCk-26">
          <mxGeometry relative="1" as="geometry">
            <mxPoint x="264.5" y="353" as="sourcePoint" />
            <mxPoint x="145" y="353" as="targetPoint" />
          </mxGeometry>
        </mxCell>
        <mxCell id="wy48QXKM6tLczcKT8bCk-20" value="return" style="html=1;verticalAlign=bottom;endArrow=open;dashed=1;endSize=8;curved=0;rounded=0;" edge="1" parent="wy48QXKM6tLczcKT8bCk-26">
          <mxGeometry relative="1" as="geometry">
            <mxPoint x="146" y="353" as="sourcePoint" />
            <mxPoint x="15" y="353" as="targetPoint" />
          </mxGeometry>
        </mxCell>
        <mxCell id="wy48QXKM6tLczcKT8bCk-21" value="return" style="html=1;verticalAlign=bottom;endArrow=open;dashed=1;endSize=8;curved=0;rounded=0;" edge="1" parent="wy48QXKM6tLczcKT8bCk-26">
          <mxGeometry relative="1" as="geometry">
            <mxPoint x="505" y="300" as="sourcePoint" />
            <mxPoint x="386" y="300" as="targetPoint" />
          </mxGeometry>
        </mxCell>
        <mxCell id="wy48QXKM6tLczcKT8bCk-22" value="" style="line;strokeWidth=1;fillColor=#ffe6cc;align=left;verticalAlign=middle;spacingTop=-1;spacingLeft=3;spacingRight=3;rotatable=0;labelPosition=right;points=[];portConstraint=eastwest;strokeColor=#d79b00;container=0;" vertex="1" parent="wy48QXKM6tLczcKT8bCk-26">
          <mxGeometry x="5" y="195" width="650" height="8" as="geometry" />
        </mxCell>
        <mxCell id="wy48QXKM6tLczcKT8bCk-23" value="Cooling Period(Id Not Expired)" style="text;html=1;align=center;verticalAlign=middle;whiteSpace=wrap;rounded=0;container=0;" vertex="1" parent="wy48QXKM6tLczcKT8bCk-26">
          <mxGeometry x="175" y="203" width="170" height="30" as="geometry" />
        </mxCell>
        <mxCell id="wy48QXKM6tLczcKT8bCk-24" value="/saveCustomerData" style="html=1;verticalAlign=bottom;endArrow=block;curved=0;rounded=0;" edge="1" parent="wy48QXKM6tLczcKT8bCk-26">
          <mxGeometry width="80" relative="1" as="geometry">
            <mxPoint x="265" y="320" as="sourcePoint" />
            <mxPoint x="614.5" y="320" as="targetPoint" />
          </mxGeometry>
        </mxCell>
        <mxCell id="wy48QXKM6tLczcKT8bCk-25" value="GetUserInfo : CRM F001" style="text;html=1;align=center;verticalAlign=middle;whiteSpace=wrap;rounded=0;fontStyle=1;container=0;" vertex="1" parent="wy48QXKM6tLczcKT8bCk-26">
          <mxGeometry width="155" height="30" as="geometry" />
        </mxCell>
        <mxCell id="wy48QXKM6tLczcKT8bCk-27" value="" style="group" vertex="1" connectable="0" parent="1">
          <mxGeometry x="950" y="540" width="650" height="450" as="geometry" />
        </mxCell>
        <mxCell id="diRIJDAWU8BUFDwuRLAV-65" value="/getCustomer&lt;div&gt;ProfileDetails&lt;/div&gt;" style="html=1;verticalAlign=bottom;endArrow=block;curved=0;rounded=0;" parent="wy48QXKM6tLczcKT8bCk-27" target="diRIJDAWU8BUFDwuRLAV-60" edge="1">
          <mxGeometry width="80" relative="1" as="geometry">
            <mxPoint x="40" y="160" as="sourcePoint" />
            <mxPoint x="120" y="160" as="targetPoint" />
          </mxGeometry>
        </mxCell>
        <mxCell id="diRIJDAWU8BUFDwuRLAV-66" value="return&amp;nbsp;" style="html=1;verticalAlign=bottom;endArrow=open;dashed=1;endSize=8;curved=0;rounded=0;" parent="wy48QXKM6tLczcKT8bCk-27" edge="1">
          <mxGeometry relative="1" as="geometry">
            <mxPoint x="129.5" y="191" as="sourcePoint" />
            <mxPoint x="40" y="191" as="targetPoint" />
          </mxGeometry>
        </mxCell>
        <mxCell id="diRIJDAWU8BUFDwuRLAV-67" value="/getCustomer&lt;div&gt;ProfileDetails&lt;/div&gt;" style="html=1;verticalAlign=bottom;endArrow=block;curved=0;rounded=0;" parent="wy48QXKM6tLczcKT8bCk-27" target="diRIJDAWU8BUFDwuRLAV-62" edge="1">
          <mxGeometry width="80" relative="1" as="geometry">
            <mxPoint x="130" y="160" as="sourcePoint" />
            <mxPoint x="220" y="160" as="targetPoint" />
          </mxGeometry>
        </mxCell>
        <mxCell id="diRIJDAWU8BUFDwuRLAV-68" value="return" style="html=1;verticalAlign=bottom;endArrow=open;dashed=1;endSize=8;curved=0;rounded=0;" parent="wy48QXKM6tLczcKT8bCk-27" edge="1">
          <mxGeometry relative="1" as="geometry">
            <mxPoint x="247.5" y="441" as="sourcePoint" />
            <mxPoint x="128" y="441" as="targetPoint" />
          </mxGeometry>
        </mxCell>
        <mxCell id="diRIJDAWU8BUFDwuRLAV-69" value="/customerProfileDetail" style="html=1;verticalAlign=bottom;endArrow=block;curved=0;rounded=0;" parent="wy48QXKM6tLczcKT8bCk-27" target="diRIJDAWU8BUFDwuRLAV-64" edge="1">
          <mxGeometry width="80" relative="1" as="geometry">
            <mxPoint x="250" y="160" as="sourcePoint" />
            <mxPoint x="370" y="160" as="targetPoint" />
          </mxGeometry>
        </mxCell>
        <mxCell id="diRIJDAWU8BUFDwuRLAV-77" value="/getIncomeEmpInfo" style="html=1;verticalAlign=bottom;endArrow=block;curved=0;rounded=0;exitX=0.507;exitY=0.548;exitDx=0;exitDy=0;exitPerimeter=0;" parent="wy48QXKM6tLczcKT8bCk-27" edge="1">
          <mxGeometry width="80" relative="1" as="geometry">
            <mxPoint x="370.70000000000005" y="290.4000000000001" as="sourcePoint" />
            <mxPoint x="599.5" y="290.4000000000001" as="targetPoint" />
          </mxGeometry>
        </mxCell>
        <mxCell id="diRIJDAWU8BUFDwuRLAV-78" value="return" style="html=1;verticalAlign=bottom;endArrow=open;dashed=1;endSize=8;curved=0;rounded=0;" parent="wy48QXKM6tLczcKT8bCk-27" edge="1">
          <mxGeometry relative="1" as="geometry">
            <mxPoint x="599.5" y="326" as="sourcePoint" />
            <mxPoint x="370" y="326" as="targetPoint" />
          </mxGeometry>
        </mxCell>
        <mxCell id="diRIJDAWU8BUFDwuRLAV-79" value="return" style="html=1;verticalAlign=bottom;endArrow=open;dashed=1;endSize=8;curved=0;rounded=0;" parent="wy48QXKM6tLczcKT8bCk-27" edge="1">
          <mxGeometry relative="1" as="geometry">
            <mxPoint x="369.5" y="386" as="sourcePoint" />
            <mxPoint x="250" y="386" as="targetPoint" />
          </mxGeometry>
        </mxCell>
        <mxCell id="diRIJDAWU8BUFDwuRLAV-80" value="/getCustomerInfo" style="html=1;verticalAlign=bottom;endArrow=block;curved=0;rounded=0;" parent="wy48QXKM6tLczcKT8bCk-27" edge="1">
          <mxGeometry width="80" relative="1" as="geometry">
            <mxPoint x="249" y="411" as="sourcePoint" />
            <mxPoint x="490.5" y="411" as="targetPoint" />
          </mxGeometry>
        </mxCell>
        <mxCell id="diRIJDAWU8BUFDwuRLAV-81" value="return" style="html=1;verticalAlign=bottom;endArrow=open;dashed=1;endSize=8;curved=0;rounded=0;" parent="wy48QXKM6tLczcKT8bCk-27" edge="1">
          <mxGeometry relative="1" as="geometry">
            <mxPoint x="490.5" y="441" as="sourcePoint" />
            <mxPoint x="249" y="441" as="targetPoint" />
          </mxGeometry>
        </mxCell>
        <mxCell id="diRIJDAWU8BUFDwuRLAV-84" value="return" style="html=1;verticalAlign=bottom;endArrow=open;dashed=1;endSize=8;curved=0;rounded=0;" parent="wy48QXKM6tLczcKT8bCk-27" edge="1">
          <mxGeometry relative="1" as="geometry">
            <mxPoint x="248.5" y="191" as="sourcePoint" />
            <mxPoint x="129" y="191" as="targetPoint" />
          </mxGeometry>
        </mxCell>
        <mxCell id="diRIJDAWU8BUFDwuRLAV-86" value="return" style="html=1;verticalAlign=bottom;endArrow=open;dashed=1;endSize=8;curved=0;rounded=0;" parent="wy48QXKM6tLczcKT8bCk-27" edge="1">
          <mxGeometry relative="1" as="geometry">
            <mxPoint x="489.5" y="190" as="sourcePoint" />
            <mxPoint x="249.5" y="190" as="targetPoint" />
          </mxGeometry>
        </mxCell>
        <mxCell id="diRIJDAWU8BUFDwuRLAV-87" value="CustomerProfileDetails ( CRMF002 )" style="text;html=1;align=center;verticalAlign=middle;whiteSpace=wrap;rounded=0;fontStyle=1;direction=east;" parent="wy48QXKM6tLczcKT8bCk-27" vertex="1">
          <mxGeometry width="200" height="30" as="geometry" />
        </mxCell>
        <mxCell id="diRIJDAWU8BUFDwuRLAV-88" value="/getCustomer&lt;div&gt;ProfileDetails&lt;/div&gt;" style="html=1;verticalAlign=bottom;endArrow=block;curved=0;rounded=0;" parent="wy48QXKM6tLczcKT8bCk-27" edge="1">
          <mxGeometry width="80" relative="1" as="geometry">
            <mxPoint x="40" y="290" as="sourcePoint" />
            <mxPoint x="130" y="290" as="targetPoint" />
          </mxGeometry>
        </mxCell>
        <mxCell id="diRIJDAWU8BUFDwuRLAV-89" value="return" style="html=1;verticalAlign=bottom;endArrow=open;dashed=1;endSize=8;curved=0;rounded=0;" parent="wy48QXKM6tLczcKT8bCk-27" edge="1">
          <mxGeometry relative="1" as="geometry">
            <mxPoint x="129.5" y="440" as="sourcePoint" />
            <mxPoint x="40" y="440" as="targetPoint" />
          </mxGeometry>
        </mxCell>
        <mxCell id="diRIJDAWU8BUFDwuRLAV-90" value="/getCustomer&lt;div&gt;ProfileDetails&lt;/div&gt;" style="html=1;verticalAlign=bottom;endArrow=block;curved=0;rounded=0;" parent="wy48QXKM6tLczcKT8bCk-27" edge="1">
          <mxGeometry width="80" relative="1" as="geometry">
            <mxPoint x="131" y="290" as="sourcePoint" />
            <mxPoint x="251" y="290" as="targetPoint" />
          </mxGeometry>
        </mxCell>
        <mxCell id="diRIJDAWU8BUFDwuRLAV-91" value="/&lt;span style=&quot;color: rgb(33, 33, 33); font-family: Inter, system-ui, -apple-system, BlinkMacSystemFont, &amp;quot;Segoe UI&amp;quot;, Roboto, Oxygen, Ubuntu, Cantarell, &amp;quot;Fira Sans&amp;quot;, &amp;quot;Droid Sans&amp;quot;, Helvetica, Arial, sans-serif; font-size: 12px; text-align: left; white-space: pre-wrap;&quot;&gt;employment&lt;/span&gt;&lt;div&gt;&lt;span style=&quot;color: rgb(33, 33, 33); font-family: Inter, system-ui, -apple-system, BlinkMacSystemFont, &amp;quot;Segoe UI&amp;quot;, Roboto, Oxygen, Ubuntu, Cantarell, &amp;quot;Fira Sans&amp;quot;, &amp;quot;Droid Sans&amp;quot;, Helvetica, Arial, sans-serif; font-size: 12px; text-align: left; white-space: pre-wrap;&quot;&gt;-incomeInfo&lt;/span&gt;&lt;/div&gt;" style="html=1;verticalAlign=bottom;endArrow=block;curved=0;rounded=0;" parent="wy48QXKM6tLczcKT8bCk-27" edge="1">
          <mxGeometry width="80" relative="1" as="geometry">
            <mxPoint x="251" y="290" as="sourcePoint" />
            <mxPoint x="371" y="290" as="targetPoint" />
          </mxGeometry>
        </mxCell>
        <mxCell id="diRIJDAWU8BUFDwuRLAV-111" value="" style="endArrow=classic;html=1;rounded=0;" parent="wy48QXKM6tLczcKT8bCk-27" edge="1">
          <mxGeometry width="50" height="50" relative="1" as="geometry">
            <mxPoint x="371.3800000000001" y="369" as="sourcePoint" />
            <mxPoint x="490.3800000000001" y="369" as="targetPoint" />
          </mxGeometry>
        </mxCell>
        <mxCell id="diRIJDAWU8BUFDwuRLAV-113" value="return" style="html=1;verticalAlign=bottom;endArrow=open;dashed=1;endSize=8;curved=0;rounded=0;" parent="wy48QXKM6tLczcKT8bCk-27" edge="1">
          <mxGeometry relative="1" as="geometry">
            <mxPoint x="489.1300000000001" y="386" as="sourcePoint" />
            <mxPoint x="369.6300000000001" y="386" as="targetPoint" />
          </mxGeometry>
        </mxCell>
        <mxCell id="Mdwrjte0wyQuKczLhQp--1" value="" style="group" parent="wy48QXKM6tLczcKT8bCk-27" vertex="1" connectable="0">
          <mxGeometry x="30" y="50" width="620" height="400" as="geometry" />
        </mxCell>
        <mxCell id="diRIJDAWU8BUFDwuRLAV-60" value="IG(CRM)" style="shape=umlLifeline;perimeter=lifelinePerimeter;whiteSpace=wrap;html=1;container=1;dropTarget=0;collapsible=0;recursiveResize=0;outlineConnect=0;portConstraint=eastwest;newEdgeStyle={&quot;curved&quot;:0,&quot;rounded&quot;:0};direction=east;" parent="Mdwrjte0wyQuKczLhQp--1" vertex="1">
          <mxGeometry x="50" width="100" height="400" as="geometry" />
        </mxCell>
        <mxCell id="diRIJDAWU8BUFDwuRLAV-61" value="LOS" style="shape=umlLifeline;perimeter=lifelinePerimeter;whiteSpace=wrap;html=1;container=1;dropTarget=0;collapsible=0;recursiveResize=0;outlineConnect=0;portConstraint=eastwest;newEdgeStyle={&quot;curved&quot;:0,&quot;rounded&quot;:0};participant=umlActor;direction=east;" parent="Mdwrjte0wyQuKczLhQp--1" vertex="1">
          <mxGeometry y="30" width="20" height="360" as="geometry" />
        </mxCell>
        <mxCell id="diRIJDAWU8BUFDwuRLAV-62" value="Customer" style="shape=umlLifeline;perimeter=lifelinePerimeter;whiteSpace=wrap;html=1;container=1;dropTarget=0;collapsible=0;recursiveResize=0;outlineConnect=0;portConstraint=eastwest;newEdgeStyle={&quot;curved&quot;:0,&quot;rounded&quot;:0};direction=east;" parent="Mdwrjte0wyQuKczLhQp--1" vertex="1">
          <mxGeometry x="170" width="100" height="390" as="geometry" />
        </mxCell>
        <mxCell id="diRIJDAWU8BUFDwuRLAV-63" value="Verfied Income" style="shape=umlLifeline;perimeter=lifelinePerimeter;whiteSpace=wrap;html=1;container=1;dropTarget=0;collapsible=0;recursiveResize=0;outlineConnect=0;portConstraint=eastwest;newEdgeStyle={&quot;curved&quot;:0,&quot;rounded&quot;:0};direction=east;" parent="Mdwrjte0wyQuKczLhQp--1" vertex="1">
          <mxGeometry x="290" width="100" height="400" as="geometry" />
        </mxCell>
        <mxCell id="diRIJDAWU8BUFDwuRLAV-64" value="Dynamic CRM" style="shape=umlLifeline;perimeter=lifelinePerimeter;whiteSpace=wrap;html=1;container=1;dropTarget=0;collapsible=0;recursiveResize=0;outlineConnect=0;portConstraint=eastwest;newEdgeStyle={&quot;curved&quot;:0,&quot;rounded&quot;:0};direction=east;" parent="Mdwrjte0wyQuKczLhQp--1" vertex="1">
          <mxGeometry x="411" width="100" height="390" as="geometry" />
        </mxCell>
        <mxCell id="diRIJDAWU8BUFDwuRLAV-73" value="" style="line;strokeWidth=1;fillColor=#ffe6cc;align=left;verticalAlign=middle;spacingTop=-1;spacingLeft=3;spacingRight=3;rotatable=0;labelPosition=right;points=[];portConstraint=eastwest;strokeColor=#d79b00;direction=east;" parent="Mdwrjte0wyQuKczLhQp--1" vertex="1">
          <mxGeometry x="10" y="176" width="560" height="8" as="geometry" />
        </mxCell>
        <mxCell id="diRIJDAWU8BUFDwuRLAV-74" value="CoolingPeriod:ON" style="text;align=center;fontStyle=1;verticalAlign=middle;spacingLeft=3;spacingRight=3;strokeColor=#666666;rotatable=0;points=[[0,0.5],[1,0.5]];portConstraint=eastwest;html=1;fillColor=#f5f5f5;fontColor=#333333;direction=east;" parent="Mdwrjte0wyQuKczLhQp--1" vertex="1">
          <mxGeometry x="162.5" y="50" width="115" height="26" as="geometry" />
        </mxCell>
        <mxCell id="diRIJDAWU8BUFDwuRLAV-75" value="CoolingPeriod:Off" style="text;align=center;fontStyle=1;verticalAlign=middle;spacingLeft=3;spacingRight=3;rotatable=0;points=[[0,0.5],[1,0.5]];portConstraint=eastwest;html=1;fillColor=#f5f5f5;fontColor=#333333;strokeColor=#666666;direction=east;" parent="Mdwrjte0wyQuKczLhQp--1" vertex="1">
          <mxGeometry x="160" y="182" width="140" height="26" as="geometry" />
        </mxCell>
        <mxCell id="diRIJDAWU8BUFDwuRLAV-76" value="DAKHLI/GOSI" style="shape=umlLifeline;perimeter=lifelinePerimeter;whiteSpace=wrap;html=1;container=1;dropTarget=0;collapsible=0;recursiveResize=0;outlineConnect=0;portConstraint=eastwest;newEdgeStyle={&quot;curved&quot;:0,&quot;rounded&quot;:0};direction=east;" parent="Mdwrjte0wyQuKczLhQp--1" vertex="1">
          <mxGeometry x="520" width="100" height="400" as="geometry" />
        </mxCell>
        <mxCell id="diRIJDAWU8BUFDwuRLAV-82" value="" style="line;strokeWidth=1;fillColor=#ffe6cc;align=left;verticalAlign=middle;spacingTop=-1;spacingLeft=3;spacingRight=3;rotatable=0;labelPosition=right;points=[];portConstraint=eastwest;strokeColor=#d79b00;direction=east;" parent="Mdwrjte0wyQuKczLhQp--1" vertex="1">
          <mxGeometry x="10" y="388" width="560" height="8" as="geometry" />
        </mxCell>
        <mxCell id="diRIJDAWU8BUFDwuRLAV-83" value="" style="text;strokeColor=none;fillColor=none;align=left;verticalAlign=middle;spacingTop=-1;spacingLeft=4;spacingRight=4;rotatable=0;labelPosition=right;points=[];portConstraint=eastwest;direction=east;" parent="Mdwrjte0wyQuKczLhQp--1" vertex="1">
          <mxGeometry x="460" y="124" width="20" height="14" as="geometry" />
        </mxCell>
        <mxCell id="diRIJDAWU8BUFDwuRLAV-112" value="/saveCustomer&lt;div&gt;IncomeInfo&lt;/div&gt;" style="text;html=1;align=center;verticalAlign=middle;whiteSpace=wrap;rounded=0;direction=east;" parent="Mdwrjte0wyQuKczLhQp--1" vertex="1">
          <mxGeometry x="365.38" y="287" width="60" height="30" as="geometry" />
        </mxCell>
        <mxCell id="wy48QXKM6tLczcKT8bCk-51" value="" style="group" vertex="1" connectable="0" parent="1">
          <mxGeometry x="890" y="1150" width="772" height="280" as="geometry" />
        </mxCell>
        <mxCell id="wy48QXKM6tLczcKT8bCk-52" value="IG&amp;nbsp;&lt;div&gt;(CRM Domain)&lt;/div&gt;" style="shape=umlLifeline;perimeter=lifelinePerimeter;whiteSpace=wrap;html=1;container=0;dropTarget=0;collapsible=0;recursiveResize=0;outlineConnect=0;portConstraint=eastwest;newEdgeStyle={&quot;curved&quot;:0,&quot;rounded&quot;:0};" vertex="1" parent="wy48QXKM6tLczcKT8bCk-51">
          <mxGeometry x="90" width="100" height="280" as="geometry" />
        </mxCell>
        <mxCell id="wy48QXKM6tLczcKT8bCk-53" value="B2B" style="shape=umlLifeline;perimeter=lifelinePerimeter;whiteSpace=wrap;html=1;container=0;dropTarget=0;collapsible=0;recursiveResize=0;outlineConnect=0;portConstraint=eastwest;newEdgeStyle={&quot;curved&quot;:0,&quot;rounded&quot;:0};" vertex="1" parent="wy48QXKM6tLczcKT8bCk-51">
          <mxGeometry x="436" width="100" height="280" as="geometry" />
        </mxCell>
        <mxCell id="wy48QXKM6tLczcKT8bCk-54" value="Saudi Post" style="shape=umlLifeline;perimeter=lifelinePerimeter;whiteSpace=wrap;html=1;container=0;dropTarget=0;collapsible=0;recursiveResize=0;outlineConnect=0;portConstraint=eastwest;newEdgeStyle={&quot;curved&quot;:0,&quot;rounded&quot;:0};" vertex="1" parent="wy48QXKM6tLczcKT8bCk-51">
          <mxGeometry x="562" width="100" height="280" as="geometry" />
        </mxCell>
        <mxCell id="wy48QXKM6tLczcKT8bCk-55" value="National&lt;div&gt;Address&lt;/div&gt;" style="shape=umlLifeline;perimeter=lifelinePerimeter;whiteSpace=wrap;html=1;container=0;dropTarget=0;collapsible=0;recursiveResize=0;outlineConnect=0;portConstraint=eastwest;newEdgeStyle={&quot;curved&quot;:0,&quot;rounded&quot;:0};" vertex="1" parent="wy48QXKM6tLczcKT8bCk-51">
          <mxGeometry x="316" width="80" height="280" as="geometry" />
        </mxCell>
        <mxCell id="wy48QXKM6tLczcKT8bCk-56" value="/getNationalAddress" style="html=1;verticalAlign=bottom;endArrow=block;curved=0;rounded=0;" edge="1" parent="wy48QXKM6tLczcKT8bCk-51">
          <mxGeometry width="80" relative="1" as="geometry">
            <mxPoint x="10" y="80" as="sourcePoint" />
            <mxPoint x="140" y="80" as="targetPoint" />
          </mxGeometry>
        </mxCell>
        <mxCell id="wy48QXKM6tLczcKT8bCk-57" value="/getNationalAddress" style="html=1;verticalAlign=bottom;endArrow=block;curved=0;rounded=0;" edge="1" parent="wy48QXKM6tLczcKT8bCk-51">
          <mxGeometry width="80" relative="1" as="geometry">
            <mxPoint x="140" y="80" as="sourcePoint" />
            <mxPoint x="360" y="80" as="targetPoint" />
          </mxGeometry>
        </mxCell>
        <mxCell id="wy48QXKM6tLczcKT8bCk-58" value="/getNationalAddress" style="html=1;verticalAlign=bottom;endArrow=block;curved=0;rounded=0;" edge="1" parent="wy48QXKM6tLczcKT8bCk-51">
          <mxGeometry width="80" relative="1" as="geometry">
            <mxPoint x="356" y="80" as="sourcePoint" />
            <mxPoint x="486" y="80" as="targetPoint" />
          </mxGeometry>
        </mxCell>
        <mxCell id="wy48QXKM6tLczcKT8bCk-59" value="/getNationalAddress" style="html=1;verticalAlign=bottom;endArrow=block;curved=0;rounded=0;" edge="1" parent="wy48QXKM6tLczcKT8bCk-51">
          <mxGeometry width="80" relative="1" as="geometry">
            <mxPoint x="489" y="80" as="sourcePoint" />
            <mxPoint x="612" y="80" as="targetPoint" />
          </mxGeometry>
        </mxCell>
        <mxCell id="wy48QXKM6tLczcKT8bCk-60" value="return" style="html=1;verticalAlign=bottom;endArrow=open;dashed=1;endSize=8;curved=0;rounded=0;" edge="1" parent="wy48QXKM6tLczcKT8bCk-51" source="wy48QXKM6tLczcKT8bCk-54">
          <mxGeometry relative="1" as="geometry">
            <mxPoint x="677" y="120" as="sourcePoint" />
            <mxPoint x="482" y="120" as="targetPoint" />
          </mxGeometry>
        </mxCell>
        <mxCell id="wy48QXKM6tLczcKT8bCk-61" value="return" style="html=1;verticalAlign=bottom;endArrow=open;dashed=1;endSize=8;curved=0;rounded=0;" edge="1" parent="wy48QXKM6tLczcKT8bCk-51">
          <mxGeometry relative="1" as="geometry">
            <mxPoint x="145" y="120" as="sourcePoint" />
            <mxPoint x="9.5" y="120" as="targetPoint" />
          </mxGeometry>
        </mxCell>
        <mxCell id="wy48QXKM6tLczcKT8bCk-62" value="return" style="html=1;verticalAlign=bottom;endArrow=open;dashed=1;endSize=8;curved=0;rounded=0;" edge="1" parent="wy48QXKM6tLczcKT8bCk-51" target="wy48QXKM6tLczcKT8bCk-55">
          <mxGeometry relative="1" as="geometry">
            <mxPoint x="556" y="120" as="sourcePoint" />
            <mxPoint x="426" y="120" as="targetPoint" />
          </mxGeometry>
        </mxCell>
        <mxCell id="wy48QXKM6tLczcKT8bCk-63" value="return" style="html=1;verticalAlign=bottom;endArrow=open;dashed=1;endSize=8;curved=0;rounded=0;" edge="1" parent="wy48QXKM6tLczcKT8bCk-51" target="wy48QXKM6tLczcKT8bCk-52">
          <mxGeometry relative="1" as="geometry">
            <mxPoint x="410" y="120" as="sourcePoint" />
            <mxPoint x="350" y="120" as="targetPoint" />
          </mxGeometry>
        </mxCell>
        <mxCell id="wy48QXKM6tLczcKT8bCk-64" value="/getNationalAddress" style="html=1;verticalAlign=bottom;endArrow=block;curved=0;rounded=0;" edge="1" parent="wy48QXKM6tLczcKT8bCk-51">
          <mxGeometry width="80" relative="1" as="geometry">
            <mxPoint x="0.5" y="200" as="sourcePoint" />
            <mxPoint x="130.5" y="200" as="targetPoint" />
          </mxGeometry>
        </mxCell>
        <mxCell id="wy48QXKM6tLczcKT8bCk-65" value="/getNationalAddress" style="html=1;verticalAlign=bottom;endArrow=block;curved=0;rounded=0;" edge="1" parent="wy48QXKM6tLczcKT8bCk-51">
          <mxGeometry width="80" relative="1" as="geometry">
            <mxPoint x="134.5" y="202" as="sourcePoint" />
            <mxPoint x="359.5" y="202" as="targetPoint" />
          </mxGeometry>
        </mxCell>
        <mxCell id="wy48QXKM6tLczcKT8bCk-66" value="/getCustomerInfo(nationalAddress)" style="html=1;verticalAlign=bottom;endArrow=block;curved=0;rounded=0;" edge="1" parent="wy48QXKM6tLczcKT8bCk-51">
          <mxGeometry width="80" relative="1" as="geometry">
            <mxPoint x="355.5" y="202" as="sourcePoint" />
            <mxPoint x="721.5" y="202" as="targetPoint" />
          </mxGeometry>
        </mxCell>
        <mxCell id="wy48QXKM6tLczcKT8bCk-67" value="return" style="html=1;verticalAlign=bottom;endArrow=open;dashed=1;endSize=8;curved=0;rounded=0;" edge="1" parent="wy48QXKM6tLczcKT8bCk-51">
          <mxGeometry relative="1" as="geometry">
            <mxPoint x="721.5" y="240" as="sourcePoint" />
            <mxPoint x="355.5" y="240" as="targetPoint" />
          </mxGeometry>
        </mxCell>
        <mxCell id="wy48QXKM6tLczcKT8bCk-68" value="return" style="html=1;verticalAlign=bottom;endArrow=open;dashed=1;endSize=8;curved=0;rounded=0;" edge="1" parent="wy48QXKM6tLczcKT8bCk-51">
          <mxGeometry relative="1" as="geometry">
            <mxPoint x="135.5" y="240" as="sourcePoint" />
            <mxPoint y="240" as="targetPoint" />
          </mxGeometry>
        </mxCell>
        <mxCell id="wy48QXKM6tLczcKT8bCk-69" value="return" style="html=1;verticalAlign=bottom;endArrow=open;dashed=1;endSize=8;curved=0;rounded=0;" edge="1" parent="wy48QXKM6tLczcKT8bCk-51">
          <mxGeometry relative="1" as="geometry">
            <mxPoint x="410" y="240" as="sourcePoint" />
            <mxPoint x="130.5" y="240" as="targetPoint" />
          </mxGeometry>
        </mxCell>
        <mxCell id="wy48QXKM6tLczcKT8bCk-70" value="" style="line;strokeWidth=1;fillColor=#ffe6cc;align=left;verticalAlign=middle;spacingTop=-1;spacingLeft=3;spacingRight=3;rotatable=0;labelPosition=right;points=[];portConstraint=eastwest;strokeColor=#d79b00;container=0;" vertex="1" parent="wy48QXKM6tLczcKT8bCk-51">
          <mxGeometry x="10" y="155" width="710" height="8" as="geometry" />
        </mxCell>
        <mxCell id="wy48QXKM6tLczcKT8bCk-71" value="Cooling Period Off" style="text;html=1;align=center;verticalAlign=middle;whiteSpace=wrap;rounded=0;fillColor=#ffe6cc;strokeColor=#d79b00;container=0;" vertex="1" parent="wy48QXKM6tLczcKT8bCk-51">
          <mxGeometry x="210" y="10" width="85" height="30" as="geometry" />
        </mxCell>
        <mxCell id="wy48QXKM6tLczcKT8bCk-72" value="Dynamic CRM" style="shape=umlLifeline;perimeter=lifelinePerimeter;whiteSpace=wrap;html=1;container=0;dropTarget=0;collapsible=0;recursiveResize=0;outlineConnect=0;portConstraint=eastwest;newEdgeStyle={&quot;curved&quot;:0,&quot;rounded&quot;:0};" vertex="1" parent="wy48QXKM6tLczcKT8bCk-51">
          <mxGeometry x="672" width="100" height="280" as="geometry" />
        </mxCell>
        <mxCell id="wy48QXKM6tLczcKT8bCk-73" value="Cooling Period ON" style="text;html=1;align=center;verticalAlign=middle;whiteSpace=wrap;rounded=0;fillColor=#ffe6cc;strokeColor=#d79b00;container=0;" vertex="1" parent="wy48QXKM6tLczcKT8bCk-51">
          <mxGeometry x="210" y="155" width="85" height="30" as="geometry" />
        </mxCell>
        <mxCell id="wy48QXKM6tLczcKT8bCk-74" value="&lt;b&gt;&lt;font style=&quot;font-size: 15px;&quot;&gt;National Address : CRM F005&lt;/font&gt;&lt;/b&gt;" style="text;html=1;align=center;verticalAlign=middle;whiteSpace=wrap;rounded=0;" vertex="1" parent="1">
          <mxGeometry x="930" y="1090" width="230" height="30" as="geometry" />
        </mxCell>
        <mxCell id="YgcAfPfx9koRfK3tRKgy-1" value="&lt;div&gt;&lt;br&gt;&lt;/div&gt;" style="shape=umlLifeline;perimeter=lifelinePerimeter;whiteSpace=wrap;html=1;container=0;dropTarget=0;collapsible=0;recursiveResize=0;outlineConnect=0;portConstraint=eastwest;newEdgeStyle={&quot;curved&quot;:0,&quot;rounded&quot;:0};participant=umlActor;fillColor=#f8cecc;strokeColor=#b85450;" parent="1" vertex="1">
          <mxGeometry x="122" y="1150" width="20" height="440" as="geometry" />
        </mxCell>
        <mxCell id="YgcAfPfx9koRfK3tRKgy-2" value="API" style="shape=umlLifeline;perimeter=lifelinePerimeter;whiteSpace=wrap;html=1;container=0;dropTarget=0;collapsible=0;recursiveResize=0;outlineConnect=0;portConstraint=eastwest;newEdgeStyle={&quot;curved&quot;:0,&quot;rounded&quot;:0};" parent="1" vertex="1">
          <mxGeometry x="172" y="1150" width="110" height="440" as="geometry" />
        </mxCell>
        <mxCell id="YgcAfPfx9koRfK3tRKgy-3" value="save&lt;div&gt;AdditionalInfo&lt;/div&gt;" style="html=1;verticalAlign=bottom;endArrow=block;curved=0;rounded=0;" parent="1" target="YgcAfPfx9koRfK3tRKgy-2" edge="1">
          <mxGeometry width="80" relative="1" as="geometry">
            <mxPoint x="132" y="1230" as="sourcePoint" />
            <mxPoint x="212" y="1230" as="targetPoint" />
          </mxGeometry>
        </mxCell>
        <mxCell id="YgcAfPfx9koRfK3tRKgy-5" value="Verified Income" style="shape=umlLifeline;perimeter=lifelinePerimeter;whiteSpace=wrap;html=1;container=0;dropTarget=0;collapsible=0;recursiveResize=0;outlineConnect=0;portConstraint=eastwest;newEdgeStyle={&quot;curved&quot;:0,&quot;rounded&quot;:0};" parent="1" vertex="1">
          <mxGeometry x="302" y="1150" width="110" height="440" as="geometry" />
        </mxCell>
        <mxCell id="YgcAfPfx9koRfK3tRKgy-9" value="return" style="html=1;verticalAlign=bottom;endArrow=open;dashed=1;endSize=8;curved=0;rounded=0;" parent="1" source="YgcAfPfx9koRfK3tRKgy-2" edge="1">
          <mxGeometry relative="1" as="geometry">
            <mxPoint x="389" y="1270" as="sourcePoint" />
            <mxPoint x="132" y="1270" as="targetPoint" />
          </mxGeometry>
        </mxCell>
        <mxCell id="YgcAfPfx9koRfK3tRKgy-10" value="Save&lt;div&gt;Employment&lt;/div&gt;" style="html=1;verticalAlign=bottom;endArrow=block;curved=0;rounded=0;" parent="1" edge="1">
          <mxGeometry width="80" relative="1" as="geometry">
            <mxPoint x="131" y="1310" as="sourcePoint" />
            <mxPoint x="226" y="1310" as="targetPoint" />
          </mxGeometry>
        </mxCell>
        <mxCell id="YgcAfPfx9koRfK3tRKgy-11" value="SaveEmployment" style="html=1;verticalAlign=bottom;endArrow=block;curved=0;rounded=0;" parent="1" edge="1">
          <mxGeometry width="80" relative="1" as="geometry">
            <mxPoint x="232" y="1310" as="sourcePoint" />
            <mxPoint x="356" y="1310" as="targetPoint" />
          </mxGeometry>
        </mxCell>
        <mxCell id="YgcAfPfx9koRfK3tRKgy-12" value="return" style="html=1;verticalAlign=bottom;endArrow=open;dashed=1;endSize=8;curved=0;rounded=0;" parent="1" edge="1">
          <mxGeometry relative="1" as="geometry">
            <mxPoint x="226" y="1350" as="sourcePoint" />
            <mxPoint x="131" y="1350" as="targetPoint" />
          </mxGeometry>
        </mxCell>
        <mxCell id="YgcAfPfx9koRfK3tRKgy-13" value="return" style="html=1;verticalAlign=bottom;endArrow=open;dashed=1;endSize=8;curved=0;rounded=0;" parent="1" source="YgcAfPfx9koRfK3tRKgy-5" edge="1">
          <mxGeometry relative="1" as="geometry">
            <mxPoint x="317" y="1350" as="sourcePoint" />
            <mxPoint x="222" y="1350" as="targetPoint" />
          </mxGeometry>
        </mxCell>
        <mxCell id="YgcAfPfx9koRfK3tRKgy-14" value="SaveIncome" style="html=1;verticalAlign=bottom;endArrow=block;curved=0;rounded=0;" parent="1" edge="1">
          <mxGeometry width="80" relative="1" as="geometry">
            <mxPoint x="131" y="1388" as="sourcePoint" />
            <mxPoint x="226" y="1388" as="targetPoint" />
          </mxGeometry>
        </mxCell>
        <mxCell id="YgcAfPfx9koRfK3tRKgy-15" value="SaveIncome" style="html=1;verticalAlign=bottom;endArrow=block;curved=0;rounded=0;" parent="1" edge="1">
          <mxGeometry width="80" relative="1" as="geometry">
            <mxPoint x="226" y="1388" as="sourcePoint" />
            <mxPoint x="356" y="1388" as="targetPoint" />
          </mxGeometry>
        </mxCell>
        <mxCell id="YgcAfPfx9koRfK3tRKgy-16" value="return" style="html=1;verticalAlign=bottom;endArrow=open;dashed=1;endSize=8;curved=0;rounded=0;" parent="1" edge="1">
          <mxGeometry relative="1" as="geometry">
            <mxPoint x="226" y="1428" as="sourcePoint" />
            <mxPoint x="131" y="1428" as="targetPoint" />
          </mxGeometry>
        </mxCell>
        <mxCell id="YgcAfPfx9koRfK3tRKgy-17" value="return" style="html=1;verticalAlign=bottom;endArrow=open;dashed=1;endSize=8;curved=0;rounded=0;" parent="1" edge="1">
          <mxGeometry relative="1" as="geometry">
            <mxPoint x="357" y="1429" as="sourcePoint" />
            <mxPoint x="222" y="1429" as="targetPoint" />
          </mxGeometry>
        </mxCell>
        <mxCell id="YgcAfPfx9koRfK3tRKgy-18" value="SaveExpenses" style="html=1;verticalAlign=bottom;endArrow=block;curved=0;rounded=0;" parent="1" edge="1">
          <mxGeometry width="80" relative="1" as="geometry">
            <mxPoint x="134" y="1470" as="sourcePoint" />
            <mxPoint x="229" y="1470" as="targetPoint" />
          </mxGeometry>
        </mxCell>
        <mxCell id="YgcAfPfx9koRfK3tRKgy-19" value="return" style="html=1;verticalAlign=bottom;endArrow=open;dashed=1;endSize=8;curved=0;rounded=0;" parent="1" edge="1">
          <mxGeometry relative="1" as="geometry">
            <mxPoint x="229" y="1510" as="sourcePoint" />
            <mxPoint x="134" y="1510" as="targetPoint" />
          </mxGeometry>
        </mxCell>
        <mxCell id="YgcAfPfx9koRfK3tRKgy-20" value="return" style="html=1;verticalAlign=bottom;endArrow=open;dashed=1;endSize=8;curved=0;rounded=0;" parent="1" edge="1">
          <mxGeometry relative="1" as="geometry">
            <mxPoint x="485.5" y="1509" as="sourcePoint" />
            <mxPoint x="225" y="1509" as="targetPoint" />
          </mxGeometry>
        </mxCell>
        <mxCell id="YgcAfPfx9koRfK3tRKgy-21" value="&lt;div&gt;&lt;br&gt;&lt;/div&gt;" style="shape=umlLifeline;perimeter=lifelinePerimeter;whiteSpace=wrap;html=1;container=0;dropTarget=0;collapsible=0;recursiveResize=0;outlineConnect=0;portConstraint=eastwest;newEdgeStyle={&quot;curved&quot;:0,&quot;rounded&quot;:0};participant=umlActor;fillColor=#f8cecc;strokeColor=#b85450;" parent="1" vertex="1">
          <mxGeometry x="122" y="1150" width="20" height="440" as="geometry" />
        </mxCell>
        <mxCell id="YgcAfPfx9koRfK3tRKgy-22" value="External Data&lt;div&gt;Power&lt;/div&gt;" style="shape=umlLifeline;perimeter=lifelinePerimeter;whiteSpace=wrap;html=1;container=0;dropTarget=0;collapsible=0;recursiveResize=0;outlineConnect=0;portConstraint=eastwest;newEdgeStyle={&quot;curved&quot;:0,&quot;rounded&quot;:0};" parent="1" vertex="1">
          <mxGeometry x="172" y="1150" width="110" height="440" as="geometry" />
        </mxCell>
        <mxCell id="YgcAfPfx9koRfK3tRKgy-23" value="Dynamic CRM" style="shape=umlLifeline;perimeter=lifelinePerimeter;whiteSpace=wrap;html=1;container=0;dropTarget=0;collapsible=0;recursiveResize=0;outlineConnect=0;portConstraint=eastwest;newEdgeStyle={&quot;curved&quot;:0,&quot;rounded&quot;:0};" parent="1" vertex="1">
          <mxGeometry x="680" y="1150" width="110" height="440" as="geometry" />
        </mxCell>
        <mxCell id="YgcAfPfx9koRfK3tRKgy-26" value="save&lt;div&gt;AdditionalInfo&lt;/div&gt;" style="html=1;verticalAlign=bottom;endArrow=block;curved=0;rounded=0;" parent="1" target="YgcAfPfx9koRfK3tRKgy-22" edge="1">
          <mxGeometry width="80" relative="1" as="geometry">
            <mxPoint x="132" y="1230" as="sourcePoint" />
            <mxPoint x="212" y="1230" as="targetPoint" />
          </mxGeometry>
        </mxCell>
        <mxCell id="YgcAfPfx9koRfK3tRKgy-28" value="Internal Data Power" style="shape=umlLifeline;perimeter=lifelinePerimeter;whiteSpace=wrap;html=1;container=0;dropTarget=0;collapsible=0;recursiveResize=0;outlineConnect=0;portConstraint=eastwest;newEdgeStyle={&quot;curved&quot;:0,&quot;rounded&quot;:0};" parent="1" vertex="1">
          <mxGeometry x="582" y="1150" width="80" height="440" as="geometry" />
        </mxCell>
        <mxCell id="YgcAfPfx9koRfK3tRKgy-31" value="saveCustomerInfo" style="html=1;verticalAlign=bottom;endArrow=block;curved=0;rounded=0;" parent="1" source="YgcAfPfx9koRfK3tRKgy-22" edge="1">
          <mxGeometry width="80" relative="1" as="geometry">
            <mxPoint x="492" y="1230" as="sourcePoint" />
            <mxPoint x="622" y="1230" as="targetPoint" />
          </mxGeometry>
        </mxCell>
        <mxCell id="YgcAfPfx9koRfK3tRKgy-32" value="saveCustomerInfo" style="html=1;verticalAlign=bottom;endArrow=block;curved=0;rounded=0;" parent="1" edge="1">
          <mxGeometry width="80" relative="1" as="geometry">
            <mxPoint x="623" y="1230" as="sourcePoint" />
            <mxPoint x="736" y="1230" as="targetPoint" />
          </mxGeometry>
        </mxCell>
        <mxCell id="YgcAfPfx9koRfK3tRKgy-33" value="return" style="html=1;verticalAlign=bottom;endArrow=open;dashed=1;endSize=8;curved=0;rounded=0;" parent="1" edge="1">
          <mxGeometry relative="1" as="geometry">
            <mxPoint x="736" y="1269" as="sourcePoint" />
            <mxPoint x="622" y="1269" as="targetPoint" />
          </mxGeometry>
        </mxCell>
        <mxCell id="YgcAfPfx9koRfK3tRKgy-34" value="return" style="html=1;verticalAlign=bottom;endArrow=open;dashed=1;endSize=8;curved=0;rounded=0;" parent="1" target="YgcAfPfx9koRfK3tRKgy-22" edge="1">
          <mxGeometry relative="1" as="geometry">
            <mxPoint x="621" y="1269" as="sourcePoint" />
            <mxPoint x="490.5" y="1269" as="targetPoint" />
          </mxGeometry>
        </mxCell>
        <mxCell id="YgcAfPfx9koRfK3tRKgy-35" value="saveCustomerInfo" style="html=1;verticalAlign=bottom;endArrow=block;curved=0;rounded=0;" parent="1" source="YgcAfPfx9koRfK3tRKgy-49" edge="1">
          <mxGeometry width="80" relative="1" as="geometry">
            <mxPoint x="495" y="1309" as="sourcePoint" />
            <mxPoint x="625" y="1309" as="targetPoint" />
          </mxGeometry>
        </mxCell>
        <mxCell id="YgcAfPfx9koRfK3tRKgy-36" value="return" style="html=1;verticalAlign=bottom;endArrow=open;dashed=1;endSize=8;curved=0;rounded=0;" parent="1" target="YgcAfPfx9koRfK3tRKgy-49" edge="1">
          <mxGeometry relative="1" as="geometry">
            <mxPoint x="624" y="1348" as="sourcePoint" />
            <mxPoint x="494" y="1348" as="targetPoint" />
          </mxGeometry>
        </mxCell>
        <mxCell id="YgcAfPfx9koRfK3tRKgy-37" value="saveCustomerInfo" style="html=1;verticalAlign=bottom;endArrow=block;curved=0;rounded=0;" parent="1" edge="1">
          <mxGeometry width="80" relative="1" as="geometry">
            <mxPoint x="624" y="1309" as="sourcePoint" />
            <mxPoint x="737" y="1309" as="targetPoint" />
          </mxGeometry>
        </mxCell>
        <mxCell id="YgcAfPfx9koRfK3tRKgy-38" value="return" style="html=1;verticalAlign=bottom;endArrow=open;dashed=1;endSize=8;curved=0;rounded=0;" parent="1" edge="1">
          <mxGeometry relative="1" as="geometry">
            <mxPoint x="737" y="1348" as="sourcePoint" />
            <mxPoint x="623" y="1348" as="targetPoint" />
          </mxGeometry>
        </mxCell>
        <mxCell id="YgcAfPfx9koRfK3tRKgy-39" value="" style="html=1;points=[[0,0,0,0,5],[0,1,0,0,-5],[1,0,0,0,5],[1,1,0,0,-5]];perimeter=orthogonalPerimeter;outlineConnect=0;targetShapes=umlLifeline;portConstraint=eastwest;newEdgeStyle={&quot;curved&quot;:0,&quot;rounded&quot;:0};container=0;" parent="1" vertex="1">
          <mxGeometry x="730" y="1389" width="10" height="40" as="geometry" />
        </mxCell>
        <mxCell id="YgcAfPfx9koRfK3tRKgy-40" value="" style="html=1;points=[[0,0,0,0,5],[0,1,0,0,-5],[1,0,0,0,5],[1,1,0,0,-5]];perimeter=orthogonalPerimeter;outlineConnect=0;targetShapes=umlLifeline;portConstraint=eastwest;newEdgeStyle={&quot;curved&quot;:0,&quot;rounded&quot;:0};container=0;" parent="1" vertex="1">
          <mxGeometry x="617" y="1389" width="10" height="40" as="geometry" />
        </mxCell>
        <mxCell id="YgcAfPfx9koRfK3tRKgy-41" value="return" style="html=1;verticalAlign=bottom;endArrow=open;dashed=1;endSize=8;curved=0;rounded=0;" parent="1" target="YgcAfPfx9koRfK3tRKgy-49" edge="1">
          <mxGeometry relative="1" as="geometry">
            <mxPoint x="624" y="1430" as="sourcePoint" />
            <mxPoint x="494" y="1430" as="targetPoint" />
          </mxGeometry>
        </mxCell>
        <mxCell id="YgcAfPfx9koRfK3tRKgy-42" value="saveCustomerInfo" style="html=1;verticalAlign=bottom;endArrow=block;curved=0;rounded=0;" parent="1" edge="1">
          <mxGeometry width="80" relative="1" as="geometry">
            <mxPoint x="624" y="1388" as="sourcePoint" />
            <mxPoint x="737" y="1388" as="targetPoint" />
          </mxGeometry>
        </mxCell>
        <mxCell id="YgcAfPfx9koRfK3tRKgy-43" value="return" style="html=1;verticalAlign=bottom;endArrow=open;dashed=1;endSize=8;curved=0;rounded=0;" parent="1" edge="1">
          <mxGeometry relative="1" as="geometry">
            <mxPoint x="737" y="1429" as="sourcePoint" />
            <mxPoint x="623" y="1429" as="targetPoint" />
          </mxGeometry>
        </mxCell>
        <mxCell id="YgcAfPfx9koRfK3tRKgy-44" value="" style="html=1;points=[[0,0,0,0,5],[0,1,0,0,-5],[1,0,0,0,5],[1,1,0,0,-5]];perimeter=orthogonalPerimeter;outlineConnect=0;targetShapes=umlLifeline;portConstraint=eastwest;newEdgeStyle={&quot;curved&quot;:0,&quot;rounded&quot;:0};container=0;" parent="1" vertex="1">
          <mxGeometry x="733" y="1469" width="10" height="40" as="geometry" />
        </mxCell>
        <mxCell id="YgcAfPfx9koRfK3tRKgy-45" value="" style="html=1;points=[[0,0,0,0,5],[0,1,0,0,-5],[1,0,0,0,5],[1,1,0,0,-5]];perimeter=orthogonalPerimeter;outlineConnect=0;targetShapes=umlLifeline;portConstraint=eastwest;newEdgeStyle={&quot;curved&quot;:0,&quot;rounded&quot;:0};container=0;" parent="1" vertex="1">
          <mxGeometry x="620" y="1469" width="10" height="40" as="geometry" />
        </mxCell>
        <mxCell id="YgcAfPfx9koRfK3tRKgy-46" value="saveCustomerInfo" style="html=1;verticalAlign=bottom;endArrow=block;curved=0;rounded=0;" parent="1" source="YgcAfPfx9koRfK3tRKgy-22" edge="1">
          <mxGeometry width="80" relative="1" as="geometry">
            <mxPoint x="498" y="1468" as="sourcePoint" />
            <mxPoint x="628" y="1468" as="targetPoint" />
          </mxGeometry>
        </mxCell>
        <mxCell id="YgcAfPfx9koRfK3tRKgy-47" value="saveCustomerInfo" style="html=1;verticalAlign=bottom;endArrow=block;curved=0;rounded=0;" parent="1" edge="1">
          <mxGeometry width="80" relative="1" as="geometry">
            <mxPoint x="627" y="1468" as="sourcePoint" />
            <mxPoint x="740" y="1468" as="targetPoint" />
          </mxGeometry>
        </mxCell>
        <mxCell id="YgcAfPfx9koRfK3tRKgy-48" value="return" style="html=1;verticalAlign=bottom;endArrow=open;dashed=1;endSize=8;curved=0;rounded=0;" parent="1" edge="1">
          <mxGeometry relative="1" as="geometry">
            <mxPoint x="740" y="1509" as="sourcePoint" />
            <mxPoint x="626" y="1509" as="targetPoint" />
          </mxGeometry>
        </mxCell>
        <mxCell id="YgcAfPfx9koRfK3tRKgy-49" value="Verified Income" style="shape=umlLifeline;perimeter=lifelinePerimeter;whiteSpace=wrap;html=1;container=0;dropTarget=0;collapsible=0;recursiveResize=0;outlineConnect=0;portConstraint=eastwest;newEdgeStyle={&quot;curved&quot;:0,&quot;rounded&quot;:0};" parent="1" vertex="1">
          <mxGeometry x="302" y="1150" width="110" height="440" as="geometry" />
        </mxCell>
        <mxCell id="YgcAfPfx9koRfK3tRKgy-52" value="return" style="html=1;verticalAlign=bottom;endArrow=open;dashed=1;endSize=8;curved=0;rounded=0;" parent="1" source="YgcAfPfx9koRfK3tRKgy-22" edge="1">
          <mxGeometry relative="1" as="geometry">
            <mxPoint x="389" y="1270" as="sourcePoint" />
            <mxPoint x="132" y="1270" as="targetPoint" />
          </mxGeometry>
        </mxCell>
        <mxCell id="YgcAfPfx9koRfK3tRKgy-53" value="Save&lt;div&gt;Employment&lt;/div&gt;" style="html=1;verticalAlign=bottom;endArrow=block;curved=0;rounded=0;" parent="1" edge="1">
          <mxGeometry width="80" relative="1" as="geometry">
            <mxPoint x="131" y="1310" as="sourcePoint" />
            <mxPoint x="226" y="1310" as="targetPoint" />
          </mxGeometry>
        </mxCell>
        <mxCell id="YgcAfPfx9koRfK3tRKgy-54" value="SaveEmployment" style="html=1;verticalAlign=bottom;endArrow=block;curved=0;rounded=0;" parent="1" edge="1">
          <mxGeometry width="80" relative="1" as="geometry">
            <mxPoint x="232" y="1310" as="sourcePoint" />
            <mxPoint x="356" y="1310" as="targetPoint" />
          </mxGeometry>
        </mxCell>
        <mxCell id="YgcAfPfx9koRfK3tRKgy-55" value="return" style="html=1;verticalAlign=bottom;endArrow=open;dashed=1;endSize=8;curved=0;rounded=0;" parent="1" edge="1">
          <mxGeometry relative="1" as="geometry">
            <mxPoint x="226" y="1350" as="sourcePoint" />
            <mxPoint x="131" y="1350" as="targetPoint" />
          </mxGeometry>
        </mxCell>
        <mxCell id="YgcAfPfx9koRfK3tRKgy-56" value="return" style="html=1;verticalAlign=bottom;endArrow=open;dashed=1;endSize=8;curved=0;rounded=0;" parent="1" source="YgcAfPfx9koRfK3tRKgy-49" edge="1">
          <mxGeometry relative="1" as="geometry">
            <mxPoint x="317" y="1350" as="sourcePoint" />
            <mxPoint x="222" y="1350" as="targetPoint" />
          </mxGeometry>
        </mxCell>
        <mxCell id="YgcAfPfx9koRfK3tRKgy-57" value="SaveIncome" style="html=1;verticalAlign=bottom;endArrow=block;curved=0;rounded=0;" parent="1" edge="1">
          <mxGeometry width="80" relative="1" as="geometry">
            <mxPoint x="131" y="1388" as="sourcePoint" />
            <mxPoint x="226" y="1388" as="targetPoint" />
          </mxGeometry>
        </mxCell>
        <mxCell id="YgcAfPfx9koRfK3tRKgy-58" value="SaveIncome" style="html=1;verticalAlign=bottom;endArrow=block;curved=0;rounded=0;" parent="1" edge="1">
          <mxGeometry width="80" relative="1" as="geometry">
            <mxPoint x="226" y="1388" as="sourcePoint" />
            <mxPoint x="356" y="1388" as="targetPoint" />
          </mxGeometry>
        </mxCell>
        <mxCell id="YgcAfPfx9koRfK3tRKgy-59" value="return" style="html=1;verticalAlign=bottom;endArrow=open;dashed=1;endSize=8;curved=0;rounded=0;" parent="1" edge="1">
          <mxGeometry relative="1" as="geometry">
            <mxPoint x="226" y="1428" as="sourcePoint" />
            <mxPoint x="131" y="1428" as="targetPoint" />
          </mxGeometry>
        </mxCell>
        <mxCell id="YgcAfPfx9koRfK3tRKgy-60" value="return" style="html=1;verticalAlign=bottom;endArrow=open;dashed=1;endSize=8;curved=0;rounded=0;" parent="1" edge="1">
          <mxGeometry relative="1" as="geometry">
            <mxPoint x="357" y="1429" as="sourcePoint" />
            <mxPoint x="222" y="1429" as="targetPoint" />
          </mxGeometry>
        </mxCell>
        <mxCell id="YgcAfPfx9koRfK3tRKgy-61" value="SaveExpenses" style="html=1;verticalAlign=bottom;endArrow=block;curved=0;rounded=0;" parent="1" edge="1">
          <mxGeometry width="80" relative="1" as="geometry">
            <mxPoint x="134" y="1470" as="sourcePoint" />
            <mxPoint x="229" y="1470" as="targetPoint" />
          </mxGeometry>
        </mxCell>
        <mxCell id="YgcAfPfx9koRfK3tRKgy-62" value="return" style="html=1;verticalAlign=bottom;endArrow=open;dashed=1;endSize=8;curved=0;rounded=0;" parent="1" edge="1">
          <mxGeometry relative="1" as="geometry">
            <mxPoint x="229" y="1510" as="sourcePoint" />
            <mxPoint x="134" y="1510" as="targetPoint" />
          </mxGeometry>
        </mxCell>
        <mxCell id="YgcAfPfx9koRfK3tRKgy-63" value="return" style="html=1;verticalAlign=bottom;endArrow=open;dashed=1;endSize=8;curved=0;rounded=0;" parent="1" source="YgcAfPfx9koRfK3tRKgy-28" edge="1">
          <mxGeometry relative="1" as="geometry">
            <mxPoint x="485.5" y="1509" as="sourcePoint" />
            <mxPoint x="225" y="1509" as="targetPoint" />
          </mxGeometry>
        </mxCell>
        <mxCell id="YgcAfPfx9koRfK3tRKgy-64" value="Manual&amp;nbsp;" style="triangle;whiteSpace=wrap;html=1;container=0;" parent="1" vertex="1">
          <mxGeometry x="82" y="1270" width="60" height="80" as="geometry" />
        </mxCell>
        <mxCell id="YgcAfPfx9koRfK3tRKgy-65" value="Manual&amp;nbsp;" style="triangle;whiteSpace=wrap;html=1;container=0;" parent="1" vertex="1">
          <mxGeometry x="80" y="1348" width="60" height="80" as="geometry" />
        </mxCell>
        <mxCell id="YgcAfPfx9koRfK3tRKgy-6" value="" style="html=1;points=[[0,0,0,0,5],[0,1,0,0,-5],[1,0,0,0,5],[1,1,0,0,-5]];perimeter=orthogonalPerimeter;outlineConnect=0;targetShapes=umlLifeline;portConstraint=eastwest;newEdgeStyle={&quot;curved&quot;:0,&quot;rounded&quot;:0};container=0;" parent="1" vertex="1">
          <mxGeometry x="352" y="1310" width="10" height="40" as="geometry" />
        </mxCell>
        <mxCell id="YgcAfPfx9koRfK3tRKgy-7" value="" style="html=1;points=[[0,0,0,0,5],[0,1,0,0,-5],[1,0,0,0,5],[1,1,0,0,-5]];perimeter=orthogonalPerimeter;outlineConnect=0;targetShapes=umlLifeline;portConstraint=eastwest;newEdgeStyle={&quot;curved&quot;:0,&quot;rounded&quot;:0};container=0;" parent="1" vertex="1">
          <mxGeometry x="352" y="1390" width="10" height="40" as="geometry" />
        </mxCell>
        <mxCell id="YgcAfPfx9koRfK3tRKgy-8" value="saveCustomerInfo" style="html=1;verticalAlign=bottom;endArrow=block;curved=0;rounded=0;" parent="1" target="YgcAfPfx9koRfK3tRKgy-28" edge="1">
          <mxGeometry width="80" relative="1" as="geometry">
            <mxPoint x="359" y="1390" as="sourcePoint" />
            <mxPoint x="492" y="1390" as="targetPoint" />
          </mxGeometry>
        </mxCell>
        <mxCell id="YgcAfPfx9koRfK3tRKgy-24" value="" style="html=1;points=[[0,0,0,0,5],[0,1,0,0,-5],[1,0,0,0,5],[1,1,0,0,-5]];perimeter=orthogonalPerimeter;outlineConnect=0;targetShapes=umlLifeline;portConstraint=eastwest;newEdgeStyle={&quot;curved&quot;:0,&quot;rounded&quot;:0};container=0;" parent="1" vertex="1">
          <mxGeometry x="730" y="1230" width="10" height="40" as="geometry" />
        </mxCell>
        <mxCell id="YgcAfPfx9koRfK3tRKgy-25" value="" style="html=1;points=[[0,0,0,0,5],[0,1,0,0,-5],[1,0,0,0,5],[1,1,0,0,-5]];perimeter=orthogonalPerimeter;outlineConnect=0;targetShapes=umlLifeline;portConstraint=eastwest;newEdgeStyle={&quot;curved&quot;:0,&quot;rounded&quot;:0};container=0;" parent="1" vertex="1">
          <mxGeometry x="730" y="1310" width="10" height="40" as="geometry" />
        </mxCell>
        <mxCell id="YgcAfPfx9koRfK3tRKgy-29" value="" style="html=1;points=[[0,0,0,0,5],[0,1,0,0,-5],[1,0,0,0,5],[1,1,0,0,-5]];perimeter=orthogonalPerimeter;outlineConnect=0;targetShapes=umlLifeline;portConstraint=eastwest;newEdgeStyle={&quot;curved&quot;:0,&quot;rounded&quot;:0};container=0;" parent="1" vertex="1">
          <mxGeometry x="617" y="1230" width="10" height="40" as="geometry" />
        </mxCell>
        <mxCell id="YgcAfPfx9koRfK3tRKgy-30" value="" style="html=1;points=[[0,0,0,0,5],[0,1,0,0,-5],[1,0,0,0,5],[1,1,0,0,-5]];perimeter=orthogonalPerimeter;outlineConnect=0;targetShapes=umlLifeline;portConstraint=eastwest;newEdgeStyle={&quot;curved&quot;:0,&quot;rounded&quot;:0};container=0;" parent="1" vertex="1">
          <mxGeometry x="617" y="1310" width="10" height="40" as="geometry" />
        </mxCell>
        <mxCell id="YgcAfPfx9koRfK3tRKgy-50" value="" style="html=1;points=[[0,0,0,0,5],[0,1,0,0,-5],[1,0,0,0,5],[1,1,0,0,-5]];perimeter=orthogonalPerimeter;outlineConnect=0;targetShapes=umlLifeline;portConstraint=eastwest;newEdgeStyle={&quot;curved&quot;:0,&quot;rounded&quot;:0};container=0;" parent="1" vertex="1">
          <mxGeometry x="352" y="1310" width="10" height="40" as="geometry" />
        </mxCell>
        <mxCell id="YgcAfPfx9koRfK3tRKgy-51" value="" style="html=1;points=[[0,0,0,0,5],[0,1,0,0,-5],[1,0,0,0,5],[1,1,0,0,-5]];perimeter=orthogonalPerimeter;outlineConnect=0;targetShapes=umlLifeline;portConstraint=eastwest;newEdgeStyle={&quot;curved&quot;:0,&quot;rounded&quot;:0};container=0;" parent="1" vertex="1">
          <mxGeometry x="352" y="1390" width="10" height="40" as="geometry" />
        </mxCell>
        <mxCell id="wy48QXKM6tLczcKT8bCk-81" value="save manual inputs : CRM F004" style="text;html=1;align=center;verticalAlign=middle;whiteSpace=wrap;rounded=0;fontStyle=1;fontSize=15;" vertex="1" parent="1">
          <mxGeometry x="120" y="1110" width="300" height="30" as="geometry" />
        </mxCell>
      </root>
    </mxGraphModel>
  </diagram>
  <diagram id="817VrQdNO1LvL2hYphEw" name="Quality">
    <mxGraphModel grid="1" page="1" gridSize="10" guides="1" tooltips="1" connect="1" arrows="1" fold="1" pageScale="1" pageWidth="827" pageHeight="1169" math="0" shadow="0">
      <root>
        <mxCell id="0" />
        <mxCell id="1" parent="0" />
        <mxCell id="S46IijBpJiwQeYEGcodF-1" value="failed&amp;nbsp;" style="shape=umlFrame;whiteSpace=wrap;html=1;width=80;height=20;fillColor=#f8cecc;strokeColor=#b85450;" vertex="1" parent="1">
          <mxGeometry x="550" y="600" width="910" height="170" as="geometry" />
        </mxCell>
        <mxCell id="S46IijBpJiwQeYEGcodF-2" value="rule success&amp;nbsp;" style="shape=umlFrame;whiteSpace=wrap;html=1;width=80;height=20;fillColor=#d5e8d4;strokeColor=#82b366;" vertex="1" parent="1">
          <mxGeometry x="550" y="380" width="910" height="220" as="geometry" />
        </mxCell>
        <mxCell id="S46IijBpJiwQeYEGcodF-3" value="work Flow engine&amp;nbsp;" style="shape=umlLifeline;perimeter=lifelinePerimeter;whiteSpace=wrap;html=1;container=0;dropTarget=0;collapsible=0;recursiveResize=0;outlineConnect=0;portConstraint=eastwest;newEdgeStyle={&quot;edgeStyle&quot;:&quot;elbowEdgeStyle&quot;,&quot;elbow&quot;:&quot;vertical&quot;,&quot;curved&quot;:0,&quot;rounded&quot;:0};" vertex="1" parent="1">
          <mxGeometry x="80" y="150" width="110" height="880" as="geometry" />
        </mxCell>
        <mxCell id="S46IijBpJiwQeYEGcodF-4" value="capture Stage&amp;nbsp;" style="html=1;points=[];perimeter=orthogonalPerimeter;outlineConnect=0;targetShapes=umlLifeline;portConstraint=eastwest;newEdgeStyle={&quot;edgeStyle&quot;:&quot;elbowEdgeStyle&quot;,&quot;elbow&quot;:&quot;vertical&quot;,&quot;curved&quot;:0,&quot;rounded&quot;:0};" vertex="1" parent="S46IijBpJiwQeYEGcodF-3">
          <mxGeometry x="15" y="60" width="80" height="40" as="geometry" />
        </mxCell>
        <mxCell id="S46IijBpJiwQeYEGcodF-5" value="action Stage&amp;nbsp;" style="html=1;points=[];perimeter=orthogonalPerimeter;outlineConnect=0;targetShapes=umlLifeline;portConstraint=eastwest;newEdgeStyle={&quot;edgeStyle&quot;:&quot;elbowEdgeStyle&quot;,&quot;elbow&quot;:&quot;vertical&quot;,&quot;curved&quot;:0,&quot;rounded&quot;:0};" vertex="1" parent="S46IijBpJiwQeYEGcodF-3">
          <mxGeometry x="15" y="700" width="80" height="40" as="geometry" />
        </mxCell>
        <mxCell id="S46IijBpJiwQeYEGcodF-6" value="" style="endArrow=classic;html=1;rounded=0;" edge="1" parent="S46IijBpJiwQeYEGcodF-3" source="S46IijBpJiwQeYEGcodF-4" target="S46IijBpJiwQeYEGcodF-5">
          <mxGeometry width="50" height="50" relative="1" as="geometry">
            <mxPoint x="-50" y="260" as="sourcePoint" />
            <mxPoint y="210" as="targetPoint" />
          </mxGeometry>
        </mxCell>
        <mxCell id="S46IijBpJiwQeYEGcodF-7" value="KafKa&amp;nbsp;" style="shape=umlLifeline;perimeter=lifelinePerimeter;whiteSpace=wrap;html=1;container=0;dropTarget=0;collapsible=0;recursiveResize=0;outlineConnect=0;portConstraint=eastwest;newEdgeStyle={&quot;edgeStyle&quot;:&quot;elbowEdgeStyle&quot;,&quot;elbow&quot;:&quot;vertical&quot;,&quot;curved&quot;:0,&quot;rounded&quot;:0};" vertex="1" parent="1">
          <mxGeometry x="360" y="150" width="100" height="620" as="geometry" />
        </mxCell>
        <mxCell id="S46IijBpJiwQeYEGcodF-8" value="" style="html=1;points=[];perimeter=orthogonalPerimeter;outlineConnect=0;targetShapes=umlLifeline;portConstraint=eastwest;newEdgeStyle={&quot;edgeStyle&quot;:&quot;elbowEdgeStyle&quot;,&quot;elbow&quot;:&quot;vertical&quot;,&quot;curved&quot;:0,&quot;rounded&quot;:0};" vertex="1" parent="S46IijBpJiwQeYEGcodF-7">
          <mxGeometry x="45" y="80" width="10" height="80" as="geometry" />
        </mxCell>
        <mxCell id="S46IijBpJiwQeYEGcodF-9" value="" style="html=1;points=[];perimeter=orthogonalPerimeter;outlineConnect=0;targetShapes=umlLifeline;portConstraint=eastwest;newEdgeStyle={&quot;edgeStyle&quot;:&quot;elbowEdgeStyle&quot;,&quot;elbow&quot;:&quot;vertical&quot;,&quot;curved&quot;:0,&quot;rounded&quot;:0};" vertex="1" parent="S46IijBpJiwQeYEGcodF-7">
          <mxGeometry x="45" y="480" width="10" height="80" as="geometry" />
        </mxCell>
        <mxCell id="S46IijBpJiwQeYEGcodF-10" value="Quality (BL)" style="shape=umlLifeline;perimeter=lifelinePerimeter;whiteSpace=wrap;html=1;container=0;dropTarget=0;collapsible=0;recursiveResize=0;outlineConnect=0;portConstraint=eastwest;newEdgeStyle={&quot;edgeStyle&quot;:&quot;elbowEdgeStyle&quot;,&quot;elbow&quot;:&quot;vertical&quot;,&quot;curved&quot;:0,&quot;rounded&quot;:0};" vertex="1" parent="1">
          <mxGeometry x="550" y="150" width="100" height="820" as="geometry" />
        </mxCell>
        <mxCell id="S46IijBpJiwQeYEGcodF-11" value="" style="html=1;points=[];perimeter=orthogonalPerimeter;outlineConnect=0;targetShapes=umlLifeline;portConstraint=eastwest;newEdgeStyle={&quot;edgeStyle&quot;:&quot;elbowEdgeStyle&quot;,&quot;elbow&quot;:&quot;vertical&quot;,&quot;curved&quot;:0,&quot;rounded&quot;:0};" vertex="1" parent="S46IijBpJiwQeYEGcodF-10">
          <mxGeometry x="45" y="60" width="10" height="370" as="geometry" />
        </mxCell>
        <mxCell id="S46IijBpJiwQeYEGcodF-12" value="" style="html=1;points=[];perimeter=orthogonalPerimeter;outlineConnect=0;targetShapes=umlLifeline;portConstraint=eastwest;newEdgeStyle={&quot;edgeStyle&quot;:&quot;elbowEdgeStyle&quot;,&quot;elbow&quot;:&quot;vertical&quot;,&quot;curved&quot;:0,&quot;rounded&quot;:0};" vertex="1" parent="S46IijBpJiwQeYEGcodF-10">
          <mxGeometry x="45" y="490" width="10" height="80" as="geometry" />
        </mxCell>
        <mxCell id="S46IijBpJiwQeYEGcodF-13" value="adapters&amp;nbsp;" style="shape=umlLifeline;perimeter=lifelinePerimeter;whiteSpace=wrap;html=1;container=0;dropTarget=0;collapsible=0;recursiveResize=0;outlineConnect=0;portConstraint=eastwest;newEdgeStyle={&quot;edgeStyle&quot;:&quot;elbowEdgeStyle&quot;,&quot;elbow&quot;:&quot;vertical&quot;,&quot;curved&quot;:0,&quot;rounded&quot;:0};" vertex="1" parent="1">
          <mxGeometry x="800" y="150" width="100" height="380" as="geometry" />
        </mxCell>
        <mxCell id="S46IijBpJiwQeYEGcodF-14" value="" style="html=1;points=[];perimeter=orthogonalPerimeter;outlineConnect=0;targetShapes=umlLifeline;portConstraint=eastwest;newEdgeStyle={&quot;edgeStyle&quot;:&quot;elbowEdgeStyle&quot;,&quot;elbow&quot;:&quot;vertical&quot;,&quot;curved&quot;:0,&quot;rounded&quot;:0};" vertex="1" parent="S46IijBpJiwQeYEGcodF-13">
          <mxGeometry x="45" y="60" width="10" height="160" as="geometry" />
        </mxCell>
        <mxCell id="S46IijBpJiwQeYEGcodF-15" value="CORE" style="shape=umlLifeline;perimeter=lifelinePerimeter;whiteSpace=wrap;html=1;container=0;dropTarget=0;collapsible=0;recursiveResize=0;outlineConnect=0;portConstraint=eastwest;newEdgeStyle={&quot;edgeStyle&quot;:&quot;elbowEdgeStyle&quot;,&quot;elbow&quot;:&quot;vertical&quot;,&quot;curved&quot;:0,&quot;rounded&quot;:0};" vertex="1" parent="1">
          <mxGeometry x="940" y="150" width="100" height="380" as="geometry" />
        </mxCell>
        <mxCell id="S46IijBpJiwQeYEGcodF-16" value="" style="html=1;points=[];perimeter=orthogonalPerimeter;outlineConnect=0;targetShapes=umlLifeline;portConstraint=eastwest;newEdgeStyle={&quot;edgeStyle&quot;:&quot;elbowEdgeStyle&quot;,&quot;elbow&quot;:&quot;vertical&quot;,&quot;curved&quot;:0,&quot;rounded&quot;:0};" vertex="1" parent="S46IijBpJiwQeYEGcodF-15">
          <mxGeometry x="45" y="100" width="10" height="60" as="geometry" />
        </mxCell>
        <mxCell id="S46IijBpJiwQeYEGcodF-17" value="" style="edgeStyle=elbowEdgeStyle;rounded=0;orthogonalLoop=1;jettySize=auto;html=1;elbow=vertical;curved=0;" edge="1" parent="1" target="S46IijBpJiwQeYEGcodF-5">
          <mxGeometry relative="1" as="geometry">
            <mxPoint x="135" y="312" as="sourcePoint" />
            <mxPoint x="309.5" y="312" as="targetPoint" />
          </mxGeometry>
        </mxCell>
        <mxCell id="S46IijBpJiwQeYEGcodF-18" style="edgeStyle=orthogonalEdgeStyle;rounded=0;orthogonalLoop=1;jettySize=auto;html=1;" edge="1" parent="1" source="S46IijBpJiwQeYEGcodF-20" target="S46IijBpJiwQeYEGcodF-7">
          <mxGeometry relative="1" as="geometry">
            <Array as="points">
              <mxPoint x="270" y="270" />
              <mxPoint x="270" y="270" />
            </Array>
          </mxGeometry>
        </mxCell>
        <mxCell id="S46IijBpJiwQeYEGcodF-19" value="produce event(stage , keysDTO)" style="edgeLabel;html=1;align=center;verticalAlign=middle;resizable=0;points=[];" vertex="1" connectable="0" parent="S46IijBpJiwQeYEGcodF-18">
          <mxGeometry x="-0.2388" y="-2" relative="1" as="geometry">
            <mxPoint y="-16" as="offset" />
          </mxGeometry>
        </mxCell>
        <mxCell id="S46IijBpJiwQeYEGcodF-20" value="Move&amp;nbsp;" style="text;html=1;align=center;verticalAlign=middle;whiteSpace=wrap;rounded=0;fillColor=#fff2cc;strokeColor=#d6b656;" vertex="1" parent="1">
          <mxGeometry x="105" y="255" width="60" height="30" as="geometry" />
        </mxCell>
        <mxCell id="S46IijBpJiwQeYEGcodF-21" style="edgeStyle=elbowEdgeStyle;rounded=0;orthogonalLoop=1;jettySize=auto;html=1;elbow=vertical;curved=0;" edge="1" parent="1" source="S46IijBpJiwQeYEGcodF-11" target="S46IijBpJiwQeYEGcodF-7">
          <mxGeometry relative="1" as="geometry">
            <Array as="points">
              <mxPoint x="540" y="250" />
            </Array>
          </mxGeometry>
        </mxCell>
        <mxCell id="S46IijBpJiwQeYEGcodF-22" value="Listner&amp;nbsp;" style="edgeLabel;html=1;align=center;verticalAlign=middle;resizable=0;points=[];" vertex="1" connectable="0" parent="S46IijBpJiwQeYEGcodF-21">
          <mxGeometry x="0.035" y="-2" relative="1" as="geometry">
            <mxPoint as="offset" />
          </mxGeometry>
        </mxCell>
        <mxCell id="S46IijBpJiwQeYEGcodF-23" style="edgeStyle=elbowEdgeStyle;rounded=0;orthogonalLoop=1;jettySize=auto;html=1;elbow=vertical;curved=0;" edge="1" parent="1">
          <mxGeometry relative="1" as="geometry">
            <mxPoint x="605" y="271" as="sourcePoint" />
            <mxPoint x="849.5" y="271" as="targetPoint" />
          </mxGeometry>
        </mxCell>
        <mxCell id="S46IijBpJiwQeYEGcodF-24" value="get payload&amp;nbsp;" style="edgeLabel;html=1;align=center;verticalAlign=middle;resizable=0;points=[];" vertex="1" connectable="0" parent="S46IijBpJiwQeYEGcodF-23">
          <mxGeometry x="-0.2147" y="-3" relative="1" as="geometry">
            <mxPoint x="9" y="-14" as="offset" />
          </mxGeometry>
        </mxCell>
        <mxCell id="S46IijBpJiwQeYEGcodF-25" value="CRM" style="shape=umlLifeline;perimeter=lifelinePerimeter;whiteSpace=wrap;html=1;container=0;dropTarget=0;collapsible=0;recursiveResize=0;outlineConnect=0;portConstraint=eastwest;newEdgeStyle={&quot;edgeStyle&quot;:&quot;elbowEdgeStyle&quot;,&quot;elbow&quot;:&quot;vertical&quot;,&quot;curved&quot;:0,&quot;rounded&quot;:0};" vertex="1" parent="1">
          <mxGeometry x="1080" y="150" width="100" height="390" as="geometry" />
        </mxCell>
        <mxCell id="S46IijBpJiwQeYEGcodF-26" value="" style="html=1;points=[];perimeter=orthogonalPerimeter;outlineConnect=0;targetShapes=umlLifeline;portConstraint=eastwest;newEdgeStyle={&quot;edgeStyle&quot;:&quot;elbowEdgeStyle&quot;,&quot;elbow&quot;:&quot;vertical&quot;,&quot;curved&quot;:0,&quot;rounded&quot;:0};" vertex="1" parent="S46IijBpJiwQeYEGcodF-25">
          <mxGeometry x="45" y="150" width="10" height="50" as="geometry" />
        </mxCell>
        <mxCell id="S46IijBpJiwQeYEGcodF-27" style="edgeStyle=elbowEdgeStyle;rounded=0;orthogonalLoop=1;jettySize=auto;html=1;elbow=vertical;curved=0;" edge="1" parent="1" source="S46IijBpJiwQeYEGcodF-14" target="S46IijBpJiwQeYEGcodF-15">
          <mxGeometry relative="1" as="geometry" />
        </mxCell>
        <mxCell id="S46IijBpJiwQeYEGcodF-28" value="" style="edgeStyle=elbowEdgeStyle;rounded=0;orthogonalLoop=1;jettySize=auto;html=1;elbow=vertical;curved=0;" edge="1" parent="1" source="S46IijBpJiwQeYEGcodF-31" target="S46IijBpJiwQeYEGcodF-25">
          <mxGeometry relative="1" as="geometry">
            <mxPoint x="855" y="325" as="sourcePoint" />
            <mxPoint x="1219.5" y="325" as="targetPoint" />
          </mxGeometry>
        </mxCell>
        <mxCell id="S46IijBpJiwQeYEGcodF-29" value="conditional&amp;nbsp;" style="shape=umlFrame;whiteSpace=wrap;html=1;width=60;height=20;fillColor=#d5e8d4;strokeColor=#82b366;" vertex="1" parent="1">
          <mxGeometry x="800" y="250" width="240" height="50" as="geometry" />
        </mxCell>
        <mxCell id="S46IijBpJiwQeYEGcodF-30" value="" style="edgeStyle=elbowEdgeStyle;rounded=0;orthogonalLoop=1;jettySize=auto;html=1;elbow=vertical;curved=0;" edge="1" parent="1" target="S46IijBpJiwQeYEGcodF-25">
          <mxGeometry relative="1" as="geometry">
            <mxPoint x="855" y="325" as="sourcePoint" />
            <mxPoint x="1220" y="325" as="targetPoint" />
          </mxGeometry>
        </mxCell>
        <mxCell id="S46IijBpJiwQeYEGcodF-31" value="conditional&amp;nbsp;" style="shape=umlFrame;whiteSpace=wrap;html=1;width=80;height=15;fillColor=#d5e8d4;strokeColor=#82b366;" vertex="1" parent="1">
          <mxGeometry x="790" y="310" width="440" height="40" as="geometry" />
        </mxCell>
        <mxCell id="S46IijBpJiwQeYEGcodF-32" value="rule engine&amp;nbsp;" style="shape=umlLifeline;perimeter=lifelinePerimeter;whiteSpace=wrap;html=1;container=0;dropTarget=0;collapsible=0;recursiveResize=0;outlineConnect=0;portConstraint=eastwest;newEdgeStyle={&quot;edgeStyle&quot;:&quot;elbowEdgeStyle&quot;,&quot;elbow&quot;:&quot;vertical&quot;,&quot;curved&quot;:0,&quot;rounded&quot;:0};" vertex="1" parent="1">
          <mxGeometry x="1240" y="150" width="100" height="460" as="geometry" />
        </mxCell>
        <mxCell id="S46IijBpJiwQeYEGcodF-33" value="" style="html=1;points=[];perimeter=orthogonalPerimeter;outlineConnect=0;targetShapes=umlLifeline;portConstraint=eastwest;newEdgeStyle={&quot;edgeStyle&quot;:&quot;elbowEdgeStyle&quot;,&quot;elbow&quot;:&quot;vertical&quot;,&quot;curved&quot;:0,&quot;rounded&quot;:0};" vertex="1" parent="S46IijBpJiwQeYEGcodF-32">
          <mxGeometry x="45" y="210" width="10" height="100" as="geometry" />
        </mxCell>
        <mxCell id="S46IijBpJiwQeYEGcodF-34" style="rounded=0;orthogonalLoop=1;jettySize=auto;html=1;elbow=vertical;" edge="1" parent="1">
          <mxGeometry relative="1" as="geometry">
            <mxPoint x="605" y="406" as="sourcePoint" />
            <mxPoint x="1289.5" y="406" as="targetPoint" />
          </mxGeometry>
        </mxCell>
        <mxCell id="S46IijBpJiwQeYEGcodF-35" value="Apply Ruls (rule set , policy)" style="edgeLabel;html=1;align=center;verticalAlign=middle;resizable=0;points=[];" vertex="1" connectable="0" parent="S46IijBpJiwQeYEGcodF-34">
          <mxGeometry x="-0.1351" y="2" relative="1" as="geometry">
            <mxPoint x="1" as="offset" />
          </mxGeometry>
        </mxCell>
        <mxCell id="S46IijBpJiwQeYEGcodF-36" value="Decision Maker" style="shape=umlLifeline;perimeter=lifelinePerimeter;whiteSpace=wrap;html=1;container=0;dropTarget=0;collapsible=0;recursiveResize=0;outlineConnect=0;portConstraint=eastwest;newEdgeStyle={&quot;edgeStyle&quot;:&quot;elbowEdgeStyle&quot;,&quot;elbow&quot;:&quot;vertical&quot;,&quot;curved&quot;:0,&quot;rounded&quot;:0};" vertex="1" parent="1">
          <mxGeometry x="1400" y="150" width="100" height="1060" as="geometry" />
        </mxCell>
        <mxCell id="S46IijBpJiwQeYEGcodF-37" value="" style="html=1;points=[];perimeter=orthogonalPerimeter;outlineConnect=0;targetShapes=umlLifeline;portConstraint=eastwest;newEdgeStyle={&quot;edgeStyle&quot;:&quot;elbowEdgeStyle&quot;,&quot;elbow&quot;:&quot;vertical&quot;,&quot;curved&quot;:0,&quot;rounded&quot;:0};" vertex="1" parent="S46IijBpJiwQeYEGcodF-36">
          <mxGeometry x="45" y="320" width="10" height="70" as="geometry" />
        </mxCell>
        <mxCell id="S46IijBpJiwQeYEGcodF-38" value="" style="html=1;points=[];perimeter=orthogonalPerimeter;outlineConnect=0;targetShapes=umlLifeline;portConstraint=eastwest;newEdgeStyle={&quot;edgeStyle&quot;:&quot;elbowEdgeStyle&quot;,&quot;elbow&quot;:&quot;vertical&quot;,&quot;curved&quot;:0,&quot;rounded&quot;:0};" vertex="1" parent="S46IijBpJiwQeYEGcodF-36">
          <mxGeometry x="45" y="680" width="10" height="70" as="geometry" />
        </mxCell>
        <mxCell id="S46IijBpJiwQeYEGcodF-39" style="edgeStyle=elbowEdgeStyle;rounded=0;orthogonalLoop=1;jettySize=auto;html=1;elbow=vertical;curved=0;" edge="1" parent="1" source="S46IijBpJiwQeYEGcodF-11" target="S46IijBpJiwQeYEGcodF-37">
          <mxGeometry relative="1" as="geometry" />
        </mxCell>
        <mxCell id="S46IijBpJiwQeYEGcodF-40" value="do decision (rule set result )" style="edgeLabel;html=1;align=center;verticalAlign=middle;resizable=0;points=[];" vertex="1" connectable="0" parent="S46IijBpJiwQeYEGcodF-39">
          <mxGeometry x="-0.1929" y="2" relative="1" as="geometry">
            <mxPoint as="offset" />
          </mxGeometry>
        </mxCell>
        <mxCell id="S46IijBpJiwQeYEGcodF-41" style="edgeStyle=elbowEdgeStyle;rounded=0;orthogonalLoop=1;jettySize=auto;html=1;elbow=vertical;curved=0;" edge="1" parent="1">
          <mxGeometry relative="1" as="geometry">
            <mxPoint x="1285" y="428" as="sourcePoint" />
            <mxPoint x="599.5" y="428" as="targetPoint" />
          </mxGeometry>
        </mxCell>
        <mxCell id="S46IijBpJiwQeYEGcodF-42" value="rule set result" style="edgeLabel;html=1;align=center;verticalAlign=middle;resizable=0;points=[];" vertex="1" connectable="0" parent="S46IijBpJiwQeYEGcodF-41">
          <mxGeometry x="0.0999" relative="1" as="geometry">
            <mxPoint as="offset" />
          </mxGeometry>
        </mxCell>
        <mxCell id="S46IijBpJiwQeYEGcodF-43" value="persits data&amp;nbsp;" style="text;html=1;align=center;verticalAlign=middle;whiteSpace=wrap;rounded=0;" vertex="1" parent="1">
          <mxGeometry x="530" y="275" width="90" height="30" as="geometry" />
        </mxCell>
        <mxCell id="S46IijBpJiwQeYEGcodF-44" value="" style="shape=cylinder3;whiteSpace=wrap;html=1;boundedLbl=1;backgroundOutline=1;size=9;" vertex="1" parent="1">
          <mxGeometry x="700" y="275" width="60" height="50" as="geometry" />
        </mxCell>
        <mxCell id="S46IijBpJiwQeYEGcodF-45" style="edgeStyle=orthogonalEdgeStyle;rounded=0;orthogonalLoop=1;jettySize=auto;html=1;entryX=0;entryY=0.5;entryDx=0;entryDy=0;entryPerimeter=0;" edge="1" parent="1" source="S46IijBpJiwQeYEGcodF-43" target="S46IijBpJiwQeYEGcodF-44">
          <mxGeometry relative="1" as="geometry" />
        </mxCell>
        <mxCell id="S46IijBpJiwQeYEGcodF-46" value="" style="shape=cylinder3;whiteSpace=wrap;html=1;boundedLbl=1;backgroundOutline=1;size=9;" vertex="1" parent="1">
          <mxGeometry x="700" y="510" width="60" height="50" as="geometry" />
        </mxCell>
        <mxCell id="S46IijBpJiwQeYEGcodF-47" style="edgeStyle=orthogonalEdgeStyle;rounded=0;orthogonalLoop=1;jettySize=auto;html=1;" edge="1" parent="1" source="S46IijBpJiwQeYEGcodF-48" target="S46IijBpJiwQeYEGcodF-46">
          <mxGeometry relative="1" as="geometry" />
        </mxCell>
        <mxCell id="S46IijBpJiwQeYEGcodF-48" value="update data" style="text;html=1;align=center;verticalAlign=middle;whiteSpace=wrap;rounded=0;" vertex="1" parent="1">
          <mxGeometry x="555" y="520" width="90" height="30" as="geometry" />
        </mxCell>
        <mxCell id="S46IijBpJiwQeYEGcodF-49" style="edgeStyle=elbowEdgeStyle;rounded=0;orthogonalLoop=1;jettySize=auto;html=1;elbow=vertical;curved=0;" edge="1" parent="1">
          <mxGeometry relative="1" as="geometry">
            <mxPoint x="595" y="653" as="sourcePoint" />
            <mxPoint x="409.5" y="653" as="targetPoint" />
          </mxGeometry>
        </mxCell>
        <mxCell id="S46IijBpJiwQeYEGcodF-50" value="produce event&amp;nbsp;" style="edgeLabel;html=1;align=center;verticalAlign=middle;resizable=0;points=[];" vertex="1" connectable="0" parent="S46IijBpJiwQeYEGcodF-49">
          <mxGeometry x="0.2722" relative="1" as="geometry">
            <mxPoint x="5" y="-8" as="offset" />
          </mxGeometry>
        </mxCell>
        <mxCell id="S46IijBpJiwQeYEGcodF-51" value="within retry conter&amp;nbsp;" style="shape=umlFrame;whiteSpace=wrap;html=1;width=140;height=15;fillColor=#d5e8d4;strokeColor=#82b366;" vertex="1" parent="1">
          <mxGeometry x="350" y="620" width="520" height="70" as="geometry" />
        </mxCell>
        <mxCell id="S46IijBpJiwQeYEGcodF-52" style="edgeStyle=elbowEdgeStyle;rounded=0;orthogonalLoop=1;jettySize=auto;html=1;elbow=vertical;curved=0;" edge="1" parent="1" source="S46IijBpJiwQeYEGcodF-12" target="S46IijBpJiwQeYEGcodF-54">
          <mxGeometry relative="1" as="geometry" />
        </mxCell>
        <mxCell id="S46IijBpJiwQeYEGcodF-53" value="raise failer action&amp;nbsp;" style="edgeLabel;html=1;align=center;verticalAlign=middle;resizable=0;points=[];" vertex="1" connectable="0" parent="S46IijBpJiwQeYEGcodF-52">
          <mxGeometry x="-0.1515" y="-3" relative="1" as="geometry">
            <mxPoint as="offset" />
          </mxGeometry>
        </mxCell>
        <mxCell id="S46IijBpJiwQeYEGcodF-54" value="" style="shape=cylinder3;whiteSpace=wrap;html=1;boundedLbl=1;backgroundOutline=1;size=9;" vertex="1" parent="1">
          <mxGeometry x="770" y="700" width="60" height="50" as="geometry" />
        </mxCell>
        <mxCell id="S46IijBpJiwQeYEGcodF-55" value="out side retry conter&amp;nbsp;" style="shape=umlFrame;whiteSpace=wrap;html=1;width=140;height=15;fillColor=#d5e8d4;strokeColor=#82b366;" vertex="1" parent="1">
          <mxGeometry x="350" y="690" width="520" height="70" as="geometry" />
        </mxCell>
        <mxCell id="S46IijBpJiwQeYEGcodF-56" style="edgeStyle=elbowEdgeStyle;rounded=0;orthogonalLoop=1;jettySize=auto;html=1;elbow=vertical;curved=0;" edge="1" parent="1" source="S46IijBpJiwQeYEGcodF-5" target="S46IijBpJiwQeYEGcodF-36">
          <mxGeometry relative="1" as="geometry">
            <mxPoint x="1380" y="880" as="targetPoint" />
          </mxGeometry>
        </mxCell>
        <mxCell id="S46IijBpJiwQeYEGcodF-57" value="for refer app &amp;gt;&amp;gt; get status&amp;nbsp;" style="edgeLabel;html=1;align=center;verticalAlign=middle;resizable=0;points=[];" vertex="1" connectable="0" parent="S46IijBpJiwQeYEGcodF-56">
          <mxGeometry x="-0.2075" y="-1" relative="1" as="geometry">
            <mxPoint as="offset" />
          </mxGeometry>
        </mxCell>
        <mxCell id="SSrwQalCuhJ2lRnCW07m-1" value="" style="rounded=0;whiteSpace=wrap;html=1;fillColor=#f5f5f5;fontColor=#333333;strokeColor=#666666;" vertex="1" parent="1">
          <mxGeometry x="180" y="-710" width="1090" height="635" as="geometry" />
        </mxCell>
        <mxCell id="SSrwQalCuhJ2lRnCW07m-2" value="" style="group" connectable="0" vertex="1" parent="1">
          <mxGeometry x="270" y="-665" width="240" height="320" as="geometry" />
        </mxCell>
        <mxCell id="SSrwQalCuhJ2lRnCW07m-3" value="" style="rounded=1;whiteSpace=wrap;html=1;fillColor=#dae8fc;strokeColor=#6c8ebf;" vertex="1" parent="SSrwQalCuhJ2lRnCW07m-2">
          <mxGeometry x="-20" width="260" height="320" as="geometry" />
        </mxCell>
        <mxCell id="SSrwQalCuhJ2lRnCW07m-4" value="Stage A (capture )" style="rounded=1;whiteSpace=wrap;html=1;absoluteArcSize=1;arcSize=14;strokeWidth=2;fillColor=#ffe6cc;strokeColor=#d79b00;" vertex="1" parent="SSrwQalCuhJ2lRnCW07m-2">
          <mxGeometry x="50" y="28.235294117647058" width="140" height="56.470588235294116" as="geometry" />
        </mxCell>
        <mxCell id="SSrwQalCuhJ2lRnCW07m-5" value="Stage B (Action )" style="rounded=1;whiteSpace=wrap;html=1;absoluteArcSize=1;arcSize=14;strokeWidth=2;fillColor=#ffe6cc;strokeColor=#d79b00;" vertex="1" parent="SSrwQalCuhJ2lRnCW07m-2">
          <mxGeometry x="50" y="207.0588235294118" width="140" height="56.470588235294116" as="geometry" />
        </mxCell>
        <mxCell id="SSrwQalCuhJ2lRnCW07m-6" value="" style="edgeStyle=orthogonalEdgeStyle;rounded=0;orthogonalLoop=1;jettySize=auto;html=1;" edge="1" parent="SSrwQalCuhJ2lRnCW07m-2" source="SSrwQalCuhJ2lRnCW07m-4" target="SSrwQalCuhJ2lRnCW07m-5">
          <mxGeometry relative="1" as="geometry" />
        </mxCell>
        <mxCell id="SSrwQalCuhJ2lRnCW07m-7" value="Move to next stage&amp;nbsp;" style="edgeLabel;html=1;align=center;verticalAlign=middle;resizable=0;points=[];rotation=-90;" connectable="0" vertex="1" parent="SSrwQalCuhJ2lRnCW07m-6">
          <mxGeometry x="-0.1" y="-1" relative="1" as="geometry">
            <mxPoint x="-9" y="3" as="offset" />
          </mxGeometry>
        </mxCell>
        <mxCell id="SSrwQalCuhJ2lRnCW07m-8" value="Work Flow Engine&amp;nbsp;" style="text;html=1;align=center;verticalAlign=middle;whiteSpace=wrap;rounded=0;rotation=-90;fillColor=#f8cecc;strokeColor=#b85450;" vertex="1" parent="SSrwQalCuhJ2lRnCW07m-2">
          <mxGeometry x="-70" y="153.04347826086956" width="170" height="41.73913043478261" as="geometry" />
        </mxCell>
        <mxCell id="SSrwQalCuhJ2lRnCW07m-9" value="" style="edgeStyle=orthogonalEdgeStyle;rounded=0;orthogonalLoop=1;jettySize=auto;html=1;" edge="1" parent="1" source="SSrwQalCuhJ2lRnCW07m-10" target="SSrwQalCuhJ2lRnCW07m-11">
          <mxGeometry relative="1" as="geometry">
            <Array as="points">
              <mxPoint x="770" y="-614" />
              <mxPoint x="770" y="-614" />
            </Array>
          </mxGeometry>
        </mxCell>
        <mxCell id="SSrwQalCuhJ2lRnCW07m-10" value="QUALITY KAFKA" style="rounded=1;whiteSpace=wrap;html=1;absoluteArcSize=1;arcSize=14;strokeWidth=2;" vertex="1" parent="1">
          <mxGeometry x="560" y="-634.7058823529412" width="140" height="40.588235294117645" as="geometry" />
        </mxCell>
        <mxCell id="SSrwQalCuhJ2lRnCW07m-11" value="" style="whiteSpace=wrap;html=1;rounded=1;arcSize=14;strokeWidth=2;fillColor=#d5e8d4;strokeColor=#82b366;" vertex="1" parent="1">
          <mxGeometry x="790" y="-644.41" width="200" height="519.41" as="geometry" />
        </mxCell>
        <mxCell id="SSrwQalCuhJ2lRnCW07m-12" style="edgeStyle=orthogonalEdgeStyle;rounded=0;orthogonalLoop=1;jettySize=auto;html=1;" edge="1" parent="1" source="SSrwQalCuhJ2lRnCW07m-13">
          <mxGeometry relative="1" as="geometry">
            <mxPoint x="1060" y="-605" as="targetPoint" />
          </mxGeometry>
        </mxCell>
        <mxCell id="SSrwQalCuhJ2lRnCW07m-13" value="persist data&amp;nbsp;" style="text;html=1;align=center;verticalAlign=middle;whiteSpace=wrap;rounded=0;fillColor=#fff2cc;strokeColor=#d6b656;" vertex="1" parent="1">
          <mxGeometry x="820" y="-625" width="120" height="70" as="geometry" />
        </mxCell>
        <mxCell id="SSrwQalCuhJ2lRnCW07m-14" value="capture date&amp;nbsp;" style="text;html=1;align=center;verticalAlign=middle;whiteSpace=wrap;rounded=0;fillColor=#fff2cc;strokeColor=#d6b656;" vertex="1" parent="1">
          <mxGeometry x="820" y="-535" width="120" height="70" as="geometry" />
        </mxCell>
        <mxCell id="SSrwQalCuhJ2lRnCW07m-15" style="edgeStyle=orthogonalEdgeStyle;rounded=0;orthogonalLoop=1;jettySize=auto;html=1;" edge="1" parent="1" source="SSrwQalCuhJ2lRnCW07m-16">
          <mxGeometry relative="1" as="geometry">
            <mxPoint x="1030" y="-420" as="targetPoint" />
          </mxGeometry>
        </mxCell>
        <mxCell id="SSrwQalCuhJ2lRnCW07m-16" value="Apply Rule&amp;nbsp;" style="text;html=1;align=center;verticalAlign=middle;whiteSpace=wrap;rounded=0;fillColor=#fff2cc;strokeColor=#d6b656;" vertex="1" parent="1">
          <mxGeometry x="820" y="-455" width="120" height="70" as="geometry" />
        </mxCell>
        <mxCell id="SSrwQalCuhJ2lRnCW07m-17" value="&lt;font style=&quot;font-size: 18px;&quot;&gt;rule engine&amp;nbsp;&lt;/font&gt;" style="whiteSpace=wrap;html=1;rounded=1;arcSize=14;strokeWidth=2;fillColor=#dae8fc;strokeColor=#6c8ebf;" vertex="1" parent="1">
          <mxGeometry x="1045" y="-465" width="145" height="80" as="geometry" />
        </mxCell>
        <mxCell id="SSrwQalCuhJ2lRnCW07m-18" style="edgeStyle=orthogonalEdgeStyle;rounded=0;orthogonalLoop=1;jettySize=auto;html=1;entryX=0.002;entryY=0.612;entryDx=0;entryDy=0;entryPerimeter=0;" edge="1" parent="1" source="SSrwQalCuhJ2lRnCW07m-14" target="SSrwQalCuhJ2lRnCW07m-27">
          <mxGeometry relative="1" as="geometry" />
        </mxCell>
        <mxCell id="SSrwQalCuhJ2lRnCW07m-19" style="edgeStyle=orthogonalEdgeStyle;rounded=0;orthogonalLoop=1;jettySize=auto;html=1;" edge="1" parent="1" source="SSrwQalCuhJ2lRnCW07m-20">
          <mxGeometry relative="1" as="geometry">
            <mxPoint x="1040" y="-330" as="targetPoint" />
          </mxGeometry>
        </mxCell>
        <mxCell id="SSrwQalCuhJ2lRnCW07m-20" value="make decision&amp;nbsp;" style="text;html=1;align=center;verticalAlign=middle;whiteSpace=wrap;rounded=0;fillColor=#fff2cc;strokeColor=#d6b656;" vertex="1" parent="1">
          <mxGeometry x="820" y="-365" width="120" height="70" as="geometry" />
        </mxCell>
        <mxCell id="SSrwQalCuhJ2lRnCW07m-21" value="&lt;font style=&quot;font-size: 18px;&quot;&gt;Decision engine&amp;nbsp;&lt;/font&gt;" style="whiteSpace=wrap;html=1;rounded=1;arcSize=14;strokeWidth=2;fillColor=#dae8fc;strokeColor=#6c8ebf;" vertex="1" parent="1">
          <mxGeometry x="1045" y="-355" width="145" height="60" as="geometry" />
        </mxCell>
        <mxCell id="SSrwQalCuhJ2lRnCW07m-22" value="handle failer rety&amp;nbsp;" style="text;html=1;align=center;verticalAlign=middle;whiteSpace=wrap;rounded=0;fillColor=#fff2cc;strokeColor=#d6b656;" vertex="1" parent="1">
          <mxGeometry x="820" y="-275" width="120" height="60" as="geometry" />
        </mxCell>
        <mxCell id="SSrwQalCuhJ2lRnCW07m-23" style="edgeStyle=orthogonalEdgeStyle;rounded=0;orthogonalLoop=1;jettySize=auto;html=1;entryX=0.5;entryY=1;entryDx=0;entryDy=0;" edge="1" parent="1" source="SSrwQalCuhJ2lRnCW07m-24" target="SSrwQalCuhJ2lRnCW07m-21">
          <mxGeometry relative="1" as="geometry">
            <mxPoint x="1050" y="-175" as="targetPoint" />
          </mxGeometry>
        </mxCell>
        <mxCell id="SSrwQalCuhJ2lRnCW07m-24" value="get decision result" style="text;html=1;align=center;verticalAlign=middle;whiteSpace=wrap;rounded=0;fillColor=#fff2cc;strokeColor=#d6b656;" vertex="1" parent="1">
          <mxGeometry x="820" y="-205" width="120" height="60" as="geometry" />
        </mxCell>
        <mxCell id="SSrwQalCuhJ2lRnCW07m-25" style="edgeStyle=orthogonalEdgeStyle;rounded=0;orthogonalLoop=1;jettySize=auto;html=1;entryX=0;entryY=0.5;entryDx=0;entryDy=0;" edge="1" parent="1" source="SSrwQalCuhJ2lRnCW07m-5" target="SSrwQalCuhJ2lRnCW07m-24">
          <mxGeometry relative="1" as="geometry" />
        </mxCell>
        <mxCell id="SSrwQalCuhJ2lRnCW07m-26" value="" style="group;fillColor=#ffe6cc;strokeColor=#d79b00;" connectable="0" vertex="1" parent="1">
          <mxGeometry x="1040" y="-565" width="150" height="90" as="geometry" />
        </mxCell>
        <mxCell id="SSrwQalCuhJ2lRnCW07m-27" value="" style="whiteSpace=wrap;html=1;rounded=1;arcSize=14;strokeWidth=2;fillColor=#dae8fc;strokeColor=#6c8ebf;fontColor=#333333;" vertex="1" parent="SSrwQalCuhJ2lRnCW07m-26">
          <mxGeometry width="150" height="90" as="geometry" />
        </mxCell>
        <mxCell id="SSrwQalCuhJ2lRnCW07m-28" value="customer (API)" style="text;html=1;align=center;verticalAlign=middle;whiteSpace=wrap;rounded=0;fillColor=#ffe6cc;strokeColor=#d79b00;" vertex="1" parent="SSrwQalCuhJ2lRnCW07m-26">
          <mxGeometry x="48" y="10.59" width="90" height="30" as="geometry" />
        </mxCell>
        <mxCell id="SSrwQalCuhJ2lRnCW07m-29" value="Kastle (API)" style="text;html=1;align=center;verticalAlign=middle;whiteSpace=wrap;rounded=0;fillColor=#ffe6cc;strokeColor=#d79b00;" vertex="1" parent="SSrwQalCuhJ2lRnCW07m-26">
          <mxGeometry x="48" y="50" width="90" height="30" as="geometry" />
        </mxCell>
        <mxCell id="SSrwQalCuhJ2lRnCW07m-30" value="adapters&amp;nbsp;" style="text;html=1;align=center;verticalAlign=middle;whiteSpace=wrap;rounded=0;rotation=-90;fillColor=#f5f5f5;fontColor=#333333;strokeColor=#666666;" vertex="1" parent="SSrwQalCuhJ2lRnCW07m-26">
          <mxGeometry x="-12.5" y="28.24000000000001" width="60" height="30" as="geometry" />
        </mxCell>
        <mxCell id="SSrwQalCuhJ2lRnCW07m-31" value="" style="shape=cylinder3;whiteSpace=wrap;html=1;boundedLbl=1;backgroundOutline=1;size=15;fillColor=#dae8fc;strokeColor=#6c8ebf;" vertex="1" parent="1">
          <mxGeometry x="1060" y="-650" width="60" height="65" as="geometry" />
        </mxCell>
        <mxCell id="SSrwQalCuhJ2lRnCW07m-32" style="edgeStyle=orthogonalEdgeStyle;rounded=0;orthogonalLoop=1;jettySize=auto;html=1;entryX=0.71;entryY=0.964;entryDx=0;entryDy=0;entryPerimeter=0;" edge="1" parent="1" source="SSrwQalCuhJ2lRnCW07m-22" target="SSrwQalCuhJ2lRnCW07m-10">
          <mxGeometry relative="1" as="geometry" />
        </mxCell>
        <mxCell id="SSrwQalCuhJ2lRnCW07m-33" style="edgeStyle=orthogonalEdgeStyle;rounded=0;orthogonalLoop=1;jettySize=auto;html=1;entryX=0;entryY=0.5;entryDx=0;entryDy=0;" edge="1" parent="1" target="SSrwQalCuhJ2lRnCW07m-10">
          <mxGeometry relative="1" as="geometry">
            <mxPoint x="560" y="-608.529411764706" as="targetPoint" />
            <mxPoint x="390" y="-545" as="sourcePoint" />
          </mxGeometry>
        </mxCell>
        <mxCell id="SSrwQalCuhJ2lRnCW07m-34" value="produce event&amp;nbsp;" style="edgeLabel;html=1;align=center;verticalAlign=middle;resizable=0;points=[];" connectable="0" vertex="1" parent="SSrwQalCuhJ2lRnCW07m-33">
          <mxGeometry x="0.2399" relative="1" as="geometry">
            <mxPoint x="4" y="53" as="offset" />
          </mxGeometry>
        </mxCell>
      </root>
    </mxGraphModel>
  </diagram>
  <diagram id="x6_fNawb8ru-d1VT7ifD" name="Apply (Loan Eligibility)">
    <mxGraphModel grid="1" page="1" gridSize="10" guides="1" tooltips="1" connect="1" arrows="1" fold="1" pageScale="1" pageWidth="827" pageHeight="1169" math="0" shadow="0">
      <root>
        <mxCell id="0" />
        <mxCell id="1" parent="0" />
        <mxCell id="2KIiROkbyqt79upOivZk-1" value="" style="endArrow=none;dashed=1;html=1;dashPattern=1 3;strokeWidth=2;rounded=0;" edge="1" parent="1" source="2KIiROkbyqt79upOivZk-12">
          <mxGeometry width="50" height="50" relative="1" as="geometry">
            <mxPoint x="-645" y="510" as="sourcePoint" />
            <mxPoint x="-645" y="100" as="targetPoint" />
          </mxGeometry>
        </mxCell>
        <mxCell id="2KIiROkbyqt79upOivZk-2" value="mobile" style="rounded=1;whiteSpace=wrap;html=1;" vertex="1" parent="1">
          <mxGeometry x="-705" y="40" width="120" height="60" as="geometry" />
        </mxCell>
        <mxCell id="2KIiROkbyqt79upOivZk-3" value="B2C GW" style="rounded=1;whiteSpace=wrap;html=1;" vertex="1" parent="1">
          <mxGeometry x="-495" y="40" width="70" height="60" as="geometry" />
        </mxCell>
        <mxCell id="2KIiROkbyqt79upOivZk-4" value="" style="endArrow=none;dashed=1;html=1;dashPattern=1 3;strokeWidth=2;rounded=0;" edge="1" parent="1">
          <mxGeometry width="50" height="50" relative="1" as="geometry">
            <mxPoint x="-464" y="510" as="sourcePoint" />
            <mxPoint x="-464" y="100" as="targetPoint" />
          </mxGeometry>
        </mxCell>
        <mxCell id="2KIiROkbyqt79upOivZk-5" value="NewGEN" style="rounded=1;whiteSpace=wrap;html=1;fillColor=#f5f5f5;strokeColor=#666666;fontColor=#333333;" vertex="1" parent="1">
          <mxGeometry x="-293" y="40" width="120" height="60" as="geometry" />
        </mxCell>
        <mxCell id="2KIiROkbyqt79upOivZk-6" value="" style="endArrow=none;dashed=1;html=1;dashPattern=1 3;strokeWidth=2;rounded=0;" edge="1" parent="1" source="2KIiROkbyqt79upOivZk-17">
          <mxGeometry width="50" height="50" relative="1" as="geometry">
            <mxPoint x="-235" y="510" as="sourcePoint" />
            <mxPoint x="-235" y="100" as="targetPoint" />
          </mxGeometry>
        </mxCell>
        <mxCell id="2KIiROkbyqt79upOivZk-7" value="Apply for TopUp" style="text;html=1;align=center;verticalAlign=middle;resizable=0;points=[];autosize=1;strokeColor=none;fillColor=none;" vertex="1" parent="1">
          <mxGeometry x="-770" y="138" width="110" height="30" as="geometry" />
        </mxCell>
        <mxCell id="2KIiROkbyqt79upOivZk-8" value="ENMIE" style="rounded=1;whiteSpace=wrap;html=1;" vertex="1" parent="1">
          <mxGeometry x="-55" y="40" width="120" height="60" as="geometry" />
        </mxCell>
        <mxCell id="2KIiROkbyqt79upOivZk-9" value="" style="endArrow=none;dashed=1;html=1;dashPattern=1 3;strokeWidth=2;rounded=0;" edge="1" parent="1" source="2KIiROkbyqt79upOivZk-28">
          <mxGeometry width="50" height="50" relative="1" as="geometry">
            <mxPoint x="5" y="510" as="sourcePoint" />
            <mxPoint x="5" y="100" as="targetPoint" />
          </mxGeometry>
        </mxCell>
        <mxCell id="2KIiROkbyqt79upOivZk-10" value="" style="endArrow=none;dashed=1;html=1;dashPattern=1 3;strokeWidth=2;rounded=0;" edge="1" parent="1" target="2KIiROkbyqt79upOivZk-12">
          <mxGeometry width="50" height="50" relative="1" as="geometry">
            <mxPoint x="-645" y="510" as="sourcePoint" />
            <mxPoint x="-645" y="100" as="targetPoint" />
          </mxGeometry>
        </mxCell>
        <mxCell id="2KIiROkbyqt79upOivZk-11" value="" style="edgeStyle=orthogonalEdgeStyle;rounded=0;orthogonalLoop=1;jettySize=auto;html=1;exitX=0.938;exitY=0.054;exitDx=0;exitDy=0;exitPerimeter=0;entryX=0;entryY=0.072;entryDx=0;entryDy=0;entryPerimeter=0;" edge="1" parent="1" source="2KIiROkbyqt79upOivZk-12" target="2KIiROkbyqt79upOivZk-15">
          <mxGeometry relative="1" as="geometry" />
        </mxCell>
        <mxCell id="2KIiROkbyqt79upOivZk-12" value="" style="shape=ext;double=1;rounded=1;whiteSpace=wrap;html=1;" vertex="1" parent="1">
          <mxGeometry x="-655" y="130" width="20" height="520" as="geometry" />
        </mxCell>
        <mxCell id="2KIiROkbyqt79upOivZk-13" value="" style="edgeStyle=orthogonalEdgeStyle;rounded=0;orthogonalLoop=1;jettySize=auto;html=1;entryX=0;entryY=0.25;entryDx=0;entryDy=0;" edge="1" parent="1" target="2KIiROkbyqt79upOivZk-17">
          <mxGeometry relative="1" as="geometry">
            <mxPoint x="-455" y="173" as="sourcePoint" />
            <mxPoint x="-244" y="239" as="targetPoint" />
          </mxGeometry>
        </mxCell>
        <mxCell id="2KIiROkbyqt79upOivZk-14" style="rounded=0;orthogonalLoop=1;jettySize=auto;html=1;entryX=0.813;entryY=0.927;entryDx=0;entryDy=0;dashed=1;entryPerimeter=0;" edge="1" parent="1" target="2KIiROkbyqt79upOivZk-12">
          <mxGeometry relative="1" as="geometry">
            <mxPoint x="-480" y="610" as="sourcePoint" />
            <mxPoint x="-635" y="402" as="targetPoint" />
            <Array as="points">
              <mxPoint x="-550" y="610" />
            </Array>
          </mxGeometry>
        </mxCell>
        <mxCell id="2KIiROkbyqt79upOivZk-15" value="" style="shape=ext;double=1;rounded=1;whiteSpace=wrap;html=1;" vertex="1" parent="1">
          <mxGeometry x="-475" y="120" width="20" height="530" as="geometry" />
        </mxCell>
        <mxCell id="2KIiROkbyqt79upOivZk-16" value="" style="endArrow=none;dashed=1;html=1;dashPattern=1 3;strokeWidth=2;rounded=0;" edge="1" parent="1" source="2KIiROkbyqt79upOivZk-43" target="2KIiROkbyqt79upOivZk-17">
          <mxGeometry width="50" height="50" relative="1" as="geometry">
            <mxPoint x="-225" y="690" as="sourcePoint" />
            <mxPoint x="-234" y="100" as="targetPoint" />
          </mxGeometry>
        </mxCell>
        <mxCell id="2KIiROkbyqt79upOivZk-17" value="" style="shape=ext;double=1;rounded=1;whiteSpace=wrap;html=1;fillColor=#f5f5f5;strokeColor=#666666;fontColor=#333333;" vertex="1" parent="1">
          <mxGeometry x="-244" y="121" width="20" height="210" as="geometry" />
        </mxCell>
        <mxCell id="2KIiROkbyqt79upOivZk-18" value="" style="rounded=0;orthogonalLoop=1;jettySize=auto;html=1;exitX=0;exitY=0.25;exitDx=0;exitDy=0;entryX=0.894;entryY=0.478;entryDx=0;entryDy=0;entryPerimeter=0;" edge="1" parent="1" target="2KIiROkbyqt79upOivZk-23">
          <mxGeometry relative="1" as="geometry">
            <mxPoint x="-244" y="321" as="sourcePoint" />
            <mxPoint x="-354" y="331" as="targetPoint" />
          </mxGeometry>
        </mxCell>
        <mxCell id="2KIiROkbyqt79upOivZk-19" value="enmie" style="edgeLabel;html=1;align=center;verticalAlign=middle;resizable=0;points=[];" vertex="1" connectable="0" parent="2KIiROkbyqt79upOivZk-18">
          <mxGeometry x="-0.1071" y="3" relative="1" as="geometry">
            <mxPoint as="offset" />
          </mxGeometry>
        </mxCell>
        <mxCell id="2KIiROkbyqt79upOivZk-20" value="" style="endArrow=none;dashed=1;html=1;dashPattern=1 3;strokeWidth=2;rounded=0;" edge="1" parent="1">
          <mxGeometry width="50" height="50" relative="1" as="geometry">
            <mxPoint x="-363.76470588235316" y="230" as="sourcePoint" />
            <mxPoint x="-363" y="100" as="targetPoint" />
          </mxGeometry>
        </mxCell>
        <mxCell id="2KIiROkbyqt79upOivZk-21" value="Core GW" style="rounded=1;whiteSpace=wrap;html=1;" vertex="1" parent="1">
          <mxGeometry x="-394" y="40" width="70" height="60" as="geometry" />
        </mxCell>
        <mxCell id="2KIiROkbyqt79upOivZk-22" value="" style="endArrow=none;dashed=1;html=1;dashPattern=1 3;strokeWidth=2;rounded=0;entryX=0.416;entryY=1.009;entryDx=0;entryDy=0;entryPerimeter=0;" edge="1" parent="1" target="2KIiROkbyqt79upOivZk-21">
          <mxGeometry width="50" height="50" relative="1" as="geometry">
            <mxPoint x="-365" y="710" as="sourcePoint" />
            <mxPoint x="381.16666666666697" y="300" as="targetPoint" />
          </mxGeometry>
        </mxCell>
        <mxCell id="2KIiROkbyqt79upOivZk-23" value="" style="shape=ext;double=1;rounded=1;whiteSpace=wrap;html=1;" vertex="1" parent="1">
          <mxGeometry x="-374" y="120" width="20" height="420" as="geometry" />
        </mxCell>
        <mxCell id="2KIiROkbyqt79upOivZk-24" value="" style="edgeStyle=orthogonalEdgeStyle;rounded=0;orthogonalLoop=1;jettySize=auto;html=1;" edge="1" parent="1" target="2KIiROkbyqt79upOivZk-28">
          <mxGeometry relative="1" as="geometry">
            <mxPoint x="-354" y="380" as="sourcePoint" />
          </mxGeometry>
        </mxCell>
        <mxCell id="2KIiROkbyqt79upOivZk-25" value="check enmi" style="edgeLabel;html=1;align=center;verticalAlign=middle;resizable=0;points=[];" vertex="1" connectable="0" parent="2KIiROkbyqt79upOivZk-24">
          <mxGeometry x="-0.0016" y="-1" relative="1" as="geometry">
            <mxPoint as="offset" />
          </mxGeometry>
        </mxCell>
        <mxCell id="2KIiROkbyqt79upOivZk-26" value="" style="endArrow=none;dashed=1;html=1;dashPattern=1 3;strokeWidth=2;rounded=0;" edge="1" parent="1" target="2KIiROkbyqt79upOivZk-28">
          <mxGeometry width="50" height="50" relative="1" as="geometry">
            <mxPoint x="5" y="510" as="sourcePoint" />
            <mxPoint x="5" y="100" as="targetPoint" />
          </mxGeometry>
        </mxCell>
        <mxCell id="2KIiROkbyqt79upOivZk-27" style="edgeStyle=orthogonalEdgeStyle;rounded=0;orthogonalLoop=1;jettySize=auto;html=1;entryX=1;entryY=0.5;entryDx=0;entryDy=0;dashed=1;" edge="1" parent="1">
          <mxGeometry relative="1" as="geometry">
            <mxPoint x="-5" y="400" as="sourcePoint" />
            <mxPoint x="-354.00000000000045" y="400" as="targetPoint" />
          </mxGeometry>
        </mxCell>
        <mxCell id="2KIiROkbyqt79upOivZk-28" value="" style="shape=ext;double=1;rounded=1;whiteSpace=wrap;html=1;" vertex="1" parent="1">
          <mxGeometry x="-5" y="340" width="20" height="80" as="geometry" />
        </mxCell>
        <mxCell id="2KIiROkbyqt79upOivZk-29" value="" style="edgeStyle=orthogonalEdgeStyle;rounded=0;orthogonalLoop=1;jettySize=auto;html=1;dashed=1;" edge="1" parent="1">
          <mxGeometry relative="1" as="geometry">
            <mxPoint x="-354" y="490" as="sourcePoint" />
            <mxPoint x="-240" y="490" as="targetPoint" />
          </mxGeometry>
        </mxCell>
        <mxCell id="2KIiROkbyqt79upOivZk-30" value="" style="endArrow=none;dashed=1;html=1;dashPattern=1 3;strokeWidth=2;rounded=0;" edge="1" parent="1">
          <mxGeometry width="50" height="50" relative="1" as="geometry">
            <mxPoint x="-234" y="510" as="sourcePoint" />
            <mxPoint x="-238" y="530" as="targetPoint" />
          </mxGeometry>
        </mxCell>
        <mxCell id="2KIiROkbyqt79upOivZk-31" value="" style="shape=ext;double=1;rounded=1;whiteSpace=wrap;html=1;" vertex="1" parent="1">
          <mxGeometry x="-238" y="436" width="20" height="74" as="geometry" />
        </mxCell>
        <mxCell id="2KIiROkbyqt79upOivZk-32" style="rounded=0;orthogonalLoop=1;jettySize=auto;html=1;entryX=0;entryY=1;entryDx=0;entryDy=0;dashed=1;" edge="1" parent="1" target="2KIiROkbyqt79upOivZk-43">
          <mxGeometry relative="1" as="geometry">
            <mxPoint x="-353.9999999999998" y="610" as="sourcePoint" />
            <mxPoint x="-238" y="582" as="targetPoint" />
          </mxGeometry>
        </mxCell>
        <mxCell id="2KIiROkbyqt79upOivZk-33" value="&lt;div&gt;&lt;br&gt;&lt;/div&gt;" style="shape=ext;double=1;rounded=1;whiteSpace=wrap;html=1;" vertex="1" parent="1">
          <mxGeometry x="-374" y="556" width="20" height="134" as="geometry" />
        </mxCell>
        <mxCell id="2KIiROkbyqt79upOivZk-34" value="check loan eligibility&amp;nbsp;" style="rounded=0;orthogonalLoop=1;jettySize=auto;html=1;entryX=1.006;entryY=0.15;entryDx=0;entryDy=0;entryPerimeter=0;" edge="1" parent="1">
          <mxGeometry x="0.6748" y="-12" relative="1" as="geometry">
            <mxPoint x="-239" y="577.9682237051159" as="sourcePoint" />
            <mxPoint x="-354.87999999999965" y="577.5999999999999" as="targetPoint" />
            <mxPoint as="offset" />
          </mxGeometry>
        </mxCell>
        <mxCell id="2KIiROkbyqt79upOivZk-35" value="" style="endArrow=none;dashed=1;html=1;dashPattern=1 3;strokeWidth=2;rounded=0;" edge="1" parent="1">
          <mxGeometry width="50" height="50" relative="1" as="geometry">
            <mxPoint x="-225" y="660" as="sourcePoint" />
            <mxPoint x="-233" y="370" as="targetPoint" />
          </mxGeometry>
        </mxCell>
        <mxCell id="2KIiROkbyqt79upOivZk-36" value="enmie respons is hit&amp;nbsp;" style="swimlane;whiteSpace=wrap;html=1;" vertex="1" parent="1">
          <mxGeometry x="-335" y="420" width="340" height="100" as="geometry" />
        </mxCell>
        <mxCell id="2KIiROkbyqt79upOivZk-37" value="enmi manual process&amp;nbsp;" style="text;html=1;align=center;verticalAlign=middle;whiteSpace=wrap;rounded=0;fillColor=#fff2cc;strokeColor=#d6b656;" vertex="1" parent="2KIiROkbyqt79upOivZk-36">
          <mxGeometry x="150" y="50" width="130" height="30" as="geometry" />
        </mxCell>
        <mxCell id="2KIiROkbyqt79upOivZk-38" style="edgeStyle=orthogonalEdgeStyle;rounded=0;orthogonalLoop=1;jettySize=auto;html=1;entryX=1.006;entryY=0.205;entryDx=0;entryDy=0;entryPerimeter=0;exitX=-0.272;exitY=0.406;exitDx=0;exitDy=0;exitPerimeter=0;" edge="1" parent="1" source="2KIiROkbyqt79upOivZk-17" target="2KIiROkbyqt79upOivZk-23">
          <mxGeometry relative="1" as="geometry" />
        </mxCell>
        <mxCell id="2KIiROkbyqt79upOivZk-39" value="customer profile details&amp;nbsp;" style="edgeLabel;html=1;align=center;verticalAlign=middle;resizable=0;points=[];" vertex="1" connectable="0" parent="2KIiROkbyqt79upOivZk-38">
          <mxGeometry x="0.3132" y="1" relative="1" as="geometry">
            <mxPoint x="45" y="3" as="offset" />
          </mxGeometry>
        </mxCell>
        <mxCell id="2KIiROkbyqt79upOivZk-40" value="" style="edgeStyle=orthogonalEdgeStyle;rounded=0;orthogonalLoop=1;jettySize=auto;html=1;dashed=1;" edge="1" parent="1">
          <mxGeometry relative="1" as="geometry">
            <mxPoint x="-353" y="258" as="sourcePoint" />
            <mxPoint x="-239" y="258" as="targetPoint" />
          </mxGeometry>
        </mxCell>
        <mxCell id="2KIiROkbyqt79upOivZk-41" value="else" style="swimlane;whiteSpace=wrap;html=1;" vertex="1" parent="1">
          <mxGeometry x="-335" y="520" width="340" height="110" as="geometry" />
        </mxCell>
        <mxCell id="2KIiROkbyqt79upOivZk-42" value="" style="endArrow=none;dashed=1;html=1;dashPattern=1 3;strokeWidth=2;rounded=0;" edge="1" parent="1" target="2KIiROkbyqt79upOivZk-43">
          <mxGeometry width="50" height="50" relative="1" as="geometry">
            <mxPoint x="-225" y="690" as="sourcePoint" />
            <mxPoint x="-232" y="331" as="targetPoint" />
          </mxGeometry>
        </mxCell>
        <mxCell id="2KIiROkbyqt79upOivZk-43" value="" style="shape=ext;double=1;rounded=1;whiteSpace=wrap;html=1;" vertex="1" parent="1">
          <mxGeometry x="-238" y="550" width="20" height="60" as="geometry" />
        </mxCell>
        <mxCell id="2KIiROkbyqt79upOivZk-44" style="edgeStyle=orthogonalEdgeStyle;rounded=0;orthogonalLoop=1;jettySize=auto;html=1;entryX=0.938;entryY=0.949;entryDx=0;entryDy=0;entryPerimeter=0;dashed=1;" edge="1" parent="1" source="2KIiROkbyqt79upOivZk-33" target="2KIiROkbyqt79upOivZk-15">
          <mxGeometry relative="1" as="geometry" />
        </mxCell>
        <mxCell id="lZOmqAnWdEf0K0-eYP_h-1" value="T24" style="rounded=1;whiteSpace=wrap;html=1;" vertex="1" parent="1">
          <mxGeometry x="560" y="30" width="120" height="60" as="geometry" />
        </mxCell>
        <mxCell id="lZOmqAnWdEf0K0-eYP_h-2" value="" style="endArrow=none;dashed=1;html=1;dashPattern=1 3;strokeWidth=2;rounded=0;entryX=0.5;entryY=1;entryDx=0;entryDy=0;" edge="1" parent="1" source="lZOmqAnWdEf0K0-eYP_h-14" target="lZOmqAnWdEf0K0-eYP_h-1">
          <mxGeometry width="50" height="50" relative="1" as="geometry">
            <mxPoint x="610" y="1110" as="sourcePoint" />
            <mxPoint x="610" y="100" as="targetPoint" />
          </mxGeometry>
        </mxCell>
        <mxCell id="lZOmqAnWdEf0K0-eYP_h-3" value="Kastle" style="rounded=1;whiteSpace=wrap;html=1;" vertex="1" parent="1">
          <mxGeometry x="790" y="30" width="120" height="60" as="geometry" />
        </mxCell>
        <mxCell id="lZOmqAnWdEf0K0-eYP_h-4" value="" style="endArrow=none;dashed=1;html=1;dashPattern=1 3;strokeWidth=2;rounded=0;" edge="1" parent="1" source="lZOmqAnWdEf0K0-eYP_h-19">
          <mxGeometry width="50" height="50" relative="1" as="geometry">
            <mxPoint x="840" y="1130" as="sourcePoint" />
            <mxPoint x="850" y="100" as="targetPoint" />
          </mxGeometry>
        </mxCell>
        <mxCell id="lZOmqAnWdEf0K0-eYP_h-5" value="" style="endArrow=none;dashed=1;html=1;dashPattern=1 3;strokeWidth=2;rounded=0;" edge="1" parent="1" source="lZOmqAnWdEf0K0-eYP_h-35">
          <mxGeometry width="50" height="50" relative="1" as="geometry">
            <mxPoint x="370" y="730" as="sourcePoint" />
            <mxPoint x="382" y="90" as="targetPoint" />
          </mxGeometry>
        </mxCell>
        <mxCell id="lZOmqAnWdEf0K0-eYP_h-6" value="Core GW" style="rounded=1;whiteSpace=wrap;html=1;" vertex="1" parent="1">
          <mxGeometry x="351" y="30" width="70" height="60" as="geometry" />
        </mxCell>
        <mxCell id="lZOmqAnWdEf0K0-eYP_h-7" value="" style="endArrow=none;dashed=1;html=1;dashPattern=1 3;strokeWidth=2;rounded=0;" edge="1" parent="1">
          <mxGeometry width="50" height="50" relative="1" as="geometry">
            <mxPoint x="512" y="720" as="sourcePoint" />
            <mxPoint x="508" y="740" as="targetPoint" />
          </mxGeometry>
        </mxCell>
        <mxCell id="lZOmqAnWdEf0K0-eYP_h-8" style="rounded=0;orthogonalLoop=1;jettySize=auto;html=1;entryX=0;entryY=0.5;entryDx=0;entryDy=0;" edge="1" parent="1" target="lZOmqAnWdEf0K0-eYP_h-14">
          <mxGeometry relative="1" as="geometry">
            <mxPoint x="394" y="190" as="sourcePoint" />
            <mxPoint x="940" y="1024" as="targetPoint" />
          </mxGeometry>
        </mxCell>
        <mxCell id="lZOmqAnWdEf0K0-eYP_h-9" value="getActiveContracts" style="edgeLabel;html=1;align=center;verticalAlign=middle;resizable=0;points=[];" connectable="0" vertex="1" parent="lZOmqAnWdEf0K0-eYP_h-8">
          <mxGeometry x="-0.193" relative="1" as="geometry">
            <mxPoint as="offset" />
          </mxGeometry>
        </mxCell>
        <mxCell id="lZOmqAnWdEf0K0-eYP_h-10" style="edgeStyle=orthogonalEdgeStyle;rounded=0;orthogonalLoop=1;jettySize=auto;html=1;entryX=0;entryY=0.5;entryDx=0;entryDy=0;exitX=1;exitY=0.302;exitDx=0;exitDy=0;exitPerimeter=0;" edge="1" parent="1" target="lZOmqAnWdEf0K0-eYP_h-32">
          <mxGeometry relative="1" as="geometry">
            <mxPoint x="391" y="410.8600000000001" as="sourcePoint" />
          </mxGeometry>
        </mxCell>
        <mxCell id="lZOmqAnWdEf0K0-eYP_h-11" value="APPLY set of rules&amp;nbsp;" style="edgeLabel;html=1;align=center;verticalAlign=middle;resizable=0;points=[];" connectable="0" vertex="1" parent="lZOmqAnWdEf0K0-eYP_h-10">
          <mxGeometry x="-0.2461" y="1" relative="1" as="geometry">
            <mxPoint as="offset" />
          </mxGeometry>
        </mxCell>
        <mxCell id="lZOmqAnWdEf0K0-eYP_h-12" style="rounded=0;orthogonalLoop=1;jettySize=auto;html=1;entryX=0.95;entryY=0.081;entryDx=0;entryDy=0;entryPerimeter=0;dashed=1;dashPattern=12 12;exitX=0;exitY=0.75;exitDx=0;exitDy=0;" edge="1" parent="1" source="lZOmqAnWdEf0K0-eYP_h-14">
          <mxGeometry relative="1" as="geometry">
            <mxPoint x="390" y="205.32999999999993" as="targetPoint" />
          </mxGeometry>
        </mxCell>
        <mxCell id="lZOmqAnWdEf0K0-eYP_h-13" value="" style="endArrow=none;dashed=1;html=1;dashPattern=1 3;strokeWidth=2;rounded=0;" edge="1" parent="1" target="lZOmqAnWdEf0K0-eYP_h-14">
          <mxGeometry width="50" height="50" relative="1" as="geometry">
            <mxPoint x="610" y="600" as="sourcePoint" />
            <mxPoint x="610" y="100" as="targetPoint" />
          </mxGeometry>
        </mxCell>
        <mxCell id="lZOmqAnWdEf0K0-eYP_h-14" value="" style="shape=ext;double=1;rounded=1;whiteSpace=wrap;html=1;" vertex="1" parent="1">
          <mxGeometry x="610" y="150" width="20" height="80" as="geometry" />
        </mxCell>
        <mxCell id="lZOmqAnWdEf0K0-eYP_h-15" style="rounded=0;orthogonalLoop=1;jettySize=auto;html=1;entryX=0.889;entryY=0.638;entryDx=0;entryDy=0;entryPerimeter=0;dashed=1;dashPattern=12 12;exitX=0;exitY=0.588;exitDx=0;exitDy=0;exitPerimeter=0;" edge="1" parent="1" source="lZOmqAnWdEf0K0-eYP_h-19" target="lZOmqAnWdEf0K0-eYP_h-23">
          <mxGeometry relative="1" as="geometry">
            <mxPoint x="391" y="276.94000000000005" as="targetPoint" />
          </mxGeometry>
        </mxCell>
        <mxCell id="lZOmqAnWdEf0K0-eYP_h-16" style="rounded=0;orthogonalLoop=1;jettySize=auto;html=1;entryX=0;entryY=0.35;entryDx=0;entryDy=0;exitX=1.05;exitY=0.14;exitDx=0;exitDy=0;exitPerimeter=0;entryPerimeter=0;" edge="1" parent="1" target="lZOmqAnWdEf0K0-eYP_h-19">
          <mxGeometry relative="1" as="geometry">
            <mxPoint x="392" y="260.20000000000005" as="sourcePoint" />
            <mxPoint x="941" y="1134" as="targetPoint" />
          </mxGeometry>
        </mxCell>
        <mxCell id="lZOmqAnWdEf0K0-eYP_h-17" value="getActiveApplicationsAndcontracts" style="edgeLabel;html=1;align=center;verticalAlign=middle;resizable=0;points=[];" connectable="0" vertex="1" parent="lZOmqAnWdEf0K0-eYP_h-16">
          <mxGeometry x="-0.193" relative="1" as="geometry">
            <mxPoint as="offset" />
          </mxGeometry>
        </mxCell>
        <mxCell id="lZOmqAnWdEf0K0-eYP_h-18" value="" style="endArrow=none;dashed=1;html=1;dashPattern=1 3;strokeWidth=2;rounded=0;" edge="1" parent="1" target="lZOmqAnWdEf0K0-eYP_h-19">
          <mxGeometry width="50" height="50" relative="1" as="geometry">
            <mxPoint x="850" y="600" as="sourcePoint" />
            <mxPoint x="850" y="100" as="targetPoint" />
          </mxGeometry>
        </mxCell>
        <mxCell id="lZOmqAnWdEf0K0-eYP_h-19" value="" style="shape=ext;double=1;rounded=1;whiteSpace=wrap;html=1;" vertex="1" parent="1">
          <mxGeometry x="840" y="230" width="20" height="80" as="geometry" />
        </mxCell>
        <mxCell id="lZOmqAnWdEf0K0-eYP_h-20" value="Rule Engine&amp;nbsp;" style="rounded=1;whiteSpace=wrap;html=1;" vertex="1" parent="1">
          <mxGeometry x="1130" y="30" width="120" height="60" as="geometry" />
        </mxCell>
        <mxCell id="lZOmqAnWdEf0K0-eYP_h-21" value="" style="endArrow=none;dashed=1;html=1;dashPattern=1 3;strokeWidth=2;rounded=0;" edge="1" parent="1" source="lZOmqAnWdEf0K0-eYP_h-32">
          <mxGeometry width="50" height="50" relative="1" as="geometry">
            <mxPoint x="1183.5128205128203" y="840" as="sourcePoint" />
            <mxPoint x="1193" y="100" as="targetPoint" />
          </mxGeometry>
        </mxCell>
        <mxCell id="lZOmqAnWdEf0K0-eYP_h-22" value="&lt;span style=&quot;font-size: 11px; text-wrap: nowrap; background-color: rgb(255, 255, 255);&quot;&gt;aggregrator to check loan eligibility&amp;nbsp;&lt;/span&gt;" style="text;html=1;align=center;verticalAlign=middle;whiteSpace=wrap;rounded=0;fillColor=#fff2cc;strokeColor=#d6b656;" vertex="1" parent="1">
          <mxGeometry x="150" y="10" width="180" height="30" as="geometry" />
        </mxCell>
        <mxCell id="lZOmqAnWdEf0K0-eYP_h-23" value="if source is not kastle&amp;nbsp;" style="rhombus;whiteSpace=wrap;html=1;fillColor=#d5e8d4;strokeColor=#82b366;" vertex="1" parent="1">
          <mxGeometry x="330" y="230" width="90" height="80" as="geometry" />
        </mxCell>
        <mxCell id="lZOmqAnWdEf0K0-eYP_h-24" value="newgen" style="rounded=1;whiteSpace=wrap;html=1;" vertex="1" parent="1">
          <mxGeometry x="970" y="30" width="120" height="60" as="geometry" />
        </mxCell>
        <mxCell id="lZOmqAnWdEf0K0-eYP_h-25" style="rounded=0;orthogonalLoop=1;jettySize=auto;html=1;entryX=1;entryY=0.5;entryDx=0;entryDy=0;dashed=1;dashPattern=12 12;exitX=0;exitY=0.75;exitDx=0;exitDy=0;" edge="1" parent="1" source="lZOmqAnWdEf0K0-eYP_h-30" target="lZOmqAnWdEf0K0-eYP_h-26">
          <mxGeometry relative="1" as="geometry">
            <mxPoint x="390" y="343.9000000000001" as="targetPoint" />
          </mxGeometry>
        </mxCell>
        <mxCell id="lZOmqAnWdEf0K0-eYP_h-26" value="if source is not newGen" style="rhombus;whiteSpace=wrap;html=1;fillColor=#d5e8d4;strokeColor=#82b366;" vertex="1" parent="1">
          <mxGeometry x="330" y="310" width="100" height="80" as="geometry" />
        </mxCell>
        <mxCell id="lZOmqAnWdEf0K0-eYP_h-27" style="rounded=0;orthogonalLoop=1;jettySize=auto;html=1;entryX=0;entryY=0.5;entryDx=0;entryDy=0;" edge="1" parent="1" target="lZOmqAnWdEf0K0-eYP_h-30">
          <mxGeometry relative="1" as="geometry">
            <mxPoint x="410" y="330" as="sourcePoint" />
            <mxPoint x="1120" y="1194" as="targetPoint" />
          </mxGeometry>
        </mxCell>
        <mxCell id="lZOmqAnWdEf0K0-eYP_h-28" value="getActiveApplications" style="edgeLabel;html=1;align=center;verticalAlign=middle;resizable=0;points=[];" connectable="0" vertex="1" parent="lZOmqAnWdEf0K0-eYP_h-27">
          <mxGeometry x="-0.193" relative="1" as="geometry">
            <mxPoint as="offset" />
          </mxGeometry>
        </mxCell>
        <mxCell id="lZOmqAnWdEf0K0-eYP_h-29" value="" style="endArrow=none;dashed=1;html=1;dashPattern=1 3;strokeWidth=2;rounded=0;entryX=0.5;entryY=1;entryDx=0;entryDy=0;" edge="1" parent="1" target="lZOmqAnWdEf0K0-eYP_h-24">
          <mxGeometry width="50" height="50" relative="1" as="geometry">
            <mxPoint x="1020" y="600" as="sourcePoint" />
            <mxPoint x="1029" y="160" as="targetPoint" />
          </mxGeometry>
        </mxCell>
        <mxCell id="lZOmqAnWdEf0K0-eYP_h-30" value="" style="shape=ext;double=1;rounded=1;whiteSpace=wrap;html=1;" vertex="1" parent="1">
          <mxGeometry x="1019" y="290" width="20" height="80" as="geometry" />
        </mxCell>
        <mxCell id="lZOmqAnWdEf0K0-eYP_h-31" value="" style="endArrow=none;dashed=1;html=1;dashPattern=1 3;strokeWidth=2;rounded=0;" edge="1" parent="1" target="lZOmqAnWdEf0K0-eYP_h-32">
          <mxGeometry width="50" height="50" relative="1" as="geometry">
            <mxPoint x="1190" y="600" as="sourcePoint" />
            <mxPoint x="1193" y="100" as="targetPoint" />
          </mxGeometry>
        </mxCell>
        <mxCell id="lZOmqAnWdEf0K0-eYP_h-32" value="" style="shape=ext;double=1;rounded=1;whiteSpace=wrap;html=1;" vertex="1" parent="1">
          <mxGeometry x="1180" y="380" width="20" height="80" as="geometry" />
        </mxCell>
        <mxCell id="lZOmqAnWdEf0K0-eYP_h-33" style="rounded=0;orthogonalLoop=1;jettySize=auto;html=1;entryX=1.1;entryY=0.324;entryDx=0;entryDy=0;entryPerimeter=0;dashed=1;dashPattern=12 12;exitX=0;exitY=0.75;exitDx=0;exitDy=0;" edge="1" parent="1">
          <mxGeometry relative="1" as="geometry">
            <mxPoint x="393" y="444.31999999999994" as="targetPoint" />
            <mxPoint x="1180" y="453" as="sourcePoint" />
          </mxGeometry>
        </mxCell>
        <mxCell id="lZOmqAnWdEf0K0-eYP_h-34" value="" style="endArrow=none;dashed=1;html=1;dashPattern=1 3;strokeWidth=2;rounded=0;" edge="1" parent="1" target="lZOmqAnWdEf0K0-eYP_h-35">
          <mxGeometry width="50" height="50" relative="1" as="geometry">
            <mxPoint x="380" y="670" as="sourcePoint" />
            <mxPoint x="382" y="90" as="targetPoint" />
          </mxGeometry>
        </mxCell>
        <mxCell id="lZOmqAnWdEf0K0-eYP_h-35" value="" style="shape=ext;double=1;rounded=1;whiteSpace=wrap;html=1;" vertex="1" parent="1">
          <mxGeometry x="370" y="150" width="20" height="80" as="geometry" />
        </mxCell>
        <mxCell id="lZOmqAnWdEf0K0-eYP_h-36" value="" style="shape=ext;double=1;rounded=1;whiteSpace=wrap;html=1;" vertex="1" parent="1">
          <mxGeometry x="371" y="390" width="20" height="80" as="geometry" />
        </mxCell>
        <mxCell id="lZOmqAnWdEf0K0-eYP_h-37" value="&lt;span style=&quot;font-size: 11px; text-wrap: nowrap; background-color: rgb(255, 255, 255);&quot;&gt;loan eligibility&amp;nbsp;&lt;/span&gt;" style="text;html=1;align=center;verticalAlign=middle;whiteSpace=wrap;rounded=0;" vertex="1" parent="1">
          <mxGeometry x="150" y="140" width="180" height="30" as="geometry" />
        </mxCell>
        <mxCell id="lZOmqAnWdEf0K0-eYP_h-38" value="thru rule engine GW" style="ellipse;whiteSpace=wrap;html=1;" vertex="1" parent="1">
          <mxGeometry x="890" y="400" width="120" height="30" as="geometry" />
        </mxCell>
        <mxCell id="lZOmqAnWdEf0K0-eYP_h-39" value="" style="endArrow=classic;html=1;rounded=0;" edge="1" parent="1">
          <mxGeometry width="50" height="50" relative="1" as="geometry">
            <mxPoint x="230" y="180" as="sourcePoint" />
            <mxPoint x="370" y="180" as="targetPoint" />
          </mxGeometry>
        </mxCell>
        <mxCell id="lZOmqAnWdEf0K0-eYP_h-40" value="loans and contracts , customer profile details&amp;nbsp;" style="edgeLabel;html=1;align=center;verticalAlign=middle;resizable=0;points=[];" connectable="0" vertex="1" parent="lZOmqAnWdEf0K0-eYP_h-39">
          <mxGeometry x="-0.6143" y="1" relative="1" as="geometry">
            <mxPoint as="offset" />
          </mxGeometry>
        </mxCell>
      </root>
    </mxGraphModel>
  </diagram>
  <diagram id="RUFrYgxo1Mu6Es5hLNTo" name="Product Eligibility ">
    <mxGraphModel dx="1420" dy="830" grid="1" gridSize="10" guides="1" tooltips="1" connect="1" arrows="1" fold="1" page="1" pageScale="1" pageWidth="827" pageHeight="1169" math="0" shadow="0">
      <root>
        <mxCell id="0" />
        <mxCell id="1" parent="0" />
      </root>
    </mxGraphModel>
  </diagram>
  <diagram id="DOtOP2fWWYbYliOy1h15" name="Product Eligibility Aggreg">
    <mxGraphModel dx="1420" dy="830" grid="1" gridSize="10" guides="1" tooltips="1" connect="1" arrows="1" fold="1" page="1" pageScale="1" pageWidth="827" pageHeight="1169" math="0" shadow="0">
      <root>
        <mxCell id="0" />
        <mxCell id="1" parent="0" />
      </root>
    </mxGraphModel>
  </diagram>
  <diagram id="hMGcTkp24xS8BsiEzid3" name="Upload Document Flow ">
    <mxGraphModel dx="1420" dy="830" grid="1" gridSize="10" guides="1" tooltips="1" connect="1" arrows="1" fold="1" page="1" pageScale="1" pageWidth="827" pageHeight="1169" math="0" shadow="0">
      <root>
        <mxCell id="0" />
        <mxCell id="1" parent="0" />
      </root>
    </mxGraphModel>
  </diagram>
</mxfile>
